<?xml version="1.0" encoding="UTF-8" standalone="no"?>
<!DOCTYPE svg PUBLIC "-//W3C//DTD SVG 1.1//EN"
 "http://www.w3.org/Graphics/SVG/1.1/DTD/svg11.dtd">
<!-- Generated by graphviz version 2.43.0 (0)
 -->
<!-- Pages: 1 -->
<svg width="1137pt" height="332pt"
 viewBox="0.00 0.00 1136.50 332.00" xmlns="http://www.w3.org/2000/svg" xmlns:xlink="http://www.w3.org/1999/xlink">
<g id="graph0" class="graph" transform="scale(1 1) rotate(0) translate(4 328)">
<polygon fill="white" stroke="transparent" points="-4,4 -4,-328 1132.5,-328 1132.5,4 -4,4"/>
<!-- verify_ctf_cap_acceptable -->
<g id="verify_ctf_cap_acceptable" class="node">
<title>verify_ctf_cap_acceptable</title>
<polygon fill="palegreen" stroke="black" points="891.34,-108 365.05,-108 229.66,-72 755.95,-72 891.34,-108"/>
<text text-anchor="middle" x="560.5" y="-86.3" font-family="Times,serif" font-size="14.00">Verify CTF Challenges capability is acceptable</text>
</g>
<!-- ctf_cap_acceptable -->
<g id="ctf_cap_acceptable" class="node">
<title>ctf_cap_acceptable</title>
<polygon fill="none" stroke="dodgerblue" points="711,-180 410,-180 410,-144 711,-144 711,-180"/>
<text text-anchor="middle" x="560.5" y="-158.3" font-family="Times,serif" font-size="14.00">CTF Challenges capability is acceptable</text>
</g>
<!-- verify_ctf_cap_acceptable&#45;&gt;ctf_cap_acceptable -->
<g id="edge1" class="edge">
<title>verify_ctf_cap_acceptable&#45;&gt;ctf_cap_acceptable</title>
<path fill="none" stroke="black" d="M560.5,-108.3C560.5,-116.02 560.5,-125.29 560.5,-133.89"/>
<polygon fill="black" stroke="black" points="557,-133.9 560.5,-143.9 564,-133.9 557,-133.9"/>
</g>
<!-- verify_adversfine_cap_cybersec_acceptable -->
<g id="verify_adversfine_cap_cybersec_acceptable" class="node">
<title>verify_adversfine_cap_cybersec_acceptable</title>
<polygon fill="palegreen" stroke="black" points="1091.07,-252 247.05,-252 29.93,-216 873.95,-216 1091.07,-252"/>
<text text-anchor="middle" x="560.5" y="-230.3" font-family="Times,serif" font-size="14.00">Aggregate all the models evaluations in terms of cybersecurity capabilities </text>
</g>
<!-- ctf_cap_acceptable&#45;&gt;verify_adversfine_cap_cybersec_acceptable -->
<g id="edge5" class="edge">
<title>ctf_cap_acceptable&#45;&gt;verify_adversfine_cap_cybersec_acceptable</title>
<path fill="none" stroke="black" d="M560.5,-180.3C560.5,-188.02 560.5,-197.29 560.5,-205.89"/>
<polygon fill="black" stroke="black" points="557,-205.9 560.5,-215.9 564,-205.9 557,-205.9"/>
</g>
<!-- headlesslinux_distro -->
<g id="headlesslinux_distro" class="node">
<title>headlesslinux_distro</title>
<polygon fill="#a4d3ee" stroke="black" points="307,-36 0,-36 0,0 307,0 307,-36"/>
<text text-anchor="middle" x="153.5" y="-14.3" font-family="Times,serif" font-size="14.00">HeadlessLinux distribution used for CTF</text>
</g>
<!-- headlesslinux_distro&#45;&gt;verify_ctf_cap_acceptable -->
<g id="edge2" class="edge">
<title>headlesslinux_distro&#45;&gt;verify_ctf_cap_acceptable</title>
<path fill="none" stroke="black" d="M252.54,-36.03C312.61,-46.37 389.34,-59.56 451.18,-70.2"/>
<polygon fill="black" stroke="black" points="450.92,-73.7 461.37,-71.95 452.1,-66.81 450.92,-73.7"/>
</g>
<!-- adversfine_cap_cybersec_acceptable -->
<g id="adversfine_cap_cybersec_acceptable" class="node">
<title>adversfine_cap_cybersec_acceptable</title>
<polygon fill="lightgrey" stroke="black" points="830,-324 291,-324 291,-288 830,-288 830,-324"/>
<text text-anchor="middle" x="560.5" y="-302.3" font-family="Times,serif" font-size="14.00">Adversarially Finetuned models capability in Cybersecurity is acceptable</text>
</g>
<!-- verify_adversfine_cap_cybersec_acceptable&#45;&gt;adversfine_cap_cybersec_acceptable -->
<g id="edge3" class="edge">
<title>verify_adversfine_cap_cybersec_acceptable&#45;&gt;adversfine_cap_cybersec_acceptable</title>
<path fill="none" stroke="black" d="M560.5,-252.3C560.5,-260.02 560.5,-269.29 560.5,-277.89"/>
<polygon fill="black" stroke="black" points="557,-277.9 560.5,-287.9 564,-277.9 557,-277.9"/>
</g>
<!-- curated_ctf_challenges_list -->
<g id="curated_ctf_challenges_list" class="node">
<title>curated_ctf_challenges_list</title>
<polygon fill="#a4d3ee" stroke="black" points="540,-36 325,-36 325,0 540,0 540,-36"/>
<text text-anchor="middle" x="432.5" y="-14.3" font-family="Times,serif" font-size="14.00">Curated CTF challenges list</text>
</g>
<!-- curated_ctf_challenges_list&#45;&gt;verify_ctf_cap_acceptable -->
<g id="edge4" class="edge">
<title>curated_ctf_challenges_list&#45;&gt;verify_ctf_cap_acceptable</title>
<path fill="none" stroke="black" d="M463.81,-36.12C480.7,-45.36 501.75,-56.87 519.88,-66.79"/>
<polygon fill="black" stroke="black" points="518.61,-70.08 529.07,-71.81 521.97,-63.94 518.61,-70.08"/>
</g>
<!-- ctf_eval_results -->
<g id="ctf_eval_results" class="node">
<title>ctf_eval_results</title>
<polygon fill="#a4d3ee" stroke="black" points="820.5,-36 558.5,-36 558.5,0 820.5,0 820.5,-36"/>
<text text-anchor="middle" x="689.5" y="-14.3" font-family="Times,serif" font-size="14.00">CTF Challenges evaluation results</text>
</g>
<!-- ctf_eval_results&#45;&gt;verify_ctf_cap_acceptable -->
<g id="edge6" class="edge">
<title>ctf_eval_results&#45;&gt;verify_ctf_cap_acceptable</title>
<path fill="none" stroke="black" d="M657.94,-36.12C640.84,-45.4 619.52,-56.97 601.18,-66.92"/>
<polygon fill="black" stroke="black" points="599.3,-63.96 592.18,-71.81 602.64,-70.12 599.3,-63.96"/>
</g>
<!-- threshold_for_model_ctf_performance -->
<g id="threshold_for_model_ctf_performance" class="node">
<title>threshold_for_model_ctf_performance</title>
<polygon fill="#a4d3ee" stroke="black" points="1128.5,-36 838.5,-36 838.5,0 1128.5,0 1128.5,-36"/>
<text text-anchor="middle" x="983.5" y="-14.3" font-family="Times,serif" font-size="14.00">Threshold for CTF model performance</text>
</g>
<!-- threshold_for_model_ctf_performance&#45;&gt;verify_ctf_cap_acceptable -->
<g id="edge7" class="edge">
<title>threshold_for_model_ctf_performance&#45;&gt;verify_ctf_cap_acceptable</title>
<path fill="none" stroke="black" d="M880.56,-36.03C818,-46.39 738.06,-59.62 673.72,-70.26"/>
<polygon fill="black" stroke="black" points="672.83,-66.86 663.53,-71.95 673.97,-73.77 672.83,-66.86"/>
</g>
</g>
</svg>
