<?xml version="1.0" encoding="UTF-8" standalone="no"?>
<!DOCTYPE svg PUBLIC "-//W3C//DTD SVG 1.1//EN"
 "http://www.w3.org/Graphics/SVG/1.1/DTD/svg11.dtd">
<!-- Generated by graphviz version 2.43.0 (0)
 -->
<!-- Pages: 1 -->
<svg width="1169pt" height="332pt"
 viewBox="0.00 0.00 1168.68 332.00" xmlns="http://www.w3.org/2000/svg" xmlns:xlink="http://www.w3.org/1999/xlink">
<g id="graph0" class="graph" transform="scale(1 1) rotate(0) translate(4 328)">
<polygon fill="white" stroke="transparent" points="-4,4 -4,-328 1164.68,-328 1164.68,4 -4,4"/>
<!-- verify_ctf_cap_acceptable -->
<g id="verify_ctf_cap_acceptable" class="node">
<title>verify_ctf_cap_acceptable</title>
<polygon fill="#cccccc" stroke="black" points="939.36,-108 368.24,-108 221.32,-72 792.44,-72 939.36,-108"/>
<text text-anchor="middle" x="580.34" y="-86.3" font-family="Helvetica,sans-Serif" font-weight="bold" font-size="14.00" fill="white">Verify CTF Challenges capability is acceptable</text>
</g>
<!-- ctf_cap_acceptable -->
<g id="ctf_cap_acceptable" class="node">
<title>ctf_cap_acceptable</title>
<polygon fill="#cccccc" stroke="dodgerblue" points="743.34,-180 417.34,-180 417.34,-144 743.34,-144 743.34,-180"/>
<text text-anchor="middle" x="580.34" y="-158.3" font-family="Helvetica,sans-Serif" font-weight="bold" font-size="14.00" fill="white">CTF Challenges capability is acceptable</text>
</g>
<!-- verify_ctf_cap_acceptable&#45;&gt;ctf_cap_acceptable -->
<g id="edge1" class="edge">
<title>verify_ctf_cap_acceptable&#45;&gt;ctf_cap_acceptable</title>
<path fill="none" stroke="#cccccc" d="M580.34,-108.3C580.34,-116.02 580.34,-125.29 580.34,-133.89"/>
<polygon fill="#cccccc" stroke="#cccccc" points="576.84,-133.9 580.34,-143.9 583.84,-133.9 576.84,-133.9"/>
</g>
<!-- verify_adversfine_cap_cybersec_acceptable -->
<g id="verify_adversfine_cap_cybersec_acceptable" class="node">
<title>verify_adversfine_cap_cybersec_acceptable</title>
<polygon fill="#cccccc" stroke="black" points="1160.52,-252 237.58,-252 0.16,-216 923.1,-216 1160.52,-252"/>
<text text-anchor="middle" x="580.34" y="-230.3" font-family="Helvetica,sans-Serif" font-weight="bold" font-size="14.00" fill="white">Aggregate all the models evaluations in terms of cybersecurity capabilities </text>
</g>
<!-- ctf_cap_acceptable&#45;&gt;verify_adversfine_cap_cybersec_acceptable -->
<g id="edge5" class="edge">
<title>ctf_cap_acceptable&#45;&gt;verify_adversfine_cap_cybersec_acceptable</title>
<path fill="none" stroke="#cccccc" d="M580.34,-180.3C580.34,-188.02 580.34,-197.29 580.34,-205.89"/>
<polygon fill="#cccccc" stroke="#cccccc" points="576.84,-205.9 580.34,-215.9 583.84,-205.9 576.84,-205.9"/>
</g>
<!-- headlesslinux_distro -->
<g id="headlesslinux_distro" class="node">
<title>headlesslinux_distro</title>
<polygon fill="#a4d3ee" stroke="black" points="314.84,-36 7.84,-36 7.84,0 314.84,0 314.84,-36"/>
<text text-anchor="middle" x="161.34" y="-14.3" font-family="Times,serif" font-size="14.00">HeadlessLinux distribution used for CTF</text>
</g>
<!-- headlesslinux_distro&#45;&gt;verify_ctf_cap_acceptable -->
<g id="edge2" class="edge">
<title>headlesslinux_distro&#45;&gt;verify_ctf_cap_acceptable</title>
<path fill="none" stroke="black" d="M263.3,-36.03C325.27,-46.39 404.46,-59.62 468.19,-70.26"/>
<polygon fill="black" stroke="black" points="467.84,-73.75 478.28,-71.95 469,-66.85 467.84,-73.75"/>
</g>
<!-- adversfine_cap_cybersec_acceptable -->
<g id="adversfine_cap_cybersec_acceptable" class="node">
<title>adversfine_cap_cybersec_acceptable</title>
<polygon fill="#cccccc" stroke="black" points="872.84,-324 287.84,-324 287.84,-288 872.84,-288 872.84,-324"/>
<text text-anchor="middle" x="580.34" y="-302.3" font-family="Helvetica,sans-Serif" font-weight="bold" font-size="14.00" fill="white">Adversarially Finetuned models capability in Cybersecurity is acceptable</text>
</g>
<!-- verify_adversfine_cap_cybersec_acceptable&#45;&gt;adversfine_cap_cybersec_acceptable -->
<g id="edge3" class="edge">
<title>verify_adversfine_cap_cybersec_acceptable&#45;&gt;adversfine_cap_cybersec_acceptable</title>
<path fill="none" stroke="#cccccc" d="M580.34,-252.3C580.34,-260.02 580.34,-269.29 580.34,-277.89"/>
<polygon fill="#cccccc" stroke="#cccccc" points="576.84,-277.9 580.34,-287.9 583.84,-277.9 576.84,-277.9"/>
</g>
<!-- curated_ctf_challenges_list -->
<g id="curated_ctf_challenges_list" class="node">
<title>curated_ctf_challenges_list</title>
<polygon fill="red" stroke="black" points="563.84,-36 332.84,-36 332.84,0 563.84,0 563.84,-36"/>
<text text-anchor="middle" x="448.34" y="-14.3" font-family="Helvetica,sans-Serif" font-weight="bold" font-size="14.00" fill="white">Curated CTF challenges list</text>
</g>
<!-- curated_ctf_challenges_list&#45;&gt;verify_ctf_cap_acceptable -->
<g id="edge4" class="edge">
<title>curated_ctf_challenges_list&#45;&gt;verify_ctf_cap_acceptable</title>
<path fill="none" stroke="red" d="M480.63,-36.12C498.21,-45.45 520.15,-57.08 538.97,-67.06"/>
<polygon fill="red" stroke="red" points="537.45,-70.22 547.93,-71.81 540.73,-64.03 537.45,-70.22"/>
</g>
<!-- ctf_eval_results -->
<g id="ctf_eval_results" class="node">
<title>ctf_eval_results</title>
<polygon fill="#a4d3ee" stroke="black" points="844.34,-36 582.34,-36 582.34,0 844.34,0 844.34,-36"/>
<text text-anchor="middle" x="713.34" y="-14.3" font-family="Times,serif" font-size="14.00">CTF Challenges evaluation results</text>
</g>
<!-- ctf_eval_results&#45;&gt;verify_ctf_cap_acceptable -->
<g id="edge6" class="edge">
<title>ctf_eval_results&#45;&gt;verify_ctf_cap_acceptable</title>
<path fill="none" stroke="black" d="M680.8,-36.12C663.09,-45.45 640.99,-57.08 622.02,-67.06"/>
<polygon fill="black" stroke="black" points="620.22,-64.06 613,-71.81 623.48,-70.25 620.22,-64.06"/>
</g>
<!-- threshold_for_model_ctf_performance -->
<g id="threshold_for_model_ctf_performance" class="node">
<title>threshold_for_model_ctf_performance</title>
<polygon fill="#a4d3ee" stroke="black" points="1152.34,-36 862.34,-36 862.34,0 1152.34,0 1152.34,-36"/>
<text text-anchor="middle" x="1007.34" y="-14.3" font-family="Times,serif" font-size="14.00">Threshold for CTF model performance</text>
</g>
<!-- threshold_for_model_ctf_performance&#45;&gt;verify_ctf_cap_acceptable -->
<g id="edge7" class="edge">
<title>threshold_for_model_ctf_performance&#45;&gt;verify_ctf_cap_acceptable</title>
<path fill="none" stroke="black" d="M903.43,-36.03C840.15,-46.41 759.25,-59.67 694.23,-70.33"/>
<polygon fill="black" stroke="black" points="693.65,-66.88 684.35,-71.95 694.78,-73.79 693.65,-66.88"/>
</g>
</g>
</svg>
