<?xml version="1.0" encoding="UTF-8" standalone="no"?>
<!DOCTYPE svg PUBLIC "-//W3C//DTD SVG 1.1//EN"
 "http://www.w3.org/Graphics/SVG/1.1/DTD/svg11.dtd">
<!-- Generated by graphviz version 2.43.0 (0)
 -->
<!-- Pages: 1 -->
<svg width="2126pt" height="476pt"
 viewBox="0.00 0.00 2125.87 476.00" xmlns="http://www.w3.org/2000/svg" xmlns:xlink="http://www.w3.org/1999/xlink">
<g id="graph0" class="graph" transform="scale(1 1) rotate(0) translate(4 472)">
<polygon fill="white" stroke="transparent" points="-4,4 -4,-472 2121.87,-472 2121.87,4 -4,4"/>
<!-- c -->
<g id="c" class="node">
<title>c</title>
<polygon fill="#cccccc" stroke="black" points="1403.11,-468 1269.11,-468 1269.11,-432 1403.11,-432 1403.11,-468"/>
<text text-anchor="middle" x="1336.11" y="-446.3" font-family="Helvetica,sans-Serif" font-weight="bold" font-size="14.00" fill="white">Fairness exists</text>
</g>
<!-- multi_ling_BM -->
<g id="multi_ling_BM" class="node">
<title>multi_ling_BM</title>
<polygon fill="#a4d3ee" stroke="black" points="1203.61,-36 940.61,-36 940.61,0 1203.61,0 1203.61,-36"/>
<text text-anchor="middle" x="1072.11" y="-14.3" font-family="Times,serif" font-size="14.00">Multilingual benchmark is present</text>
</g>
<!-- testing_multi_ling -->
<g id="testing_multi_ling" class="node">
<title>testing_multi_ling</title>
<polygon fill="palegreen" stroke="black" points="1442.09,-108 853.53,-108 702.12,-72 1290.68,-72 1442.09,-108"/>
<text text-anchor="middle" x="1072.11" y="-86.3" font-family="Times,serif" font-size="14.00">Evaluating model using the multilingual benchmark</text>
</g>
<!-- multi_ling_BM&#45;&gt;testing_multi_ling -->
<g id="edge1" class="edge">
<title>multi_ling_BM&#45;&gt;testing_multi_ling</title>
<path fill="none" stroke="black" d="M1072.11,-36.3C1072.11,-44.02 1072.11,-53.29 1072.11,-61.89"/>
<polygon fill="black" stroke="black" points="1068.61,-61.9 1072.11,-71.9 1075.61,-61.9 1068.61,-61.9"/>
</g>
<!-- multi_ling_BM_accept -->
<g id="multi_ling_BM_accept" class="node">
<title>multi_ling_BM_accept</title>
<polygon fill="none" stroke="dodgerblue" points="1240.11,-180 904.11,-180 904.11,-144 1240.11,-144 1240.11,-180"/>
<text text-anchor="middle" x="1072.11" y="-158.3" font-family="Times,serif" font-size="14.00">Multilingual benchmark metric is acceptable</text>
</g>
<!-- testing_multi_ling&#45;&gt;multi_ling_BM_accept -->
<g id="edge6" class="edge">
<title>testing_multi_ling&#45;&gt;multi_ling_BM_accept</title>
<path fill="none" stroke="black" d="M1072.11,-108.3C1072.11,-116.02 1072.11,-125.29 1072.11,-133.89"/>
<polygon fill="black" stroke="black" points="1068.61,-133.9 1072.11,-143.9 1075.61,-133.9 1068.61,-133.9"/>
</g>
<!-- BBQ_BM_accept -->
<g id="BBQ_BM_accept" class="node">
<title>BBQ_BM_accept</title>
<polygon fill="#cccccc" stroke="dodgerblue" points="690.11,-180 386.11,-180 386.11,-144 690.11,-144 690.11,-180"/>
<text text-anchor="middle" x="538.11" y="-158.3" font-family="Helvetica,sans-Serif" font-weight="bold" font-size="14.00" fill="white">BBQ benchmark metric is acceptable</text>
</g>
<!-- fairness_exe_methods -->
<g id="fairness_exe_methods" class="node">
<title>fairness_exe_methods</title>
<polygon fill="#cccccc" stroke="black" points="1321.04,-252 925.04,-252 823.17,-216 1219.17,-216 1321.04,-252"/>
<text text-anchor="middle" x="1072.11" y="-230.3" font-family="Helvetica,sans-Serif" font-weight="bold" font-size="14.00" fill="white">Executing fairness benchmarks</text>
</g>
<!-- BBQ_BM_accept&#45;&gt;fairness_exe_methods -->
<g id="edge2" class="edge">
<title>BBQ_BM_accept&#45;&gt;fairness_exe_methods</title>
<path fill="none" stroke="#cccccc" d="M668.05,-180.03C747.84,-190.49 850.03,-203.89 931.68,-214.59"/>
<polygon fill="#cccccc" stroke="#cccccc" points="931.67,-218.12 942.04,-215.95 932.58,-211.18 931.67,-218.12"/>
</g>
<!-- fairness_evaluated -->
<g id="fairness_evaluated" class="node">
<title>fairness_evaluated</title>
<polygon fill="#cccccc" stroke="dodgerblue" points="1325.11,-324 1151.11,-324 1151.11,-288 1325.11,-288 1325.11,-324"/>
<text text-anchor="middle" x="1238.11" y="-302.3" font-family="Helvetica,sans-Serif" font-weight="bold" font-size="14.00" fill="white">Fairnesss evaluated</text>
</g>
<!-- fairness_exe_methods&#45;&gt;fairness_evaluated -->
<g id="edge14" class="edge">
<title>fairness_exe_methods&#45;&gt;fairness_evaluated</title>
<path fill="none" stroke="#cccccc" d="M1112.71,-252.12C1135.51,-261.74 1164.13,-273.81 1188.28,-283.99"/>
<polygon fill="#cccccc" stroke="#cccccc" points="1187.05,-287.27 1197.63,-287.93 1189.77,-280.82 1187.05,-287.27"/>
</g>
<!-- AND -->
<g id="AND" class="node">
<title>AND</title>
<polygon fill="#cccccc" stroke="black" points="1397.08,-396 1300.08,-396 1275.13,-360 1372.13,-360 1397.08,-396"/>
<text text-anchor="middle" x="1336.11" y="-374.3" font-family="Helvetica,sans-Serif" font-weight="bold" font-size="14.00" fill="white">[AND]</text>
</g>
<!-- fairness_evaluated&#45;&gt;AND -->
<g id="edge3" class="edge">
<title>fairness_evaluated&#45;&gt;AND</title>
<path fill="none" stroke="#cccccc" d="M1262.08,-324.12C1274.65,-333.11 1290.24,-344.24 1303.86,-353.97"/>
<polygon fill="#cccccc" stroke="#cccccc" points="1301.87,-356.85 1312.04,-359.81 1305.94,-351.15 1301.87,-356.85"/>
</g>
<!-- AND&#45;&gt;c -->
<g id="edge10" class="edge">
<title>AND&#45;&gt;c</title>
<path fill="none" stroke="#cccccc" d="M1336.11,-396.3C1336.11,-404.02 1336.11,-413.29 1336.11,-421.89"/>
<polygon fill="#cccccc" stroke="#cccccc" points="1332.61,-421.9 1336.11,-431.9 1339.61,-421.9 1332.61,-421.9"/>
</g>
<!-- training -->
<g id="training" class="node">
<title>training</title>
<polygon fill="palegreen" stroke="black" points="2117.63,-108 1595.02,-108 1460.58,-72 1983.19,-72 2117.63,-108"/>
<text text-anchor="middle" x="1789.11" y="-86.3" font-family="Times,serif" font-size="14.00">Training model using the Multilingual dataset</text>
</g>
<!-- multi_ling_DS_present -->
<g id="multi_ling_DS_present" class="node">
<title>multi_ling_DS_present</title>
<polygon fill="none" stroke="dodgerblue" points="1850.11,-180 1634.11,-180 1634.11,-144 1850.11,-144 1850.11,-180"/>
<text text-anchor="middle" x="1742.11" y="-158.3" font-family="Times,serif" font-size="14.00">Multilingual dataset is used</text>
</g>
<!-- training&#45;&gt;multi_ling_DS_present -->
<g id="edge4" class="edge">
<title>training&#45;&gt;multi_ling_DS_present</title>
<path fill="none" stroke="black" d="M1777.49,-108.3C1771.97,-116.53 1765.26,-126.52 1759.17,-135.58"/>
<polygon fill="black" stroke="black" points="1756.26,-133.64 1753.59,-143.9 1762.07,-137.54 1756.26,-133.64"/>
</g>
<!-- fairness_impl_methods -->
<g id="fairness_impl_methods" class="node">
<title>fairness_impl_methods</title>
<polygon fill="palegreen" stroke="black" points="1910.22,-252 1493.25,-252 1385.99,-216 1802.96,-216 1910.22,-252"/>
<text text-anchor="middle" x="1648.11" y="-230.3" font-family="Times,serif" font-size="14.00">Implementing fairness within model</text>
</g>
<!-- multi_ling_DS_present&#45;&gt;fairness_impl_methods -->
<g id="edge11" class="edge">
<title>multi_ling_DS_present&#45;&gt;fairness_impl_methods</title>
<path fill="none" stroke="black" d="M1718.87,-180.3C1706.92,-189.2 1692.18,-200.18 1679.26,-209.8"/>
<polygon fill="black" stroke="black" points="1677,-207.12 1671.07,-215.9 1681.18,-212.73 1677,-207.12"/>
</g>
<!-- training_code -->
<g id="training_code" class="node">
<title>training_code</title>
<polygon fill="#a4d3ee" stroke="black" points="1768.11,-36 1578.11,-36 1578.11,0 1768.11,0 1768.11,-36"/>
<text text-anchor="middle" x="1673.11" y="-14.3" font-family="Times,serif" font-size="14.00">Training code is present</text>
</g>
<!-- training_code&#45;&gt;training -->
<g id="edge5" class="edge">
<title>training_code&#45;&gt;training</title>
<path fill="none" stroke="black" d="M1701.48,-36.12C1716.65,-45.28 1735.51,-56.66 1751.84,-66.52"/>
<polygon fill="black" stroke="black" points="1750.25,-69.64 1760.62,-71.81 1753.87,-63.65 1750.25,-69.64"/>
</g>
<!-- multi_ling_BM_accept&#45;&gt;fairness_exe_methods -->
<g id="edge9" class="edge">
<title>multi_ling_BM_accept&#45;&gt;fairness_exe_methods</title>
<path fill="none" stroke="black" d="M1072.11,-180.3C1072.11,-188.02 1072.11,-197.29 1072.11,-205.89"/>
<polygon fill="black" stroke="black" points="1068.61,-205.9 1072.11,-215.9 1075.61,-205.9 1068.61,-205.9"/>
</g>
<!-- fairness_implemented -->
<g id="fairness_implemented" class="node">
<title>fairness_implemented</title>
<polygon fill="none" stroke="dodgerblue" points="1632.61,-324 1449.61,-324 1449.61,-288 1632.61,-288 1632.61,-324"/>
<text text-anchor="middle" x="1541.11" y="-302.3" font-family="Times,serif" font-size="14.00">Fairnesss implemented</text>
</g>
<!-- fairness_impl_methods&#45;&gt;fairness_implemented -->
<g id="edge7" class="edge">
<title>fairness_impl_methods&#45;&gt;fairness_implemented</title>
<path fill="none" stroke="black" d="M1621.93,-252.12C1608.07,-261.19 1590.86,-272.45 1575.89,-282.24"/>
<polygon fill="black" stroke="black" points="1573.83,-279.41 1567.38,-287.81 1577.67,-285.26 1573.83,-279.41"/>
</g>
<!-- fairness_implemented&#45;&gt;AND -->
<g id="edge13" class="edge">
<title>fairness_implemented&#45;&gt;AND</title>
<path fill="none" stroke="black" d="M1491.22,-324.03C1458.78,-335.11 1416.7,-349.48 1384.56,-360.46"/>
<polygon fill="black" stroke="black" points="1383.25,-357.2 1374.92,-363.75 1385.51,-363.83 1383.25,-357.2"/>
</g>
<!-- BBQ_BM -->
<g id="BBQ_BM" class="node">
<title>BBQ_BM</title>
<polygon fill="red" stroke="black" points="454.11,-36 230.11,-36 230.11,0 454.11,0 454.11,-36"/>
<text text-anchor="middle" x="342.11" y="-14.3" font-family="Helvetica,sans-Serif" font-weight="bold" font-size="14.00" fill="white">BBQ benchmark is present</text>
</g>
<!-- testing_BBQ -->
<g id="testing_BBQ" class="node">
<title>testing_BBQ</title>
<polygon fill="#cccccc" stroke="black" points="684.32,-108 139.94,-108 -0.11,-72 544.27,-72 684.32,-108"/>
<text text-anchor="middle" x="342.11" y="-86.3" font-family="Helvetica,sans-Serif" font-weight="bold" font-size="14.00" fill="white">Evaluating model using the BBQ benchmark</text>
</g>
<!-- BBQ_BM&#45;&gt;testing_BBQ -->
<g id="edge8" class="edge">
<title>BBQ_BM&#45;&gt;testing_BBQ</title>
<path fill="none" stroke="red" d="M342.11,-36.3C342.11,-44.02 342.11,-53.29 342.11,-61.89"/>
<polygon fill="red" stroke="red" points="338.61,-61.9 342.11,-71.9 345.61,-61.9 338.61,-61.9"/>
</g>
<!-- testing_BBQ&#45;&gt;BBQ_BM_accept -->
<g id="edge15" class="edge">
<title>testing_BBQ&#45;&gt;BBQ_BM_accept</title>
<path fill="none" stroke="#cccccc" d="M389.8,-108.03C417.19,-117.81 451.76,-130.16 480.64,-140.48"/>
<polygon fill="#cccccc" stroke="#cccccc" points="479.6,-143.82 490.19,-143.89 481.95,-137.23 479.6,-143.82"/>
</g>
<!-- multi_ling_DS -->
<g id="multi_ling_DS" class="node">
<title>multi_ling_DS</title>
<polygon fill="#a4d3ee" stroke="black" points="2023.61,-36 1786.61,-36 1786.61,0 2023.61,0 2023.61,-36"/>
<text text-anchor="middle" x="1905.11" y="-14.3" font-family="Times,serif" font-size="14.00">Multilingual dataset is present</text>
</g>
<!-- multi_ling_DS&#45;&gt;training -->
<g id="edge12" class="edge">
<title>multi_ling_DS&#45;&gt;training</title>
<path fill="none" stroke="black" d="M1876.73,-36.12C1861.56,-45.28 1842.7,-56.66 1826.37,-66.52"/>
<polygon fill="black" stroke="black" points="1824.34,-63.65 1817.59,-71.81 1827.96,-69.64 1824.34,-63.65"/>
</g>
<!-- evaluated_code -->
<g id="evaluated_code" class="node">
<title>evaluated_code</title>
<polygon fill="#a4d3ee" stroke="black" points="800.11,-36 594.11,-36 594.11,0 800.11,0 800.11,-36"/>
<text text-anchor="middle" x="697.11" y="-14.3" font-family="Times,serif" font-size="14.00">Evaluation code is present</text>
</g>
<!-- evaluated_code&#45;&gt;testing_multi_ling -->
<g id="edge16" class="edge">
<title>evaluated_code&#45;&gt;testing_multi_ling</title>
<path fill="none" stroke="black" d="M788.36,-36.03C843.48,-46.32 913.82,-59.45 970.68,-70.07"/>
<polygon fill="black" stroke="black" points="970.29,-73.56 980.77,-71.95 971.58,-66.67 970.29,-73.56"/>
</g>
<!-- evaluated_code&#45;&gt;testing_BBQ -->
<g id="edge17" class="edge">
<title>evaluated_code&#45;&gt;testing_BBQ</title>
<path fill="none" stroke="black" d="M610.72,-36.03C558.65,-46.3 492.22,-59.4 438.46,-70"/>
<polygon fill="black" stroke="black" points="437.71,-66.58 428.57,-71.95 439.06,-73.45 437.71,-66.58"/>
</g>
</g>
</svg>
