<?xml version="1.0" encoding="UTF-8" standalone="no"?>
<!DOCTYPE svg PUBLIC "-//W3C//DTD SVG 1.1//EN"
 "http://www.w3.org/Graphics/SVG/1.1/DTD/svg11.dtd">
<!-- Generated by graphviz version 2.43.0 (0)
 -->
<!-- Pages: 1 -->
<svg width="2232pt" height="476pt"
 viewBox="0.00 0.00 2231.65 476.00" xmlns="http://www.w3.org/2000/svg" xmlns:xlink="http://www.w3.org/1999/xlink">
<g id="graph0" class="graph" transform="scale(1 1) rotate(0) translate(4 472)">
<polygon fill="white" stroke="transparent" points="-4,4 -4,-472 2227.65,-472 2227.65,4 -4,4"/>
<!-- c -->
<g id="c" class="node">
<title>c</title>
<polygon fill="#cccccc" stroke="black" points="1442.11,-468 1308.11,-468 1308.11,-432 1442.11,-432 1442.11,-468"/>
<text text-anchor="middle" x="1375.11" y="-446.3" font-family="Helvetica,sans-Serif" font-weight="bold" font-size="14.00" fill="white">Fairness exists</text>
</g>
<!-- multi_ling_BM -->
<g id="multi_ling_BM" class="node">
<title>multi_ling_BM</title>
<polygon fill="red" stroke="black" points="1241.61,-36 958.61,-36 958.61,0 1241.61,0 1241.61,-36"/>
<text text-anchor="middle" x="1100.11" y="-14.3" font-family="Helvetica,sans-Serif" font-weight="bold" font-size="14.00" fill="white">Multilingual benchmark is present</text>
</g>
<!-- testing_multi_ling -->
<g id="testing_multi_ling" class="node">
<title>testing_multi_ling</title>
<polygon fill="#cccccc" stroke="black" points="1498.26,-108 864.88,-108 701.95,-72 1335.33,-72 1498.26,-108"/>
<text text-anchor="middle" x="1100.11" y="-86.3" font-family="Helvetica,sans-Serif" font-weight="bold" font-size="14.00" fill="white">Evaluating model using the multilingual benchmark</text>
</g>
<!-- multi_ling_BM&#45;&gt;testing_multi_ling -->
<g id="edge1" class="edge">
<title>multi_ling_BM&#45;&gt;testing_multi_ling</title>
<path fill="none" stroke="red" d="M1100.11,-36.3C1100.11,-44.02 1100.11,-53.29 1100.11,-61.89"/>
<polygon fill="red" stroke="red" points="1096.61,-61.9 1100.11,-71.9 1103.61,-61.9 1096.61,-61.9"/>
</g>
<!-- multi_ling_BM_accept -->
<g id="multi_ling_BM_accept" class="node">
<title>multi_ling_BM_accept</title>
<polygon fill="#cccccc" stroke="dodgerblue" points="1281.61,-180 918.61,-180 918.61,-144 1281.61,-144 1281.61,-180"/>
<text text-anchor="middle" x="1100.11" y="-158.3" font-family="Helvetica,sans-Serif" font-weight="bold" font-size="14.00" fill="white">Multilingual benchmark metric is acceptable</text>
</g>
<!-- testing_multi_ling&#45;&gt;multi_ling_BM_accept -->
<g id="edge6" class="edge">
<title>testing_multi_ling&#45;&gt;multi_ling_BM_accept</title>
<path fill="none" stroke="#cccccc" d="M1100.11,-108.3C1100.11,-116.02 1100.11,-125.29 1100.11,-133.89"/>
<polygon fill="#cccccc" stroke="#cccccc" points="1096.61,-133.9 1100.11,-143.9 1103.61,-133.9 1096.61,-133.9"/>
</g>
<!-- BBQ_BM_accept -->
<g id="BBQ_BM_accept" class="node">
<title>BBQ_BM_accept</title>
<polygon fill="#cccccc" stroke="dodgerblue" points="697.11,-180 393.11,-180 393.11,-144 697.11,-144 697.11,-180"/>
<text text-anchor="middle" x="545.11" y="-158.3" font-family="Helvetica,sans-Serif" font-weight="bold" font-size="14.00" fill="white">BBQ benchmark metric is acceptable</text>
</g>
<!-- fairness_exe_methods -->
<g id="fairness_exe_methods" class="node">
<title>fairness_exe_methods</title>
<polygon fill="#cccccc" stroke="black" points="1349.04,-252 953.04,-252 851.17,-216 1247.17,-216 1349.04,-252"/>
<text text-anchor="middle" x="1100.11" y="-230.3" font-family="Helvetica,sans-Serif" font-weight="bold" font-size="14.00" fill="white">Executing fairness benchmarks</text>
</g>
<!-- BBQ_BM_accept&#45;&gt;fairness_exe_methods -->
<g id="edge2" class="edge">
<title>BBQ_BM_accept&#45;&gt;fairness_exe_methods</title>
<path fill="none" stroke="#cccccc" d="M680.16,-180.03C763.34,-190.53 869.95,-203.97 954.93,-214.69"/>
<polygon fill="#cccccc" stroke="#cccccc" points="954.56,-218.17 964.92,-215.95 955.44,-211.23 954.56,-218.17"/>
</g>
<!-- fairness_evaluated -->
<g id="fairness_evaluated" class="node">
<title>fairness_evaluated</title>
<polygon fill="#cccccc" stroke="dodgerblue" points="1360.11,-324 1186.11,-324 1186.11,-288 1360.11,-288 1360.11,-324"/>
<text text-anchor="middle" x="1273.11" y="-302.3" font-family="Helvetica,sans-Serif" font-weight="bold" font-size="14.00" fill="white">Fairnesss evaluated</text>
</g>
<!-- fairness_exe_methods&#45;&gt;fairness_evaluated -->
<g id="edge14" class="edge">
<title>fairness_exe_methods&#45;&gt;fairness_evaluated</title>
<path fill="none" stroke="#cccccc" d="M1142.43,-252.12C1166.29,-261.78 1196.28,-273.91 1221.51,-284.12"/>
<polygon fill="#cccccc" stroke="#cccccc" points="1220.34,-287.43 1230.92,-287.93 1222.96,-280.94 1220.34,-287.43"/>
</g>
<!-- AND -->
<g id="AND" class="node">
<title>AND</title>
<polygon fill="#cccccc" stroke="black" points="1436.08,-396 1339.08,-396 1314.13,-360 1411.13,-360 1436.08,-396"/>
<text text-anchor="middle" x="1375.11" y="-374.3" font-family="Helvetica,sans-Serif" font-weight="bold" font-size="14.00" fill="white">[AND]</text>
</g>
<!-- fairness_evaluated&#45;&gt;AND -->
<g id="edge3" class="edge">
<title>fairness_evaluated&#45;&gt;AND</title>
<path fill="none" stroke="#cccccc" d="M1298.06,-324.12C1311.15,-333.11 1327.37,-344.24 1341.54,-353.97"/>
<polygon fill="#cccccc" stroke="#cccccc" points="1339.83,-357.04 1350.06,-359.81 1343.79,-351.27 1339.83,-357.04"/>
</g>
<!-- AND&#45;&gt;c -->
<g id="edge10" class="edge">
<title>AND&#45;&gt;c</title>
<path fill="none" stroke="#cccccc" d="M1375.11,-396.3C1375.11,-404.02 1375.11,-413.29 1375.11,-421.89"/>
<polygon fill="#cccccc" stroke="#cccccc" points="1371.61,-421.9 1375.11,-431.9 1378.61,-421.9 1371.61,-421.9"/>
</g>
<!-- training -->
<g id="training" class="node">
<title>training</title>
<polygon fill="#cccccc" stroke="black" points="2223.69,-108 1661.22,-108 1516.52,-72 2078.99,-72 2223.69,-108"/>
<text text-anchor="middle" x="1870.11" y="-86.3" font-family="Helvetica,sans-Serif" font-weight="bold" font-size="14.00" fill="white">Training model using the Multilingual dataset</text>
</g>
<!-- multi_ling_DS_present -->
<g id="multi_ling_DS_present" class="node">
<title>multi_ling_DS_present</title>
<polygon fill="#cccccc" stroke="dodgerblue" points="1931.61,-180 1698.61,-180 1698.61,-144 1931.61,-144 1931.61,-180"/>
<text text-anchor="middle" x="1815.11" y="-158.3" font-family="Helvetica,sans-Serif" font-weight="bold" font-size="14.00" fill="white">Multilingual dataset is used</text>
</g>
<!-- training&#45;&gt;multi_ling_DS_present -->
<g id="edge4" class="edge">
<title>training&#45;&gt;multi_ling_DS_present</title>
<path fill="none" stroke="#cccccc" d="M1856.51,-108.3C1849.98,-116.61 1842.04,-126.72 1834.86,-135.86"/>
<polygon fill="#cccccc" stroke="#cccccc" points="1831.97,-133.87 1828.54,-143.9 1837.47,-138.19 1831.97,-133.87"/>
</g>
<!-- fairness_impl_methods -->
<g id="fairness_impl_methods" class="node">
<title>fairness_impl_methods</title>
<polygon fill="#cccccc" stroke="black" points="1988.15,-252 1537.89,-252 1422.06,-216 1872.32,-216 1988.15,-252"/>
<text text-anchor="middle" x="1705.11" y="-230.3" font-family="Helvetica,sans-Serif" font-weight="bold" font-size="14.00" fill="white">Implementing fairness within model</text>
</g>
<!-- multi_ling_DS_present&#45;&gt;fairness_impl_methods -->
<g id="edge11" class="edge">
<title>multi_ling_DS_present&#45;&gt;fairness_impl_methods</title>
<path fill="none" stroke="#cccccc" d="M1788.2,-180.12C1773.95,-189.19 1756.26,-200.45 1740.87,-210.24"/>
<polygon fill="#cccccc" stroke="#cccccc" points="1738.68,-207.49 1732.12,-215.81 1742.43,-213.39 1738.68,-207.49"/>
</g>
<!-- training_code -->
<g id="training_code" class="node">
<title>training_code</title>
<polygon fill="#a4d3ee" stroke="black" points="1844.11,-36 1654.11,-36 1654.11,0 1844.11,0 1844.11,-36"/>
<text text-anchor="middle" x="1749.11" y="-14.3" font-family="Times,serif" font-size="14.00">Training code is present</text>
</g>
<!-- training_code&#45;&gt;training -->
<g id="edge5" class="edge">
<title>training_code&#45;&gt;training</title>
<path fill="none" stroke="black" d="M1778.71,-36.12C1794.67,-45.36 1814.56,-56.87 1831.71,-66.79"/>
<polygon fill="black" stroke="black" points="1829.98,-69.83 1840.39,-71.81 1833.49,-63.77 1829.98,-69.83"/>
</g>
<!-- multi_ling_BM_accept&#45;&gt;fairness_exe_methods -->
<g id="edge9" class="edge">
<title>multi_ling_BM_accept&#45;&gt;fairness_exe_methods</title>
<path fill="none" stroke="#cccccc" d="M1100.11,-180.3C1100.11,-188.02 1100.11,-197.29 1100.11,-205.89"/>
<polygon fill="#cccccc" stroke="#cccccc" points="1096.61,-205.9 1100.11,-215.9 1103.61,-205.9 1096.61,-205.9"/>
</g>
<!-- fairness_implemented -->
<g id="fairness_implemented" class="node">
<title>fairness_implemented</title>
<polygon fill="#cccccc" stroke="dodgerblue" points="1690.11,-324 1492.11,-324 1492.11,-288 1690.11,-288 1690.11,-324"/>
<text text-anchor="middle" x="1591.11" y="-302.3" font-family="Helvetica,sans-Serif" font-weight="bold" font-size="14.00" fill="white">Fairnesss implemented</text>
</g>
<!-- fairness_impl_methods&#45;&gt;fairness_implemented -->
<g id="edge7" class="edge">
<title>fairness_impl_methods&#45;&gt;fairness_implemented</title>
<path fill="none" stroke="#cccccc" d="M1677.22,-252.12C1662.31,-261.28 1643.78,-272.66 1627.72,-282.52"/>
<polygon fill="#cccccc" stroke="#cccccc" points="1625.79,-279.59 1619.1,-287.81 1629.45,-285.56 1625.79,-279.59"/>
</g>
<!-- fairness_implemented&#45;&gt;AND -->
<g id="edge13" class="edge">
<title>fairness_implemented&#45;&gt;AND</title>
<path fill="none" stroke="#cccccc" d="M1538.54,-324.03C1503.65,-335.34 1458.16,-350.08 1424.04,-361.14"/>
<polygon fill="#cccccc" stroke="#cccccc" points="1422.72,-357.89 1414.29,-364.3 1424.88,-364.55 1422.72,-357.89"/>
</g>
<!-- BBQ_BM -->
<g id="BBQ_BM" class="node">
<title>BBQ_BM</title>
<polygon fill="red" stroke="black" points="454.11,-36 230.11,-36 230.11,0 454.11,0 454.11,-36"/>
<text text-anchor="middle" x="342.11" y="-14.3" font-family="Helvetica,sans-Serif" font-weight="bold" font-size="14.00" fill="white">BBQ benchmark is present</text>
</g>
<!-- testing_BBQ -->
<g id="testing_BBQ" class="node">
<title>testing_BBQ</title>
<polygon fill="#cccccc" stroke="black" points="684.32,-108 139.94,-108 -0.11,-72 544.27,-72 684.32,-108"/>
<text text-anchor="middle" x="342.11" y="-86.3" font-family="Helvetica,sans-Serif" font-weight="bold" font-size="14.00" fill="white">Evaluating model using the BBQ benchmark</text>
</g>
<!-- BBQ_BM&#45;&gt;testing_BBQ -->
<g id="edge8" class="edge">
<title>BBQ_BM&#45;&gt;testing_BBQ</title>
<path fill="none" stroke="red" d="M342.11,-36.3C342.11,-44.02 342.11,-53.29 342.11,-61.89"/>
<polygon fill="red" stroke="red" points="338.61,-61.9 342.11,-71.9 345.61,-61.9 338.61,-61.9"/>
</g>
<!-- testing_BBQ&#45;&gt;BBQ_BM_accept -->
<g id="edge15" class="edge">
<title>testing_BBQ&#45;&gt;BBQ_BM_accept</title>
<path fill="none" stroke="#cccccc" d="M391.5,-108.03C419.99,-117.86 455.99,-130.27 485.98,-140.61"/>
<polygon fill="#cccccc" stroke="#cccccc" points="484.89,-143.94 495.48,-143.89 487.17,-137.32 484.89,-143.94"/>
</g>
<!-- multi_ling_DS -->
<g id="multi_ling_DS" class="node">
<title>multi_ling_DS</title>
<polygon fill="red" stroke="black" points="2119.61,-36 1862.61,-36 1862.61,0 2119.61,0 2119.61,-36"/>
<text text-anchor="middle" x="1991.11" y="-14.3" font-family="Helvetica,sans-Serif" font-weight="bold" font-size="14.00" fill="white">Multilingual dataset is present</text>
</g>
<!-- multi_ling_DS&#45;&gt;training -->
<g id="edge12" class="edge">
<title>multi_ling_DS&#45;&gt;training</title>
<path fill="none" stroke="red" d="M1961.51,-36.12C1945.54,-45.36 1925.65,-56.87 1908.5,-66.79"/>
<polygon fill="red" stroke="red" points="1906.72,-63.77 1899.82,-71.81 1910.23,-69.83 1906.72,-63.77"/>
</g>
<!-- evaluated_code -->
<g id="evaluated_code" class="node">
<title>evaluated_code</title>
<polygon fill="#a4d3ee" stroke="black" points="809.11,-36 603.11,-36 603.11,0 809.11,0 809.11,-36"/>
<text text-anchor="middle" x="706.11" y="-14.3" font-family="Times,serif" font-size="14.00">Evaluation code is present</text>
</g>
<!-- evaluated_code&#45;&gt;testing_multi_ling -->
<g id="edge16" class="edge">
<title>evaluated_code&#45;&gt;testing_multi_ling</title>
<path fill="none" stroke="black" d="M801.98,-36.03C860.13,-46.37 934.41,-59.56 994.28,-70.2"/>
<polygon fill="black" stroke="black" points="993.68,-73.65 1004.14,-71.95 994.9,-66.75 993.68,-73.65"/>
</g>
<!-- evaluated_code&#45;&gt;testing_BBQ -->
<g id="edge17" class="edge">
<title>evaluated_code&#45;&gt;testing_BBQ</title>
<path fill="none" stroke="black" d="M617.53,-36.03C564.14,-46.3 496.03,-59.4 440.9,-70"/>
<polygon fill="black" stroke="black" points="439.92,-66.62 430.77,-71.95 441.25,-73.5 439.92,-66.62"/>
</g>
</g>
</svg>
