<?xml version="1.0" encoding="UTF-8" standalone="no"?>
<!DOCTYPE svg PUBLIC "-//W3C//DTD SVG 1.1//EN"
 "http://www.w3.org/Graphics/SVG/1.1/DTD/svg11.dtd">
<!-- Generated by graphviz version 2.43.0 (0)
 -->
<!-- Title: %3 Pages: 1 -->
<svg width="407pt" height="188pt"
 viewBox="0.00 0.00 406.50 188.00" xmlns="http://www.w3.org/2000/svg" xmlns:xlink="http://www.w3.org/1999/xlink">
<g id="graph0" class="graph" transform="scale(1 1) rotate(0) translate(4 184)">
<title>%3</title>
<polygon fill="white" stroke="transparent" points="-4,4 -4,-184 402.5,-184 402.5,4 -4,4"/>
<!-- release_c -->
<g id="node1" class="node">
<title>release_c</title>
<path fill="lightgrey" stroke="black" d="M281.5,-180C281.5,-180 93.5,-180 93.5,-180 87.5,-180 81.5,-174 81.5,-168 81.5,-168 81.5,-156 81.5,-156 81.5,-150 87.5,-144 93.5,-144 93.5,-144 281.5,-144 281.5,-144 287.5,-144 293.5,-150 293.5,-156 293.5,-156 293.5,-168 293.5,-168 293.5,-174 287.5,-180 281.5,-180"/>
<text text-anchor="middle" x="187.5" y="-158.3" font-family="Times,serif" font-size="14.00">Version 2.0 is ready to ship</text>
</g>
<!-- release_s -->
<g id="node2" class="node">
<title>release_s</title>
<polygon fill="#f0c27f" stroke="black" points="316.67,-90 252.08,-108 122.92,-108 58.33,-90 122.92,-72 252.08,-72 316.67,-90"/>
<text text-anchor="middle" x="187.5" y="-86.3" font-family="Times,serif" font-size="14.00">All release gates pass</text>
</g>
<!-- release_s&#45;&gt;release_c -->
<g id="edge1" class="edge">
<title>release_s&#45;&gt;release_c</title>
<path fill="none" stroke="black" d="M187.5,-108.3C187.5,-116.02 187.5,-125.29 187.5,-133.89"/>
<polygon fill="black" stroke="black" points="184,-133.9 187.5,-143.9 191,-133.9 184,-133.9"/>
</g>
<!-- release_e1 -->
<g id="node3" class="node">
<title>release_e1</title>
<polygon fill="#9ecae1" stroke="black" points="161,-36 0,-36 0,0 167,0 167,-30 161,-36"/>
<polyline fill="none" stroke="black" points="161,-36 161,-30 "/>
<polyline fill="none" stroke="black" points="167,-30 161,-30 "/>
<text text-anchor="middle" x="83.5" y="-14.3" font-family="Times,serif" font-size="14.00">The test suite passes</text>
</g>
<!-- release_e1&#45;&gt;release_s -->
<g id="edge2" class="edge">
<title>release_e1&#45;&gt;release_s</title>
<path fill="none" stroke="black" d="M108.94,-36.12C122.29,-45.11 138.82,-56.24 153.28,-65.97"/>
<polygon fill="black" stroke="black" points="151.71,-69.13 161.96,-71.81 155.62,-63.32 151.71,-69.13"/>
</g>
<!-- release_e2 -->
<g id="node4" class="node">
<title>release_e2</title>
<polygon fill="#9ecae1" stroke="black" points="392.5,-36 184.5,-36 184.5,0 398.5,0 398.5,-30 392.5,-36"/>
<polyline fill="none" stroke="black" points="392.5,-36 392.5,-30 "/>
<polyline fill="none" stroke="black" points="398.5,-30 392.5,-30 "/>
<text text-anchor="middle" x="291.5" y="-14.3" font-family="Times,serif" font-size="14.00">The changelog is up to date</text>
</g>
<!-- release_e2&#45;&gt;release_s -->
<g id="edge3" class="edge">
<title>release_e2&#45;&gt;release_s</title>
<path fill="none" stroke="black" d="M266.06,-36.12C252.71,-45.11 236.18,-56.24 221.72,-65.97"/>
<polygon fill="black" stroke="black" points="219.38,-63.32 213.04,-71.81 223.29,-69.13 219.38,-63.32"/>
</g>
</g>
</svg>
