<?xml version="1.0" encoding="UTF-8" standalone="no"?>
<!DOCTYPE svg PUBLIC "-//W3C//DTD SVG 1.1//EN"
 "http://www.w3.org/Graphics/SVG/1.1/DTD/svg11.dtd">
<!-- Generated by graphviz version 2.43.0 (0)
 -->
<!-- Title: %3 Pages: 1 -->
<svg width="428pt" height="188pt"
 viewBox="0.00 0.00 427.50 188.00" xmlns="http://www.w3.org/2000/svg" xmlns:xlink="http://www.w3.org/1999/xlink">
<g id="graph0" class="graph" transform="scale(1 1) rotate(0) translate(4 184)">
<title>%3</title>
<polygon fill="white" stroke="transparent" points="-4,4 -4,-184 423.5,-184 423.5,4 -4,4"/>
<!-- release_c -->
<g id="node1" class="node">
<title>release_c</title>
<polygon fill="#cccccc" stroke="black" points="307,-180 78,-180 78,-144 307,-144 307,-180"/>
<text text-anchor="middle" x="192.5" y="-158.3" font-family="Helvetica,sans-Serif" font-weight="bold" font-size="14.00" fill="white">Version 2.0 is ready to ship</text>
</g>
<!-- release_s -->
<g id="node2" class="node">
<title>release_s</title>
<polygon fill="#cccccc" stroke="black" points="333.68,-90 263.09,-108 121.91,-108 51.32,-90 121.91,-72 263.09,-72 333.68,-90"/>
<text text-anchor="middle" x="192.5" y="-86.3" font-family="Helvetica,sans-Serif" font-weight="bold" font-size="14.00" fill="white">All release gates pass</text>
</g>
<!-- release_s&#45;&gt;release_c -->
<g id="edge1" class="edge">
<title>release_s&#45;&gt;release_c</title>
<path fill="none" stroke="#cccccc" d="M192.5,-108.3C192.5,-116.02 192.5,-125.29 192.5,-133.89"/>
<polygon fill="#cccccc" stroke="#cccccc" points="189,-133.9 192.5,-143.9 196,-133.9 189,-133.9"/>
</g>
<!-- release_e1 -->
<g id="node3" class="node">
<title>release_e1</title>
<polygon fill="#9ecae1" stroke="black" points="161,-36 0,-36 0,0 167,0 167,-30 161,-36"/>
<polyline fill="none" stroke="black" points="161,-36 161,-30 "/>
<polyline fill="none" stroke="black" points="167,-30 161,-30 "/>
<text text-anchor="middle" x="83.5" y="-14.3" font-family="Times,serif" font-size="14.00">The test suite passes</text>
</g>
<!-- release_e1&#45;&gt;release_s -->
<g id="edge2" class="edge">
<title>release_e1&#45;&gt;release_s</title>
<path fill="none" stroke="black" d="M110.16,-36.12C124.28,-45.19 141.81,-56.45 157.06,-66.24"/>
<polygon fill="black" stroke="black" points="155.43,-69.35 165.73,-71.81 159.21,-63.46 155.43,-69.35"/>
</g>
<!-- release_e2 -->
<g id="node4" class="node">
<title>release_e2</title>
<polygon fill="red" stroke="black" points="413.5,-36 185.5,-36 185.5,0 419.5,0 419.5,-30 413.5,-36"/>
<polyline fill="none" stroke="black" points="413.5,-36 413.5,-30 "/>
<polyline fill="none" stroke="black" points="419.5,-30 413.5,-30 "/>
<text text-anchor="middle" x="302.5" y="-14.3" font-family="Helvetica,sans-Serif" font-weight="bold" font-size="14.00" fill="white">The changelog is up to date</text>
</g>
<!-- release_e2&#45;&gt;release_s -->
<g id="edge3" class="edge">
<title>release_e2&#45;&gt;release_s</title>
<path fill="none" stroke="red" d="M275.59,-36.12C261.34,-45.19 243.65,-56.45 228.26,-66.24"/>
<polygon fill="red" stroke="red" points="226.07,-63.49 219.51,-71.81 229.83,-69.39 226.07,-63.49"/>
</g>
</g>
</svg>
