<?xml version="1.0" encoding="UTF-8" standalone="no"?>
<!DOCTYPE svg PUBLIC "-//W3C//DTD SVG 1.1//EN"
 "http://www.w3.org/Graphics/SVG/1.1/DTD/svg11.dtd">
<!-- Generated by graphviz version 12.2.1 (20241206.2353)
 -->
<!-- Title: FeatureModel Pages: 1 -->
<svg width="527pt" height="605pt"
 viewBox="0.00 0.00 527.20 604.70" xmlns="http://www.w3.org/2000/svg" xmlns:xlink="http://www.w3.org/1999/xlink">
<g id="graph0" class="graph" transform="scale(1 1) rotate(0) translate(3.6 601.1)">
<title>FeatureModel</title>
<polygon fill="white" stroke="none" points="-3.6,3.6 -3.6,-601.1 523.6,-601.1 523.6,3.6 -3.6,3.6"/>
<text text-anchor="middle" x="260" y="-40.2" font-family="Times,serif" font-size="14.00">UsingSensors =&gt; ScaryEquipment</text>
<text text-anchor="middle" x="260" y="-23.7" font-family="Times,serif" font-size="14.00">GalvanicSkinResponse =&gt; DrySkin</text>
<text text-anchor="middle" x="260" y="-7.2" font-family="Times,serif" font-size="14.00">ScaryEquipment =&gt; LearningStrategy</text>
<!-- . -->
<g id="node1" class="node">
<title>.</title>
<g id="a_node1"><a xlink:title="Cardinality: None">
<polygon fill="white" stroke="black" points="72.12,-309.5 18.12,-309.5 18.12,-273.5 72.12,-273.5 72.12,-309.5"/>
<text text-anchor="middle" x="45.12" y="-287.95" font-family="Arial Unicode MS, Arial" font-size="14.00">...</text>
</a>
</g>
</g>
<!-- Quantitative -->
<g id="node2" class="node">
<title>Quantitative</title>
<g id="a_node2"><a xlink:title="Cardinality: None">
<polygon fill="white" stroke="black" points="183.5,-381.5 94.75,-381.5 94.75,-345.5 183.5,-345.5 183.5,-381.5"/>
<text text-anchor="middle" x="139.12" y="-359.95" font-family="Arial Unicode MS, Arial" font-size="14.00">Quantitative</text>
</a>
</g>
</g>
<!-- Quantitative&#45;&gt;. -->
<g id="edge1" class="edge">
<title>Quantitative&#45;&gt;.</title>
<path fill="none" stroke="black" d="M115.89,-345.2C103.69,-336.11 88.58,-324.86 75.47,-315.1"/>
<ellipse fill="none" stroke="black" cx="72.03" cy="-312.53" rx="4" ry="4"/>
</g>
<!-- UsingSensors -->
<g id="node4" class="node">
<title>UsingSensors</title>
<g id="a_node4"><a xlink:title="Cardinality: None">
<polygon fill="white" stroke="black" points="190.12,-309.5 90.12,-309.5 90.12,-273.5 190.12,-273.5 190.12,-309.5"/>
<text text-anchor="middle" x="140.12" y="-287.95" font-family="Arial Unicode MS, Arial" font-size="14.00">UsingSensors</text>
</a>
</g>
</g>
<!-- Quantitative&#45;&gt;UsingSensors -->
<g id="edge4" class="edge">
<title>Quantitative&#45;&gt;UsingSensors</title>
<path fill="none" stroke="black" d="M139.37,-345.2C139.49,-337.14 139.63,-327.39 139.75,-318.48"/>
<ellipse fill="none" stroke="black" cx="139.82" cy="-314.1" rx="4" ry="4"/>
</g>
<!-- GalvanicSkinResponse -->
<g id="node3" class="node">
<title>GalvanicSkinResponse</title>
<g id="a_node3"><a xlink:title="Cardinality: None">
<polygon fill="white" stroke="black" points="156.25,-237.5 0,-237.5 0,-201.5 156.25,-201.5 156.25,-237.5"/>
<text text-anchor="middle" x="78.12" y="-215.95" font-family="Arial Unicode MS, Arial" font-size="14.00">GalvanicSkinResponse</text>
</a>
</g>
</g>
<!-- UsingSensors&#45;&gt;GalvanicSkinResponse -->
<g id="edge2" class="edge">
<title>UsingSensors&#45;&gt;GalvanicSkinResponse</title>
<path fill="none" stroke="black" d="M124.8,-273.2C117.07,-264.47 107.57,-253.74 99.16,-244.25"/>
<ellipse fill="none" stroke="black" cx="96.26" cy="-240.97" rx="4" ry="4"/>
</g>
<!-- .. -->
<g id="node5" class="node">
<title>..</title>
<g id="a_node5"><a xlink:title="Cardinality: None">
<polygon fill="white" stroke="black" points="228.12,-237.5 174.12,-237.5 174.12,-201.5 228.12,-201.5 228.12,-237.5"/>
<text text-anchor="middle" x="201.12" y="-215.95" font-family="Arial Unicode MS, Arial" font-size="14.00">...</text>
</a>
</g>
</g>
<!-- UsingSensors&#45;&gt;.. -->
<g id="edge3" class="edge">
<title>UsingSensors&#45;&gt;..</title>
<path fill="none" stroke="black" d="M155.2,-273.2C162.81,-264.47 172.16,-253.74 180.43,-244.25"/>
<ellipse fill="none" stroke="black" cx="183.26" cy="-241" rx="4" ry="4"/>
</g>
<!-- ... -->
<g id="node6" class="node">
<title>...</title>
<g id="a_node6"><a xlink:title="Cardinality: None">
<polygon fill="white" stroke="black" points="166.12,-453.5 112.12,-453.5 112.12,-417.5 166.12,-417.5 166.12,-453.5"/>
<text text-anchor="middle" x="139.12" y="-431.95" font-family="Arial Unicode MS, Arial" font-size="14.00">...</text>
</a>
</g>
</g>
<!-- ...&#45;&gt;Quantitative -->
<g id="edge5" class="edge">
<title>...&#45;&gt;Quantitative</title>
<path fill="none" stroke="black" d="M139.12,-417.2C139.12,-409.14 139.12,-399.39 139.12,-390.48"/>
<ellipse fill="black" stroke="black" cx="139.13" cy="-386.1" rx="4" ry="4"/>
</g>
<!-- Experiment -->
<g id="node7" class="node">
<title>Experiment</title>
<g id="a_node7"><a xlink:title="Cardinality: None">
<polygon fill="white" stroke="black" points="227.62,-525.5 142.62,-525.5 142.62,-489.5 227.62,-489.5 227.62,-525.5"/>
<text text-anchor="middle" x="185.12" y="-503.95" font-family="Arial Unicode MS, Arial" font-size="14.00">Experiment</text>
</a>
</g>
</g>
<!-- Experiment&#45;&gt;... -->
<g id="edge6" class="edge">
<title>Experiment&#45;&gt;...</title>
<path fill="none" stroke="black" d="M173.75,-489.2C168.18,-480.72 161.38,-470.36 155.28,-461.08"/>
<ellipse fill="black" stroke="black" cx="152.84" cy="-457.37" rx="4" ry="4"/>
</g>
<!-- Setup -->
<g id="node8" class="node">
<title>Setup</title>
<g id="a_node8"><a xlink:title="Cardinality: None">
<polygon fill="white" stroke="black" points="265.12,-597.5 211.12,-597.5 211.12,-561.5 265.12,-561.5 265.12,-597.5"/>
<text text-anchor="middle" x="238.12" y="-575.95" font-family="Arial Unicode MS, Arial" font-size="14.00">Setup</text>
</a>
</g>
</g>
<!-- Setup&#45;&gt;Experiment -->
<g id="edge7" class="edge">
<title>Setup&#45;&gt;Experiment</title>
<path fill="none" stroke="black" d="M225.02,-561.2C218.48,-552.55 210.45,-541.95 203.32,-532.53"/>
<ellipse fill="black" stroke="black" cx="200.79" cy="-529.19" rx="4" ry="4"/>
</g>
<!-- Remediation -->
<g id="node10" class="node">
<title>Remediation</title>
<g id="a_node10"><a xlink:title="Cardinality: None">
<polygon fill="white" stroke="black" points="361.38,-525.5 268.88,-525.5 268.88,-489.5 361.38,-489.5 361.38,-525.5"/>
<text text-anchor="middle" x="315.12" y="-503.95" font-family="Arial Unicode MS, Arial" font-size="14.00">Remediation</text>
</a>
</g>
</g>
<!-- Setup&#45;&gt;Remediation -->
<g id="edge19" class="edge">
<title>Setup&#45;&gt;Remediation</title>
<path fill="none" stroke="black" d="M257.16,-561.2C266.97,-552.28 279.07,-541.28 289.67,-531.64"/>
<ellipse fill="none" stroke="black" cx="292.71" cy="-528.87" rx="4" ry="4"/>
</g>
<!-- ..... -->
<g id="node9" class="node">
<title>.....</title>
<g id="a_node9"><a xlink:title="Cardinality: None">
<polygon fill="white" stroke="black" points="238.12,-453.5 184.12,-453.5 184.12,-417.5 238.12,-417.5 238.12,-453.5"/>
<text text-anchor="middle" x="211.12" y="-431.95" font-family="Arial Unicode MS, Arial" font-size="14.00">...</text>
</a>
</g>
</g>
<!-- Remediation&#45;&gt;..... -->
<g id="edge8" class="edge">
<title>Remediation&#45;&gt;.....</title>
<path fill="none" stroke="black" d="M289.15,-489.02C275.52,-479.84 258.68,-468.51 244.14,-458.72"/>
<ellipse fill="none" stroke="black" cx="240.5" cy="-456.27" rx="4" ry="4"/>
</g>
<!-- ParticipationRemediation -->
<g id="node12" class="node">
<title>ParticipationRemediation</title>
<g id="a_node12"><a xlink:title="Cardinality: None">
<polygon fill="white" stroke="black" points="422.5,-453.5 255.75,-453.5 255.75,-417.5 422.5,-417.5 422.5,-453.5"/>
<text text-anchor="middle" x="339.12" y="-431.95" font-family="Arial Unicode MS, Arial" font-size="14.00">ParticipationRemediation</text>
</a>
</g>
</g>
<!-- Remediation&#45;&gt;ParticipationRemediation -->
<g id="edge13" class="edge">
<title>Remediation&#45;&gt;ParticipationRemediation</title>
<path fill="none" stroke="black" d="M321.06,-489.2C323.88,-480.97 327.3,-470.98 330.41,-461.92"/>
<ellipse fill="none" stroke="black" cx="331.8" cy="-457.86" rx="4" ry="4"/>
</g>
<!-- SensorRemediation -->
<g id="node19" class="node">
<title>SensorRemediation</title>
<g id="a_node19"><a xlink:title="Cardinality: None">
<polygon fill="white" stroke="black" points="475.75,-237.5 340.5,-237.5 340.5,-201.5 475.75,-201.5 475.75,-237.5"/>
<text text-anchor="middle" x="408.12" y="-215.95" font-family="Arial Unicode MS, Arial" font-size="14.00">SensorRemediation</text>
</a>
</g>
</g>
<!-- Remediation&#45;&gt;SensorRemediation -->
<g id="edge18" class="edge">
<title>Remediation&#45;&gt;SensorRemediation</title>
<path fill="none" stroke="black" d="M361.63,-497.88C386.8,-490.59 415.8,-477.34 431.12,-453.5 474.37,-386.2 447.39,-351.83 431.12,-273.5 429.17,-264.07 425.44,-254.26 421.55,-245.68"/>
<ellipse fill="none" stroke="black" cx="419.61" cy="-241.63" rx="4" ry="4"/>
</g>
<!-- .... -->
<g id="node11" class="node">
<title>....</title>
<g id="a_node11"><a xlink:title="Cardinality: None">
<polygon fill="white" stroke="black" points="274.12,-381.5 220.12,-381.5 220.12,-345.5 274.12,-345.5 274.12,-381.5"/>
<text text-anchor="middle" x="247.12" y="-359.95" font-family="Arial Unicode MS, Arial" font-size="14.00">...</text>
</a>
</g>
</g>
<!-- ParticipationRemediation&#45;&gt;.... -->
<g id="edge9" class="edge">
<title>ParticipationRemediation&#45;&gt;....</title>
<path fill="none" stroke="black" d="M316.38,-417.2C304.44,-408.11 289.66,-396.86 276.82,-387.1"/>
<ellipse fill="none" stroke="black" cx="273.51" cy="-384.57" rx="4" ry="4"/>
</g>
<!-- StressStrategy -->
<g id="node14" class="node">
<title>StressStrategy</title>
<g id="a_node14"><a xlink:title="Cardinality: None">
<polygon fill="white" stroke="black" points="410.5,-381.5 291.75,-381.5 291.75,-345.5 410.5,-345.5 410.5,-381.5"/>
<text text-anchor="middle" x="351.12" y="-359.95" font-family="Arial Unicode MS, Arial" font-size="14.00">LearningStrategy</text>
</a>
</g>
</g>
<!-- ParticipationRemediation&#45;&gt;StressStrategy -->
<g id="edge12" class="edge">
<title>ParticipationRemediation&#45;&gt;StressStrategy</title>
<path fill="none" stroke="black" d="M342.09,-417.2C343.49,-409.06 345.18,-399.19 346.72,-390.2"/>
<ellipse fill="none" stroke="black" cx="347.43" cy="-386.04" rx="4" ry="4"/>
</g>
<!-- PeerBuddy -->
<g id="node13" class="node">
<title>PeerBuddy</title>
<g id="a_node13"><a xlink:title="Cardinality: None">
<polygon fill="white" stroke="black" points="291.5,-309.5 208.75,-309.5 208.75,-273.5 291.5,-273.5 291.5,-309.5"/>
<text text-anchor="middle" x="250.12" y="-287.95" font-family="Arial Unicode MS, Arial" font-size="14.00">PeerBuddy</text>
</a>
</g>
</g>
<!-- StressStrategy&#45;&gt;PeerBuddy -->
<g id="edge10" class="edge">
<title>StressStrategy&#45;&gt;PeerBuddy</title>
<path fill="none" stroke="black" d="M325.9,-345.02C312.66,-335.84 296.31,-324.51 282.18,-314.72"/>
<ellipse fill="none" stroke="black" cx="278.73" cy="-312.32" rx="4" ry="4"/>
</g>
<!-- TrainingSession -->
<g id="node15" class="node">
<title>TrainingSession</title>
<g id="a_node15"><a xlink:title="Cardinality: None">
<polygon fill="white" stroke="black" points="422.5,-309.5 309.75,-309.5 309.75,-273.5 422.5,-273.5 422.5,-309.5"/>
<text text-anchor="middle" x="366.12" y="-287.95" font-family="Arial Unicode MS, Arial" font-size="14.00">TrainingSession</text>
</a>
</g>
</g>
<!-- StressStrategy&#45;&gt;TrainingSession -->
<g id="edge11" class="edge">
<title>StressStrategy&#45;&gt;TrainingSession</title>
<path fill="none" stroke="black" d="M354.83,-345.2C356.58,-337.06 358.69,-327.19 360.62,-318.2"/>
<ellipse fill="none" stroke="black" cx="361.52" cy="-314" rx="4" ry="4"/>
</g>
<!-- TrainingSession&#45;&gt;SensorRemediation -->
<!-- UseLotion -->
<g id="node16" class="node">
<title>UseLotion</title>
<g id="a_node16"><a xlink:title="Cardinality: None">
<polygon fill="white" stroke="black" points="330.5,-93.5 253.75,-93.5 253.75,-57.5 330.5,-57.5 330.5,-93.5"/>
<text text-anchor="middle" x="292.12" y="-71.95" font-family="Arial Unicode MS, Arial" font-size="14.00">UseLotion</text>
</a>
</g>
</g>
<!-- DrySkin -->
<g id="node17" class="node">
<title>DrySkin</title>
<g id="a_node17"><a xlink:title="Cardinality: None">
<polygon fill="white" stroke="black" points="385.75,-165.5 322.5,-165.5 322.5,-129.5 385.75,-129.5 385.75,-165.5"/>
<text text-anchor="middle" x="354.12" y="-143.95" font-family="Arial Unicode MS, Arial" font-size="14.00">DrySkin</text>
</a>
</g>
</g>
<!-- DrySkin&#45;&gt;UseLotion -->
<g id="edge14" class="edge">
<title>DrySkin&#45;&gt;UseLotion</title>
<path fill="none" stroke="black" d="M338.8,-129.2C331.07,-120.47 321.57,-109.74 313.16,-100.25"/>
<ellipse fill="none" stroke="black" cx="310.26" cy="-96.97" rx="4" ry="4"/>
</g>
<!-- UseSpecificSensors -->
<g id="node18" class="node">
<title>UseSpecificSensors</title>
<g id="a_node18"><a xlink:title="Cardinality: None">
<polygon fill="white" stroke="black" points="485.5,-93.5 348.75,-93.5 348.75,-57.5 485.5,-57.5 485.5,-93.5"/>
<text text-anchor="middle" x="417.12" y="-71.95" font-family="Arial Unicode MS, Arial" font-size="14.00">UseSpecificSensors</text>
</a>
</g>
</g>
<!-- DrySkin&#45;&gt;UseSpecificSensors -->
<g id="edge15" class="edge">
<title>DrySkin&#45;&gt;UseSpecificSensors</title>
<path fill="none" stroke="black" d="M369.7,-129.2C377.56,-120.47 387.21,-109.74 395.75,-100.25"/>
<ellipse fill="none" stroke="black" cx="398.72" cy="-96.95" rx="4" ry="4"/>
</g>
<!-- SensorRemediation&#45;&gt;DrySkin -->
<g id="edge16" class="edge">
<title>SensorRemediation&#45;&gt;DrySkin</title>
<path fill="none" stroke="black" d="M394.78,-201.2C388.11,-192.55 379.93,-181.95 372.66,-172.53"/>
<ellipse fill="none" stroke="black" cx="370.07" cy="-169.17" rx="4" ry="4"/>
</g>
<!-- ScaryEquipment -->
<g id="node20" class="node">
<title>ScaryEquipment</title>
<g id="a_node20"><a xlink:title="Cardinality: None">
<polygon fill="white" stroke="black" points="520,-165.5 404.25,-165.5 404.25,-129.5 520,-129.5 520,-165.5"/>
<text text-anchor="middle" x="462.12" y="-143.95" font-family="Arial Unicode MS, Arial" font-size="14.00">ScaryEquipment</text>
</a>
</g>
</g>
<!-- SensorRemediation&#45;&gt;ScaryEquipment -->
<g id="edge17" class="edge">
<title>SensorRemediation&#45;&gt;ScaryEquipment</title>
<path fill="none" stroke="black" d="M421.47,-201.2C428.14,-192.55 436.32,-181.95 443.59,-172.53"/>
<ellipse fill="none" stroke="black" cx="446.18" cy="-169.17" rx="4" ry="4"/>
</g>
</g>
</svg>
