<?xml version="1.0" encoding="UTF-8" standalone="no"?>
<!DOCTYPE svg PUBLIC "-//W3C//DTD SVG 1.1//EN"
 "http://www.w3.org/Graphics/SVG/1.1/DTD/svg11.dtd">
<!-- Generated by graphviz version 12.2.1 (20241206.2353)
 -->
<!-- Title: FeatureModel Pages: 1 -->
<svg width="1803pt" height="655pt"
 viewBox="0.00 0.00 1803.33 655.42" xmlns="http://www.w3.org/2000/svg" xmlns:xlink="http://www.w3.org/1999/xlink">
<g id="graph0" class="graph" transform="scale(1 1) rotate(0) translate(3.6 651.82)">
<title>FeatureModel</title>
<polygon fill="white" stroke="none" points="-3.6,3.6 -3.6,-651.82 1799.73,-651.82 1799.73,3.6 -3.6,3.6"/>
<!-- ReuseDirectory -->
<g id="node1" class="node">
<title>ReuseDirectory</title>
<g id="a_node1"><a xlink:title="Cardinality: None">
<polygon fill="#a7c7e7" stroke="black" points="109,-330.04 0,-330.04 0,-294.04 109,-294.04 109,-330.04"/>
<text text-anchor="middle" x="54.5" y="-308.49" font-family="Arial Unicode MS, Arial" font-size="14.00">ReuseDirectory</text>
</a>
</g>
</g>
<!-- Phone -->
<g id="node2" class="node">
<title>Phone</title>
<g id="a_node2"><a xlink:title="Cardinality: None">
<polygon fill="white" stroke="black" points="92.43,-388.68 140.5,-372.07 188.57,-388.68 188.53,-415.55 92.47,-415.55 92.43,-388.68"/>
<text text-anchor="middle" x="140.5" y="-392.56" font-family="Arial Unicode MS, Arial" font-size="14.00">Phone</text>
</a>
</g>
</g>
<!-- Phone&#45;&gt;ReuseDirectory -->
<g id="edge1" class="edge">
<title>Phone&#45;&gt;ReuseDirectory</title>
<path fill="none" stroke="black" d="M116.17,-371.89C102.32,-358.67 85.26,-342.39 72.59,-330.3"/>
<ellipse fill="none" stroke="black" cx="119.43" cy="-375" rx="4" ry="4"/>
</g>
<!-- BuildDirectory -->
<g id="node3" class="node">
<title>BuildDirectory</title>
<g id="a_node3"><a xlink:title="Cardinality: None">
<polygon fill="white" stroke="black" points="227.5,-330.04 127.5,-330.04 127.5,-294.04 227.5,-294.04 227.5,-330.04"/>
<text text-anchor="middle" x="177.5" y="-308.49" font-family="Arial Unicode MS, Arial" font-size="14.00">BuildDirectory</text>
</a>
</g>
</g>
<!-- Phone&#45;&gt;BuildDirectory -->
<g id="edge2" class="edge">
<title>Phone&#45;&gt;BuildDirectory</title>
<path fill="none" stroke="black" d="M153.28,-366.75C158.75,-354.63 164.95,-340.87 169.71,-330.32"/>
<ellipse fill="none" stroke="black" cx="151.5" cy="-370.72" rx="4" ry="4"/>
</g>
<!-- RecruitmentStrategy -->
<g id="node4" class="node">
<title>RecruitmentStrategy</title>
<g id="a_node4"><a xlink:title="Cardinality: None">
<polygon fill="white" stroke="black" points="341.38,-498.18 201.62,-498.18 201.62,-462.18 341.38,-462.18 341.38,-498.18"/>
<text text-anchor="middle" x="271.5" y="-476.63" font-family="Arial Unicode MS, Arial" font-size="14.00">RecruitmentStrategy</text>
</a>
</g>
</g>
<!-- RecruitmentStrategy&#45;&gt;Phone -->
<g id="edge3" class="edge">
<title>RecruitmentStrategy&#45;&gt;Phone</title>
<path fill="none" stroke="black" d="M243.72,-461.77C224.59,-449.79 198.94,-433.72 178,-420.6"/>
<ellipse fill="none" stroke="black" cx="174.34" cy="-418.31" rx="4" ry="4"/>
</g>
<!-- Poster -->
<g id="node5" class="node">
<title>Poster</title>
<g id="a_node5"><a xlink:title="Cardinality: None">
<polygon fill="#a7c7e7" stroke="black" points="262,-414.11 207,-414.11 207,-378.11 262,-378.11 262,-414.11"/>
<text text-anchor="middle" x="234.5" y="-392.56" font-family="Arial Unicode MS, Arial" font-size="14.00">Poster</text>
</a>
</g>
</g>
<!-- RecruitmentStrategy&#45;&gt;Poster -->
<g id="edge4" class="edge">
<title>RecruitmentStrategy&#45;&gt;Poster</title>
<path fill="none" stroke="black" d="M263.65,-461.77C258.5,-450.35 251.68,-435.22 245.93,-422.46"/>
<ellipse fill="none" stroke="black" cx="244.18" cy="-418.59" rx="4" ry="4"/>
</g>
<!-- Display -->
<g id="node6" class="node">
<title>Display</title>
<g id="a_node6"><a xlink:title="Cardinality: None">
<polygon fill="#a7c7e7" stroke="black" points="334.5,-414.11 280.5,-414.11 280.5,-378.11 334.5,-378.11 334.5,-414.11"/>
<text text-anchor="middle" x="307.5" y="-392.56" font-family="Arial Unicode MS, Arial" font-size="14.00">Chat</text>
</a>
</g>
</g>
<!-- RecruitmentStrategy&#45;&gt;Display -->
<g id="edge5" class="edge">
<title>RecruitmentStrategy&#45;&gt;Display</title>
<path fill="none" stroke="black" d="M279.13,-461.77C284.15,-450.35 290.78,-435.22 296.38,-422.46"/>
<ellipse fill="none" stroke="black" cx="298.07" cy="-418.61" rx="4" ry="4"/>
</g>
<!-- Experiment -->
<g id="node7" class="node">
<title>Experiment</title>
<g id="a_node7"><a xlink:title="Cardinality: None">
<polygon fill="white" stroke="black" points="1042,-576.22 957,-576.22 957,-540.22 1042,-540.22 1042,-576.22"/>
<text text-anchor="middle" x="999.5" y="-554.67" font-family="Arial Unicode MS, Arial" font-size="14.00">Experiment</text>
</a>
</g>
</g>
<!-- Experiment&#45;&gt;RecruitmentStrategy -->
<g id="edge6" class="edge">
<title>Experiment&#45;&gt;RecruitmentStrategy</title>
<path fill="none" stroke="black" d="M956.8,-554.63C858.87,-548.43 610.67,-531.21 404.5,-504.22 386.93,-501.91 368.13,-498.96 350.37,-495.95"/>
<ellipse fill="black" stroke="black" cx="346.17" cy="-495.23" rx="4" ry="4"/>
</g>
<!-- ResearchMethod -->
<g id="node10" class="node">
<title>ResearchMethod</title>
<g id="a_node10"><a xlink:title="Cardinality: None">
<polygon fill="white" stroke="black" points="413.05,-472.75 517.5,-456.14 621.95,-472.75 621.85,-499.62 413.15,-499.62 413.05,-472.75"/>
<text text-anchor="middle" x="517.5" y="-476.63" font-family="Arial Unicode MS, Arial" font-size="14.00">ResearchMethod</text>
</a>
</g>
</g>
<!-- Experiment&#45;&gt;ResearchMethod -->
<g id="edge10" class="edge">
<title>Experiment&#45;&gt;ResearchMethod</title>
<path fill="none" stroke="black" d="M956.73,-550.47C884.23,-539.03 734.95,-515.48 630.65,-499.03"/>
<ellipse fill="black" stroke="black" cx="626.4" cy="-498.36" rx="4" ry="4"/>
</g>
<!-- DataCollection -->
<g id="node28" class="node">
<title>DataCollection</title>
<g id="a_node28"><a xlink:title="Cardinality: None">
<polygon fill="white" stroke="black" points="1051.38,-498.18 947.62,-498.18 947.62,-462.18 1051.38,-462.18 1051.38,-498.18"/>
<text text-anchor="middle" x="999.5" y="-476.63" font-family="Arial Unicode MS, Arial" font-size="14.00">DataCollection</text>
</a>
</g>
</g>
<!-- Experiment&#45;&gt;DataCollection -->
<g id="edge40" class="edge">
<title>Experiment&#45;&gt;DataCollection</title>
<path fill="none" stroke="black" d="M999.5,-539.96C999.5,-530.4 999.5,-518.32 999.5,-507.6"/>
<ellipse fill="black" stroke="black" cx="999.5" cy="-503.13" rx="4" ry="4"/>
</g>
<!-- Location -->
<g id="node43" class="node">
<title>Location</title>
<g id="a_node43"><a xlink:title="Cardinality: None">
<polygon fill="white" stroke="black" points="1472,-498.18 1405,-498.18 1405,-462.18 1472,-462.18 1472,-498.18"/>
<text text-anchor="middle" x="1438.5" y="-476.63" font-family="Arial Unicode MS, Arial" font-size="14.00">Location</text>
</a>
</g>
</g>
<!-- Experiment&#45;&gt;Location -->
<g id="edge45" class="edge">
<title>Experiment&#45;&gt;Location</title>
<path fill="none" stroke="black" d="M1042.39,-549.79C1126.49,-535.22 1312.13,-503.07 1395.95,-488.55"/>
<ellipse fill="none" stroke="black" cx="1400.26" cy="-487.8" rx="4" ry="4"/>
</g>
<!-- ActionResearch -->
<g id="node8" class="node">
<title>ActionResearch</title>
<g id="a_node8"><a xlink:title="Cardinality: None">
<polygon fill="white" stroke="black" points="394.12,-330.04 282.88,-330.04 282.88,-294.04 394.12,-294.04 394.12,-330.04"/>
<text text-anchor="middle" x="338.5" y="-308.49" font-family="Arial Unicode MS, Arial" font-size="14.00">ActionResearch</text>
</a>
</g>
</g>
<!-- Iterative -->
<g id="node9" class="node">
<title>Iterative</title>
<g id="a_node9"><a xlink:title="Cardinality: None">
<polygon fill="white" stroke="black" points="352.56,-388.68 408.5,-372.07 464.44,-388.68 464.39,-415.55 352.61,-415.55 352.56,-388.68"/>
<text text-anchor="middle" x="408.5" y="-392.56" font-family="Arial Unicode MS, Arial" font-size="14.00">Iterative</text>
</a>
</g>
</g>
<!-- Iterative&#45;&gt;ActionResearch -->
<g id="edge7" class="edge">
<title>Iterative&#45;&gt;ActionResearch</title>
<path fill="none" stroke="black" d="M386.82,-369.69C375.96,-356.96 363.09,-341.87 353.36,-330.46"/>
<ellipse fill="none" stroke="black" cx="389.7" cy="-373.06" rx="4" ry="4"/>
</g>
<!-- ResearchMethod&#45;&gt;Iterative -->
<g id="edge8" class="edge">
<title>ResearchMethod&#45;&gt;Iterative</title>
<path fill="none" stroke="black" d="M485.09,-454.78C468.59,-442.35 448.83,-427.48 433.52,-415.95"/>
<ellipse fill="none" stroke="black" cx="488.35" cy="-457.23" rx="4" ry="4"/>
</g>
<!-- OneShot -->
<g id="node11" class="node">
<title>OneShot</title>
<g id="a_node11"><a xlink:title="Cardinality: None">
<polygon fill="white" stroke="black" points="552.5,-414.11 482.5,-414.11 482.5,-378.11 552.5,-378.11 552.5,-414.11"/>
<text text-anchor="middle" x="517.5" y="-392.56" font-family="Arial Unicode MS, Arial" font-size="14.00">OneShot</text>
</a>
</g>
</g>
<!-- ResearchMethod&#45;&gt;OneShot -->
<g id="edge9" class="edge">
<title>ResearchMethod&#45;&gt;OneShot</title>
<path fill="none" stroke="black" d="M517.5,-447.21C517.5,-436.06 517.5,-423.97 517.5,-414.46"/>
<ellipse fill="none" stroke="black" cx="517.5" cy="-451.38" rx="4" ry="4"/>
</g>
<!-- Survey -->
<g id="node12" class="node">
<title>Survey</title>
<g id="a_node12"><a xlink:title="Cardinality: None">
<polygon fill="white" stroke="black" points="313.5,-252 255.5,-252 255.5,-216 313.5,-216 313.5,-252"/>
<text text-anchor="middle" x="284.5" y="-230.45" font-family="Arial Unicode MS, Arial" font-size="14.00">Survey</text>
</a>
</g>
</g>
<!-- Quantitative -->
<g id="node13" class="node">
<title>Quantitative</title>
<g id="a_node13"><a xlink:title="Cardinality: None">
<polygon fill="white" stroke="black" points="500.88,-330.04 412.12,-330.04 412.12,-294.04 500.88,-294.04 500.88,-330.04"/>
<text text-anchor="middle" x="456.5" y="-308.49" font-family="Arial Unicode MS, Arial" font-size="14.00">Quantitative</text>
</a>
</g>
</g>
<!-- Quantitative&#45;&gt;Survey -->
<g id="edge11" class="edge">
<title>Quantitative&#45;&gt;Survey</title>
<path fill="none" stroke="black" d="M416.9,-293.66C390.21,-281.93 354.22,-266.08 322.5,-252 322.33,-251.92 322.15,-251.85 321.98,-251.77"/>
<ellipse fill="none" stroke="black" cx="318.06" cy="-250.03" rx="4" ry="4"/>
</g>
<!-- UsingSensors -->
<g id="node15" class="node">
<title>UsingSensors</title>
<g id="a_node15"><a xlink:title="Cardinality: None">
<polygon fill="white" stroke="black" points="431.5,-252 331.5,-252 331.5,-216 431.5,-216 431.5,-252"/>
<text text-anchor="middle" x="381.5" y="-230.45" font-family="Arial Unicode MS, Arial" font-size="14.00">UsingSensors</text>
</a>
</g>
</g>
<!-- Quantitative&#45;&gt;UsingSensors -->
<g id="edge18" class="edge">
<title>Quantitative&#45;&gt;UsingSensors</title>
<path fill="none" stroke="black" d="M439.48,-293.78C429.29,-283.45 416.2,-270.17 405.03,-258.85"/>
<ellipse fill="none" stroke="black" cx="401.87" cy="-255.65" rx="4" ry="4"/>
</g>
<!-- EyeTracking -->
<g id="node14" class="node">
<title>EyeTracking</title>
<g id="a_node14"><a xlink:title="Cardinality: None">
<polygon fill="white" stroke="black" points="241,-180 150,-180 150,-144 241,-144 241,-180"/>
<text text-anchor="middle" x="195.5" y="-158.45" font-family="Arial Unicode MS, Arial" font-size="14.00">EyeTracking</text>
</a>
</g>
</g>
<!-- EEG -->
<g id="node16" class="node">
<title>EEG</title>
<g id="a_node16"><a xlink:title="Cardinality: None">
<polygon fill="white" stroke="black" points="279.5,-108 225.5,-108 225.5,-72 279.5,-72 279.5,-108"/>
<text text-anchor="middle" x="252.5" y="-86.45" font-family="Arial Unicode MS, Arial" font-size="14.00">EEG</text>
</a>
</g>
</g>
<!-- EyeTracking&#45;&gt;EEG -->
<!-- UsingSensors&#45;&gt;EyeTracking -->
<g id="edge12" class="edge">
<title>UsingSensors&#45;&gt;EyeTracking</title>
<path fill="none" stroke="black" d="M335.04,-215.52C309.11,-205.75 276.66,-193.54 249.58,-183.35"/>
<ellipse fill="none" stroke="black" cx="245.58" cy="-181.85" rx="4" ry="4"/>
</g>
<!-- UsingSensors&#45;&gt;EEG -->
<g id="edge13" class="edge">
<title>UsingSensors&#45;&gt;EEG</title>
<path fill="none" stroke="black" d="M341.94,-215.68C325.33,-206.89 306.82,-194.88 293.5,-180 277.24,-161.84 266.34,-136.12 259.89,-117"/>
<ellipse fill="none" stroke="black" cx="258.53" cy="-112.75" rx="4" ry="4"/>
</g>
<!-- Respiration -->
<g id="node17" class="node">
<title>Respiration</title>
<g id="a_node17"><a xlink:title="Cardinality: None">
<polygon fill="white" stroke="black" points="313.62,-36 229.38,-36 229.38,0 313.62,0 313.62,-36"/>
<text text-anchor="middle" x="271.5" y="-14.45" font-family="Arial Unicode MS, Arial" font-size="14.00">Respiration</text>
</a>
</g>
</g>
<!-- UsingSensors&#45;&gt;Respiration -->
<g id="edge14" class="edge">
<title>UsingSensors&#45;&gt;Respiration</title>
<path fill="none" stroke="black" d="M360.1,-215.67C349.4,-206.09 336.97,-193.43 328.5,-180 321.08,-168.24 293.91,-87.21 279.93,-44.78"/>
<ellipse fill="none" stroke="black" cx="278.57" cy="-40.63" rx="4" ry="4"/>
</g>
<!-- HeartRate -->
<g id="node18" class="node">
<title>HeartRate</title>
<g id="a_node18"><a xlink:title="Cardinality: None">
<polygon fill="white" stroke="black" points="415.25,-180 337.75,-180 337.75,-144 415.25,-144 415.25,-180"/>
<text text-anchor="middle" x="376.5" y="-158.45" font-family="Arial Unicode MS, Arial" font-size="14.00">HeartRate</text>
</a>
</g>
</g>
<!-- UsingSensors&#45;&gt;HeartRate -->
<g id="edge15" class="edge">
<title>UsingSensors&#45;&gt;HeartRate</title>
<path fill="none" stroke="black" d="M380.26,-215.7C379.69,-207.64 378.99,-197.89 378.36,-188.98"/>
<ellipse fill="none" stroke="black" cx="378.04" cy="-184.59" rx="4" ry="4"/>
</g>
<!-- GalvanicSkinResponse -->
<g id="node19" class="node">
<title>GalvanicSkinResponse</title>
<g id="a_node19"><a xlink:title="Cardinality: None">
<polygon fill="white" stroke="black" points="491.62,-108 335.38,-108 335.38,-72 491.62,-72 491.62,-108"/>
<text text-anchor="middle" x="413.5" y="-86.45" font-family="Arial Unicode MS, Arial" font-size="14.00">GalvanicSkinResponse</text>
</a>
</g>
</g>
<!-- UsingSensors&#45;&gt;GalvanicSkinResponse -->
<g id="edge16" class="edge">
<title>UsingSensors&#45;&gt;GalvanicSkinResponse</title>
<path fill="none" stroke="black" d="M400.54,-215.84C409.68,-206.3 419.67,-193.62 424.5,-180 431.79,-159.45 427.81,-134.74 422.71,-116.58"/>
<ellipse fill="none" stroke="black" cx="421.47" cy="-112.54" rx="4" ry="4"/>
</g>
<!-- Electromyography -->
<g id="node20" class="node">
<title>Electromyography</title>
<g id="a_node20"><a xlink:title="Cardinality: None">
<polygon fill="white" stroke="black" points="476.25,-36 350.75,-36 350.75,0 476.25,0 476.25,-36"/>
<text text-anchor="middle" x="413.5" y="-14.45" font-family="Arial Unicode MS, Arial" font-size="14.00">Electromyography</text>
</a>
</g>
</g>
<!-- UsingSensors&#45;&gt;Electromyography -->
<g id="edge17" class="edge">
<title>UsingSensors&#45;&gt;Electromyography</title>
<path fill="none" stroke="black" d="M407.94,-215.62C437.47,-194.37 483.36,-155.33 500.5,-108 505.95,-92.96 508.34,-85.95 500.5,-72 493.11,-58.85 481,-48.58 468.12,-40.73"/>
<ellipse fill="none" stroke="black" cx="464.39" cy="-38.61" rx="4" ry="4"/>
</g>
<!-- EEG&#45;&gt;Respiration -->
<!-- HeartRate&#45;&gt;GalvanicSkinResponse -->
<!-- GalvanicSkinResponse&#45;&gt;Electromyography -->
<!-- Approach -->
<g id="node21" class="node">
<title>Approach</title>
<g id="a_node21"><a xlink:title="Cardinality: None">
<polygon fill="white" stroke="black" points="570.04,-388.68 634.5,-372.07 698.96,-388.68 698.9,-415.55 570.1,-415.55 570.04,-388.68"/>
<text text-anchor="middle" x="634.5" y="-392.56" font-family="Arial Unicode MS, Arial" font-size="14.00">Approach</text>
</a>
</g>
</g>
<!-- Approach&#45;&gt;Quantitative -->
<g id="edge19" class="edge">
<title>Approach&#45;&gt;Quantitative</title>
<path fill="none" stroke="black" d="M593.7,-376.3C563.75,-362.49 523.37,-343.87 494.18,-330.41"/>
<ellipse fill="none" stroke="black" cx="597.77" cy="-378.17" rx="4" ry="4"/>
</g>
<!-- Qualitative -->
<g id="node23" class="node">
<title>Qualitative</title>
<g id="a_node23"><a xlink:title="Cardinality: None">
<polygon fill="white" stroke="black" points="602.75,-330.04 522.25,-330.04 522.25,-294.04 602.75,-294.04 602.75,-330.04"/>
<text text-anchor="middle" x="562.5" y="-308.49" font-family="Arial Unicode MS, Arial" font-size="14.00">Qualitative</text>
</a>
</g>
</g>
<!-- Approach&#45;&gt;Qualitative -->
<g id="edge25" class="edge">
<title>Approach&#45;&gt;Qualitative</title>
<path fill="none" stroke="black" d="M612.15,-369.63C600.94,-356.85 587.64,-341.7 577.64,-330.29"/>
<ellipse fill="none" stroke="black" cx="614.83" cy="-372.69" rx="4" ry="4"/>
</g>
<!-- Observation -->
<g id="node22" class="node">
<title>Observation</title>
<g id="a_node22"><a xlink:title="Cardinality: None">
<polygon fill="white" stroke="black" points="549.25,-252 459.75,-252 459.75,-216 549.25,-216 549.25,-252"/>
<text text-anchor="middle" x="504.5" y="-230.45" font-family="Arial Unicode MS, Arial" font-size="14.00">Observation</text>
</a>
</g>
</g>
<!-- Qualitative&#45;&gt;Observation -->
<g id="edge20" class="edge">
<title>Qualitative&#45;&gt;Observation</title>
<path fill="none" stroke="black" d="M549.34,-293.78C541.61,-283.65 531.71,-270.67 523.18,-259.49"/>
<ellipse fill="none" stroke="black" cx="520.54" cy="-256.03" rx="4" ry="4"/>
</g>
<!-- Interviews -->
<g id="node25" class="node">
<title>Interviews</title>
<g id="a_node25"><a xlink:title="Cardinality: None">
<polygon fill="white" stroke="black" points="643.88,-252 567.12,-252 567.12,-216 643.88,-216 643.88,-252"/>
<text text-anchor="middle" x="605.5" y="-230.45" font-family="Arial Unicode MS, Arial" font-size="14.00">Interviews</text>
</a>
</g>
</g>
<!-- Qualitative&#45;&gt;Interviews -->
<g id="edge24" class="edge">
<title>Qualitative&#45;&gt;Interviews</title>
<path fill="none" stroke="black" d="M572.26,-293.78C577.88,-283.84 585.05,-271.16 591.29,-260.13"/>
<ellipse fill="none" stroke="black" cx="593.42" cy="-256.37" rx="4" ry="4"/>
</g>
<!-- Structured -->
<g id="node24" class="node">
<title>Structured</title>
<g id="a_node24"><a xlink:title="Cardinality: None">
<polygon fill="white" stroke="black" points="625.62,-180 547.38,-180 547.38,-144 625.62,-144 625.62,-180"/>
<text text-anchor="middle" x="586.5" y="-158.45" font-family="Arial Unicode MS, Arial" font-size="14.00">Structured</text>
</a>
</g>
</g>
<!-- Interviews&#45;&gt;Structured -->
<g id="edge21" class="edge">
<title>Interviews&#45;&gt;Structured</title>
<path fill="none" stroke="black" d="M600.8,-215.7C598.59,-207.56 595.92,-197.69 593.48,-188.7"/>
<ellipse fill="none" stroke="black" cx="592.32" cy="-184.45" rx="4" ry="4"/>
</g>
<!-- SemiStructured -->
<g id="node26" class="node">
<title>SemiStructured</title>
<g id="a_node26"><a xlink:title="Cardinality: None">
<polygon fill="white" stroke="black" points="753.38,-180 643.62,-180 643.62,-144 753.38,-144 753.38,-180"/>
<text text-anchor="middle" x="698.5" y="-158.45" font-family="Arial Unicode MS, Arial" font-size="14.00">SemiStructured</text>
</a>
</g>
</g>
<!-- Interviews&#45;&gt;SemiStructured -->
<g id="edge22" class="edge">
<title>Interviews&#45;&gt;SemiStructured</title>
<path fill="none" stroke="black" d="M628.49,-215.7C640.56,-206.61 655.5,-195.36 668.48,-185.6"/>
<ellipse fill="none" stroke="black" cx="671.86" cy="-183.05" rx="4" ry="4"/>
</g>
<!-- Open -->
<g id="node27" class="node">
<title>Open</title>
<g id="a_node27"><a xlink:title="Cardinality: None">
<polygon fill="white" stroke="black" points="825.5,-180 771.5,-180 771.5,-144 825.5,-144 825.5,-180"/>
<text text-anchor="middle" x="798.5" y="-158.45" font-family="Arial Unicode MS, Arial" font-size="14.00">Open</text>
</a>
</g>
</g>
<!-- Interviews&#45;&gt;Open -->
<g id="edge23" class="edge">
<title>Interviews&#45;&gt;Open</title>
<path fill="none" stroke="black" d="M644.2,-218.9C647,-217.91 649.79,-216.93 652.5,-216 701.14,-199.25 714.7,-199.02 762.5,-180 762.68,-179.93 762.85,-179.86 763.03,-179.79"/>
<ellipse fill="none" stroke="black" cx="766.99" cy="-178.11" rx="4" ry="4"/>
</g>
<!-- DataCollection&#45;&gt;Approach -->
<g id="edge26" class="edge">
<title>DataCollection&#45;&gt;Approach</title>
<path fill="none" stroke="black" d="M947.2,-467.42C884.41,-453.3 778.71,-429.53 707.8,-413.59"/>
<ellipse fill="black" stroke="black" cx="703.72" cy="-412.67" rx="4" ry="4"/>
</g>
<!-- CollectionMethod -->
<g id="node32" class="node">
<title>CollectionMethod</title>
<g id="a_node32"><a xlink:title="Cardinality: None">
<polygon fill="white" stroke="black" points="786.74,-388.68 892.5,-372.07 998.26,-388.68 998.16,-415.55 786.84,-415.55 786.74,-388.68"/>
<text text-anchor="middle" x="892.5" y="-392.56" font-family="Arial Unicode MS, Arial" font-size="14.00">CollectionMethod</text>
</a>
</g>
</g>
<!-- DataCollection&#45;&gt;CollectionMethod -->
<g id="edge31" class="edge">
<title>DataCollection&#45;&gt;CollectionMethod</title>
<path fill="none" stroke="black" d="M976.81,-461.77C961.46,-450 940.97,-434.29 924.04,-421.3"/>
<ellipse fill="black" stroke="black" cx="920.59" cy="-418.66" rx="4" ry="4"/>
</g>
<!-- StoragePolicy -->
<g id="node35" class="node">
<title>StoragePolicy</title>
<g id="a_node35"><a xlink:title="Cardinality: None">
<polygon fill="white" stroke="black" points="1157.12,-414.11 1057.88,-414.11 1057.88,-378.11 1157.12,-378.11 1157.12,-414.11"/>
<text text-anchor="middle" x="1107.5" y="-392.56" font-family="Arial Unicode MS, Arial" font-size="14.00">StoragePolicy</text>
</a>
</g>
</g>
<!-- DataCollection&#45;&gt;StoragePolicy -->
<g id="edge35" class="edge">
<title>DataCollection&#45;&gt;StoragePolicy</title>
<path fill="none" stroke="black" d="M1022.4,-461.77C1038.58,-449.48 1060.41,-432.89 1077.91,-419.59"/>
<ellipse fill="black" stroke="black" cx="1081.05" cy="-417.21" rx="4" ry="4"/>
</g>
<!-- DataAnalysisTooling -->
<g id="node39" class="node">
<title>DataAnalysisTooling</title>
<g id="a_node39"><a xlink:title="Cardinality: None">
<polygon fill="white" stroke="black" points="1355,-414.11 1216,-414.11 1216,-378.11 1355,-378.11 1355,-414.11"/>
<text text-anchor="middle" x="1285.5" y="-392.56" font-family="Arial Unicode MS, Arial" font-size="14.00">DataAnalysisTooling</text>
</a>
</g>
</g>
<!-- DataCollection&#45;&gt;DataAnalysisTooling -->
<g id="edge39" class="edge">
<title>DataCollection&#45;&gt;DataAnalysisTooling</title>
<path fill="none" stroke="black" d="M1051.62,-464.22C1097.7,-451 1165.26,-431.61 1215.94,-417.07"/>
<ellipse fill="black" stroke="black" cx="1220.23" cy="-415.84" rx="4" ry="4"/>
</g>
<!-- MUXL_MobileLab -->
<g id="node29" class="node">
<title>MUXL_MobileLab</title>
<g id="a_node29"><a xlink:title="Cardinality: None">
<polygon fill="white" stroke="black" points="785.5,-252 661.5,-252 661.5,-216 785.5,-216 785.5,-252"/>
<text text-anchor="middle" x="723.5" y="-230.45" font-family="Arial Unicode MS, Arial" font-size="14.00">MUXL_MobileLab</text>
</a>
</g>
</g>
<!-- OnSiteCollection -->
<g id="node30" class="node">
<title>OnSiteCollection</title>
<g id="a_node30"><a xlink:title="Cardinality: None">
<polygon fill="white" stroke="black" points="621.02,-304.61 723.5,-288 825.98,-304.61 825.88,-331.48 621.12,-331.48 621.02,-304.61"/>
<text text-anchor="middle" x="723.5" y="-308.49" font-family="Arial Unicode MS, Arial" font-size="14.00">OnSiteCollection</text>
</a>
</g>
</g>
<!-- OnSiteCollection&#45;&gt;MUXL_MobileLab -->
<g id="edge27" class="edge">
<title>OnSiteCollection&#45;&gt;MUXL_MobileLab</title>
<path fill="none" stroke="black" d="M723.5,-278.84C723.5,-269.64 723.5,-259.96 723.5,-252.05"/>
<ellipse fill="none" stroke="black" cx="723.5" cy="-283.31" rx="4" ry="4"/>
</g>
<!-- OnPremise -->
<g id="node31" class="node">
<title>OnPremise</title>
<g id="a_node31"><a xlink:title="Cardinality: None">
<polygon fill="white" stroke="black" points="889,-252 804,-252 804,-216 889,-216 889,-252"/>
<text text-anchor="middle" x="846.5" y="-230.45" font-family="Arial Unicode MS, Arial" font-size="14.00">OnPremise</text>
</a>
</g>
</g>
<!-- OnSiteCollection&#45;&gt;OnPremise -->
<g id="edge28" class="edge">
<title>OnSiteCollection&#45;&gt;OnPremise</title>
<path fill="none" stroke="black" d="M760.76,-288C779.3,-276.54 801.32,-262.93 818.41,-252.37"/>
<ellipse fill="none" stroke="black" cx="757.42" cy="-290.07" rx="4" ry="4"/>
</g>
<!-- CollectionMethod&#45;&gt;OnSiteCollection -->
<g id="edge29" class="edge">
<title>CollectionMethod&#45;&gt;OnSiteCollection</title>
<path fill="none" stroke="black" d="M848.21,-373.6C821.56,-360.66 787.95,-344.34 762.34,-331.9"/>
<ellipse fill="none" stroke="black" cx="852.2" cy="-375.54" rx="4" ry="4"/>
</g>
<!-- LabCollection -->
<g id="node33" class="node">
<title>LabCollection</title>
<g id="a_node33"><a xlink:title="Cardinality: None">
<polygon fill="white" stroke="black" points="941.38,-330.04 843.62,-330.04 843.62,-294.04 941.38,-294.04 941.38,-330.04"/>
<text text-anchor="middle" x="892.5" y="-308.49" font-family="Arial Unicode MS, Arial" font-size="14.00">LabCollection</text>
</a>
</g>
</g>
<!-- CollectionMethod&#45;&gt;LabCollection -->
<g id="edge30" class="edge">
<title>CollectionMethod&#45;&gt;LabCollection</title>
<path fill="none" stroke="black" d="M892.5,-363.14C892.5,-351.99 892.5,-339.9 892.5,-330.39"/>
<ellipse fill="none" stroke="black" cx="892.5" cy="-367.31" rx="4" ry="4"/>
</g>
<!-- DataAnonymicity -->
<g id="node34" class="node">
<title>DataAnonymicity</title>
<g id="a_node34"><a xlink:title="Cardinality: None">
<polygon fill="white" stroke="black" points="1077.5,-330.04 959.5,-330.04 959.5,-294.04 1077.5,-294.04 1077.5,-330.04"/>
<text text-anchor="middle" x="1018.5" y="-308.49" font-family="Arial Unicode MS, Arial" font-size="14.00">DataAnonymicity</text>
</a>
</g>
</g>
<!-- StoragePolicy&#45;&gt;DataAnonymicity -->
<g id="edge32" class="edge">
<title>StoragePolicy&#45;&gt;DataAnonymicity</title>
<path fill="none" stroke="black" d="M1088.63,-377.7C1073.52,-363.77 1052.44,-344.34 1037.35,-330.42"/>
</g>
<!-- SecuredStorage -->
<g id="node36" class="node">
<title>SecuredStorage</title>
<g id="a_node36"><a xlink:title="Cardinality: None">
<polygon fill="white" stroke="black" points="1209.25,-330.04 1095.75,-330.04 1095.75,-294.04 1209.25,-294.04 1209.25,-330.04"/>
<text text-anchor="middle" x="1152.5" y="-308.49" font-family="Arial Unicode MS, Arial" font-size="14.00">SecuredStorage</text>
</a>
</g>
</g>
<!-- StoragePolicy&#45;&gt;SecuredStorage -->
<g id="edge33" class="edge">
<title>StoragePolicy&#45;&gt;SecuredStorage</title>
<path fill="none" stroke="black" d="M1117.04,-377.7C1124.68,-363.77 1135.34,-344.34 1142.97,-330.42"/>
</g>
<!-- PasswordProtection -->
<g id="node37" class="node">
<title>PasswordProtection</title>
<g id="a_node37"><a xlink:title="Cardinality: None">
<polygon fill="white" stroke="black" points="1363.5,-330.04 1227.5,-330.04 1227.5,-294.04 1363.5,-294.04 1363.5,-330.04"/>
<text text-anchor="middle" x="1295.5" y="-308.49" font-family="Arial Unicode MS, Arial" font-size="14.00">PasswordProtection</text>
</a>
</g>
</g>
<!-- StoragePolicy&#45;&gt;PasswordProtection -->
<g id="edge34" class="edge">
<title>StoragePolicy&#45;&gt;PasswordProtection</title>
<path fill="none" stroke="black" d="M1147.37,-377.7C1179.27,-363.77 1223.8,-344.34 1255.69,-330.42"/>
</g>
<!-- Remediation -->
<g id="node57" class="node">
<title>Remediation</title>
<g id="a_node57"><a xlink:title="Cardinality: None">
<polygon fill="white" stroke="black" points="1200.75,-252 1108.25,-252 1108.25,-216 1200.75,-216 1200.75,-252"/>
<text text-anchor="middle" x="1154.5" y="-230.45" font-family="Arial Unicode MS, Arial" font-size="14.00">Remediation</text>
</a>
</g>
</g>
<!-- SecuredStorage&#45;&gt;Remediation -->
<!-- SecuredStorage&#45;&gt;Remediation -->
<!-- Excel -->
<g id="node38" class="node">
<title>Excel</title>
<g id="a_node38"><a xlink:title="Cardinality: None">
<polygon fill="white" stroke="black" points="1435.5,-330.04 1381.5,-330.04 1381.5,-294.04 1435.5,-294.04 1435.5,-330.04"/>
<text text-anchor="middle" x="1408.5" y="-308.49" font-family="Arial Unicode MS, Arial" font-size="14.00">Excel</text>
</a>
</g>
</g>
<!-- DataAnalysisTooling&#45;&gt;Excel -->
<g id="edge36" class="edge">
<title>DataAnalysisTooling&#45;&gt;Excel</title>
<path fill="none" stroke="black" d="M1311.59,-377.7C1330.09,-365.35 1355.1,-348.67 1375.07,-335.34"/>
<ellipse fill="none" stroke="black" cx="1378.71" cy="-332.91" rx="4" ry="4"/>
</g>
<!-- Dedoose -->
<g id="node40" class="node">
<title>Dedoose</title>
<g id="a_node40"><a xlink:title="Cardinality: None">
<polygon fill="white" stroke="black" points="1523.5,-330.04 1453.5,-330.04 1453.5,-294.04 1523.5,-294.04 1523.5,-330.04"/>
<text text-anchor="middle" x="1488.5" y="-308.49" font-family="Arial Unicode MS, Arial" font-size="14.00">Dedoose</text>
</a>
</g>
</g>
<!-- DataAnalysisTooling&#45;&gt;Dedoose -->
<g id="edge37" class="edge">
<title>DataAnalysisTooling&#45;&gt;Dedoose</title>
<path fill="none" stroke="black" d="M1337.36,-377.72C1368.76,-366.74 1409.4,-351.7 1444.5,-336.07 1445.85,-335.47 1447.22,-334.84 1448.6,-334.2"/>
<ellipse fill="none" stroke="black" cx="1452.48" cy="-332.33" rx="4" ry="4"/>
</g>
<!-- Python -->
<g id="node41" class="node">
<title>Python</title>
<g id="a_node41"><a xlink:title="Cardinality: None">
<polygon fill="white" stroke="black" points="1599.5,-330.04 1541.5,-330.04 1541.5,-294.04 1599.5,-294.04 1599.5,-330.04"/>
<text text-anchor="middle" x="1570.5" y="-308.49" font-family="Arial Unicode MS, Arial" font-size="14.00">Python</text>
</a>
</g>
</g>
<!-- DataAnalysisTooling&#45;&gt;Python -->
<g id="edge38" class="edge">
<title>DataAnalysisTooling&#45;&gt;Python</title>
<path fill="none" stroke="black" d="M1343.61,-377.64C1350.63,-375.69 1357.71,-373.79 1364.5,-372.07 1438.54,-353.37 1461.53,-364.26 1532.5,-336.07 1533.88,-335.52 1535.27,-334.93 1536.65,-334.29"/>
<ellipse fill="none" stroke="black" cx="1540.49" cy="-332.36" rx="4" ry="4"/>
</g>
<!-- LocationAvailability -->
<g id="node42" class="node">
<title>LocationAvailability</title>
<g id="a_node42"><a xlink:title="Cardinality: None">
<polygon fill="#a7c7e7" stroke="black" points="1503.88,-414.11 1373.12,-414.11 1373.12,-378.11 1503.88,-378.11 1503.88,-414.11"/>
<text text-anchor="middle" x="1438.5" y="-392.56" font-family="Arial Unicode MS, Arial" font-size="14.00">LocationAvailability</text>
</a>
</g>
</g>
<!-- Location&#45;&gt;LocationAvailability -->
<g id="edge41" class="edge">
<title>Location&#45;&gt;LocationAvailability</title>
<path fill="none" stroke="black" d="M1438.5,-461.77C1438.5,-450.57 1438.5,-435.79 1438.5,-423.19"/>
<ellipse fill="black" stroke="black" cx="1438.5" cy="-418.99" rx="4" ry="4"/>
</g>
<!-- LocationAccessibility -->
<g id="node45" class="node">
<title>LocationAccessibility</title>
<g id="a_node45"><a xlink:title="Cardinality: None">
<polygon fill="white" stroke="black" points="1521.7,-388.68 1644.5,-372.07 1767.3,-388.68 1767.19,-415.55 1521.81,-415.55 1521.7,-388.68"/>
<text text-anchor="middle" x="1644.5" y="-392.56" font-family="Arial Unicode MS, Arial" font-size="14.00">LocationAccessibility</text>
</a>
</g>
</g>
<!-- Location&#45;&gt;LocationAccessibility -->
<g id="edge44" class="edge">
<title>Location&#45;&gt;LocationAccessibility</title>
<path fill="none" stroke="black" d="M1472.06,-465.81C1503.64,-453.23 1551.54,-434.15 1588.84,-419.28"/>
<ellipse fill="none" stroke="black" cx="1592.93" cy="-417.65" rx="4" ry="4"/>
</g>
<!-- Ramp -->
<g id="node44" class="node">
<title>Ramp</title>
<g id="a_node44"><a xlink:title="Cardinality: None">
<polygon fill="white" stroke="black" points="1671.5,-330.04 1617.5,-330.04 1617.5,-294.04 1671.5,-294.04 1671.5,-330.04"/>
<text text-anchor="middle" x="1644.5" y="-308.49" font-family="Arial Unicode MS, Arial" font-size="14.00">Ramp</text>
</a>
</g>
</g>
<!-- LocationAccessibility&#45;&gt;Ramp -->
<g id="edge42" class="edge">
<title>LocationAccessibility&#45;&gt;Ramp</title>
<path fill="none" stroke="black" d="M1644.5,-363.14C1644.5,-351.99 1644.5,-339.9 1644.5,-330.39"/>
<ellipse fill="none" stroke="black" cx="1644.5" cy="-367.31" rx="4" ry="4"/>
</g>
<!-- Elevator -->
<g id="node46" class="node">
<title>Elevator</title>
<g id="a_node46"><a xlink:title="Cardinality: None">
<polygon fill="white" stroke="black" points="1755.25,-330.04 1689.75,-330.04 1689.75,-294.04 1755.25,-294.04 1755.25,-330.04"/>
<text text-anchor="middle" x="1722.5" y="-308.49" font-family="Arial Unicode MS, Arial" font-size="14.00">Elevator</text>
</a>
</g>
</g>
<!-- LocationAccessibility&#45;&gt;Elevator -->
<g id="edge43" class="edge">
<title>LocationAccessibility&#45;&gt;Elevator</title>
<path fill="none" stroke="black" d="M1670.15,-368.12C1681.94,-355.71 1695.59,-341.35 1705.99,-330.41"/>
<ellipse fill="none" stroke="black" cx="1667.28" cy="-371.14" rx="4" ry="4"/>
</g>
<!-- Setup -->
<g id="node47" class="node">
<title>Setup</title>
<g id="a_node47"><a xlink:title="Cardinality: None">
<polygon fill="white" stroke="black" points="1477.5,-648.22 1423.5,-648.22 1423.5,-612.22 1477.5,-612.22 1477.5,-648.22"/>
<text text-anchor="middle" x="1450.5" y="-626.67" font-family="Arial Unicode MS, Arial" font-size="14.00">Setup</text>
</a>
</g>
</g>
<!-- Setup&#45;&gt;Experiment -->
<g id="edge46" class="edge">
<title>Setup&#45;&gt;Experiment</title>
<path fill="none" stroke="black" d="M1423.3,-624.99C1349.89,-613.6 1146.81,-582.08 1050.91,-567.19"/>
<ellipse fill="black" stroke="black" cx="1046.69" cy="-566.54" rx="4" ry="4"/>
</g>
<!-- Setup&#45;&gt;Remediation -->
<g id="edge65" class="edge">
<title>Setup&#45;&gt;Remediation</title>
<path fill="none" stroke="black" d="M1477.86,-629.85C1559.46,-630.17 1795.5,-619.19 1795.5,-481.18 1795.5,-481.18 1795.5,-481.18 1795.5,-395.11 1795.5,-345.55 1802.79,-319.46 1764.5,-288 1722.12,-253.17 1351.45,-240.05 1209.49,-236.27"/>
<ellipse fill="none" stroke="black" cx="1205.38" cy="-236.17" rx="4" ry="4"/>
</g>
<!-- SkippingQuestions -->
<g id="node48" class="node">
<title>SkippingQuestions</title>
<g id="a_node48"><a xlink:title="Cardinality: None">
<polygon fill="white" stroke="black" points="623.12,-36 493.88,-36 493.88,0 623.12,0 623.12,-36"/>
<text text-anchor="middle" x="558.5" y="-14.45" font-family="Arial Unicode MS, Arial" font-size="14.00">SkippingQuestions</text>
</a>
</g>
</g>
<!-- InterviewStrategy -->
<g id="node49" class="node">
<title>InterviewStrategy</title>
<g id="a_node49"><a xlink:title="Cardinality: None">
<polygon fill="white" stroke="black" points="737.62,-108 617.38,-108 617.38,-72 737.62,-72 737.62,-108"/>
<text text-anchor="middle" x="677.5" y="-86.45" font-family="Arial Unicode MS, Arial" font-size="14.00">InterviewStrategy</text>
</a>
</g>
</g>
<!-- InterviewStrategy&#45;&gt;SkippingQuestions -->
<g id="edge47" class="edge">
<title>InterviewStrategy&#45;&gt;SkippingQuestions</title>
<path fill="none" stroke="black" d="M647.78,-71.52C631.9,-62.18 612.21,-50.59 595.36,-40.68"/>
<ellipse fill="none" stroke="black" cx="591.72" cy="-38.54" rx="4" ry="4"/>
</g>
<!-- ParticipationRemediation -->
<g id="node50" class="node">
<title>ParticipationRemediation</title>
<g id="a_node50"><a xlink:title="Cardinality: None">
<polygon fill="white" stroke="black" points="1047.88,-180 881.12,-180 881.12,-144 1047.88,-144 1047.88,-180"/>
<text text-anchor="middle" x="964.5" y="-158.45" font-family="Arial Unicode MS, Arial" font-size="14.00">ParticipationRemediation</text>
</a>
</g>
</g>
<!-- ParticipationRemediation&#45;&gt;InterviewStrategy -->
<g id="edge48" class="edge">
<title>ParticipationRemediation&#45;&gt;InterviewStrategy</title>
<path fill="none" stroke="black" d="M892.82,-143.52C848.15,-132.62 790.96,-118.67 746.75,-107.89"/>
<ellipse fill="none" stroke="black" cx="742.46" cy="-106.85" rx="4" ry="4"/>
</g>
<!-- PeerPressure -->
<g id="node52" class="node">
<title>PeerPressure</title>
<g id="a_node52"><a xlink:title="Cardinality: None">
<polygon fill="white" stroke="black" points="922.75,-108 824.25,-108 824.25,-72 922.75,-72 922.75,-108"/>
<text text-anchor="middle" x="873.5" y="-86.45" font-family="Arial Unicode MS, Arial" font-size="14.00">PeerPressure</text>
</a>
</g>
</g>
<!-- ParticipationRemediation&#45;&gt;PeerPressure -->
<g id="edge51" class="edge">
<title>ParticipationRemediation&#45;&gt;PeerPressure</title>
<path fill="none" stroke="black" d="M942.01,-143.7C930.19,-134.61 915.57,-123.36 902.88,-113.6"/>
<ellipse fill="none" stroke="black" cx="899.62" cy="-111.09" rx="4" ry="4"/>
</g>
<!-- StressStrategy -->
<g id="node55" class="node">
<title>StressStrategy</title>
<g id="a_node55"><a xlink:title="Cardinality: None">
<polygon fill="white" stroke="black" points="1072.75,-108 968.25,-108 968.25,-72 1072.75,-72 1072.75,-108"/>
<text text-anchor="middle" x="1020.5" y="-86.45" font-family="Arial Unicode MS, Arial" font-size="14.00">StressStrategy</text>
</a>
</g>
</g>
<!-- ParticipationRemediation&#45;&gt;StressStrategy -->
<g id="edge54" class="edge">
<title>ParticipationRemediation&#45;&gt;StressStrategy</title>
<path fill="none" stroke="black" d="M978.34,-143.7C985.26,-135.05 993.74,-124.45 1001.28,-115.03"/>
<ellipse fill="none" stroke="black" cx="1004.01" cy="-111.62" rx="4" ry="4"/>
</g>
<!-- WithdrawAnyTime -->
<g id="node51" class="node">
<title>WithdrawAnyTime</title>
<g id="a_node51"><a xlink:title="Cardinality: None">
<polygon fill="white" stroke="black" points="768,-36 641,-36 641,0 768,0 768,-36"/>
<text text-anchor="middle" x="704.5" y="-14.45" font-family="Arial Unicode MS, Arial" font-size="14.00">WithdrawAnyTime</text>
</a>
</g>
</g>
<!-- PeerPressure&#45;&gt;WithdrawAnyTime -->
<g id="edge49" class="edge">
<title>PeerPressure&#45;&gt;WithdrawAnyTime</title>
<path fill="none" stroke="black" d="M831.29,-71.52C808.01,-61.88 778.97,-49.84 754.55,-39.73"/>
<ellipse fill="none" stroke="black" cx="750.62" cy="-38.1" rx="4" ry="4"/>
</g>
<!-- AdvertiseParticipationRate -->
<g id="node53" class="node">
<title>AdvertiseParticipationRate</title>
<g id="a_node53"><a xlink:title="Cardinality: None">
<polygon fill="white" stroke="black" points="961,-36 786,-36 786,0 961,0 961,-36"/>
<text text-anchor="middle" x="873.5" y="-14.45" font-family="Arial Unicode MS, Arial" font-size="14.00">AdvertiseParticipationRate</text>
</a>
</g>
</g>
<!-- PeerPressure&#45;&gt;AdvertiseParticipationRate -->
<g id="edge50" class="edge">
<title>PeerPressure&#45;&gt;AdvertiseParticipationRate</title>
<path fill="none" stroke="black" d="M873.5,-71.7C873.5,-63.64 873.5,-53.89 873.5,-44.98"/>
<ellipse fill="none" stroke="black" cx="873.5" cy="-40.6" rx="4" ry="4"/>
</g>
<!-- PeerBuddy -->
<g id="node54" class="node">
<title>PeerBuddy</title>
<g id="a_node54"><a xlink:title="Cardinality: None">
<polygon fill="#a7c7e7" stroke="black" points="1061.88,-36 979.12,-36 979.12,0 1061.88,0 1061.88,-36"/>
<text text-anchor="middle" x="1020.5" y="-14.45" font-family="Arial Unicode MS, Arial" font-size="14.00">PeerBuddy</text>
</a>
</g>
</g>
<!-- StressStrategy&#45;&gt;PeerBuddy -->
<g id="edge52" class="edge">
<title>StressStrategy&#45;&gt;PeerBuddy</title>
<path fill="none" stroke="black" d="M1020.5,-71.7C1020.5,-63.64 1020.5,-53.89 1020.5,-44.98"/>
<ellipse fill="none" stroke="black" cx="1020.5" cy="-40.6" rx="4" ry="4"/>
</g>
<!-- TrainingSession -->
<g id="node56" class="node">
<title>TrainingSession</title>
<g id="a_node56"><a xlink:title="Cardinality: None">
<polygon fill="white" stroke="black" points="1192.88,-36 1080.12,-36 1080.12,0 1192.88,0 1192.88,-36"/>
<text text-anchor="middle" x="1136.5" y="-14.45" font-family="Arial Unicode MS, Arial" font-size="14.00">TrainingSession</text>
</a>
</g>
</g>
<!-- StressStrategy&#45;&gt;TrainingSession -->
<g id="edge53" class="edge">
<title>StressStrategy&#45;&gt;TrainingSession</title>
<path fill="none" stroke="black" d="M1049.47,-71.52C1064.95,-62.18 1084.15,-50.59 1100.57,-40.68"/>
<ellipse fill="none" stroke="black" cx="1104.04" cy="-38.59" rx="4" ry="4"/>
</g>
<!-- Remediation&#45;&gt;ParticipationRemediation -->
<g id="edge55" class="edge">
<title>Remediation&#45;&gt;ParticipationRemediation</title>
<path fill="none" stroke="black" d="M1108.02,-215.88C1081.42,-206.08 1047.89,-193.72 1019.93,-183.42"/>
<ellipse fill="none" stroke="black" cx="1016.04" cy="-181.99" rx="4" ry="4"/>
</g>
<!-- SensorRemediation -->
<g id="node61" class="node">
<title>SensorRemediation</title>
<g id="a_node61"><a xlink:title="Cardinality: None">
<polygon fill="white" stroke="black" points="1222.12,-180 1086.88,-180 1086.88,-144 1222.12,-144 1222.12,-180"/>
<text text-anchor="middle" x="1154.5" y="-158.45" font-family="Arial Unicode MS, Arial" font-size="14.00">SensorRemediation</text>
</a>
</g>
</g>
<!-- Remediation&#45;&gt;SensorRemediation -->
<g id="edge60" class="edge">
<title>Remediation&#45;&gt;SensorRemediation</title>
<path fill="none" stroke="black" d="M1154.5,-215.7C1154.5,-207.64 1154.5,-197.89 1154.5,-188.98"/>
<ellipse fill="none" stroke="black" cx="1154.5" cy="-184.6" rx="4" ry="4"/>
</g>
<!-- AccessibilityRemediation -->
<g id="node64" class="node">
<title>AccessibilityRemediation</title>
<g id="a_node64"><a xlink:title="Cardinality: None">
<polygon fill="white" stroke="black" points="1407.5,-180 1241.5,-180 1241.5,-144 1407.5,-144 1407.5,-180"/>
<text text-anchor="middle" x="1324.5" y="-158.45" font-family="Arial Unicode MS, Arial" font-size="14.00">AccessibilityRemediation</text>
</a>
</g>
</g>
<!-- Remediation&#45;&gt;AccessibilityRemediation -->
<g id="edge62" class="edge">
<title>Remediation&#45;&gt;AccessibilityRemediation</title>
<path fill="none" stroke="black" d="M1196.96,-215.52C1220.37,-205.88 1249.59,-193.84 1274.15,-183.73"/>
<ellipse fill="none" stroke="black" cx="1278.13" cy="-182.1" rx="4" ry="4"/>
</g>
<!-- OutreachRemediation -->
<g id="node66" class="node">
<title>OutreachRemediation</title>
<g id="a_node66"><a xlink:title="Cardinality: None">
<polygon fill="white" stroke="black" points="1573.88,-180 1425.12,-180 1425.12,-144 1573.88,-144 1573.88,-180"/>
<text text-anchor="middle" x="1499.5" y="-158.45" font-family="Arial Unicode MS, Arial" font-size="14.00">OutreachRemediation</text>
</a>
</g>
</g>
<!-- Remediation&#45;&gt;OutreachRemediation -->
<g id="edge64" class="edge">
<title>Remediation&#45;&gt;OutreachRemediation</title>
<path fill="none" stroke="black" d="M1200.89,-223.65C1251.52,-213.44 1335.22,-196.54 1416.48,-180"/>
<ellipse fill="none" stroke="black" cx="1420.44" cy="-179.2" rx="4" ry="4"/>
</g>
<!-- UseLotion -->
<g id="node58" class="node">
<title>UseLotion</title>
<g id="a_node58"><a xlink:title="Cardinality: None">
<polygon fill="white" stroke="black" points="1287.88,-36 1211.12,-36 1211.12,0 1287.88,0 1287.88,-36"/>
<text text-anchor="middle" x="1249.5" y="-14.45" font-family="Arial Unicode MS, Arial" font-size="14.00">UseLotion</text>
</a>
</g>
</g>
<!-- DrySkin -->
<g id="node59" class="node">
<title>DrySkin</title>
<g id="a_node59"><a xlink:title="Cardinality: None">
<polygon fill="white" stroke="black" points="1173.12,-108 1109.88,-108 1109.88,-72 1173.12,-72 1173.12,-108"/>
<text text-anchor="middle" x="1141.5" y="-86.45" font-family="Arial Unicode MS, Arial" font-size="14.00">DrySkin</text>
</a>
</g>
</g>
<!-- DrySkin&#45;&gt;UseLotion -->
<g id="edge56" class="edge">
<title>DrySkin&#45;&gt;UseLotion</title>
<path fill="none" stroke="black" d="M1168.47,-71.52C1182.76,-62.26 1200.44,-50.8 1215.63,-40.95"/>
<ellipse fill="none" stroke="black" cx="1219.09" cy="-38.71" rx="4" ry="4"/>
</g>
<!-- UseSpecificSensors -->
<g id="node60" class="node">
<title>UseSpecificSensors</title>
<g id="a_node60"><a xlink:title="Cardinality: None">
<polygon fill="white" stroke="black" points="1442.88,-36 1306.12,-36 1306.12,0 1442.88,0 1442.88,-36"/>
<text text-anchor="middle" x="1374.5" y="-14.45" font-family="Arial Unicode MS, Arial" font-size="14.00">UseSpecificSensors</text>
</a>
</g>
</g>
<!-- DrySkin&#45;&gt;UseSpecificSensors -->
<g id="edge57" class="edge">
<title>DrySkin&#45;&gt;UseSpecificSensors</title>
<path fill="none" stroke="black" d="M1173.58,-75.26C1176.58,-74.11 1179.59,-73 1182.5,-72 1219.89,-59.14 1262.18,-47.2 1297.53,-37.92"/>
<ellipse fill="none" stroke="black" cx="1301.54" cy="-36.87" rx="4" ry="4"/>
</g>
<!-- SensorRemediation&#45;&gt;DrySkin -->
<g id="edge58" class="edge">
<title>SensorRemediation&#45;&gt;DrySkin</title>
<path fill="none" stroke="black" d="M1151.29,-143.7C1149.78,-135.56 1147.94,-125.69 1146.27,-116.7"/>
<ellipse fill="none" stroke="black" cx="1145.5" cy="-112.53" rx="4" ry="4"/>
</g>
<!-- ScaryEquipment -->
<g id="node62" class="node">
<title>ScaryEquipment</title>
<g id="a_node62"><a xlink:title="Cardinality: None">
<polygon fill="white" stroke="black" points="1307.38,-108 1191.62,-108 1191.62,-72 1307.38,-72 1307.38,-108"/>
<text text-anchor="middle" x="1249.5" y="-86.45" font-family="Arial Unicode MS, Arial" font-size="14.00">ScaryEquipment</text>
</a>
</g>
</g>
<!-- SensorRemediation&#45;&gt;ScaryEquipment -->
<g id="edge59" class="edge">
<title>SensorRemediation&#45;&gt;ScaryEquipment</title>
<path fill="none" stroke="black" d="M1177.98,-143.7C1190.32,-134.61 1205.58,-123.36 1218.83,-113.6"/>
<ellipse fill="none" stroke="black" cx="1222.33" cy="-111.02" rx="4" ry="4"/>
</g>
<!-- StepLadder -->
<g id="node63" class="node">
<title>StepLadder</title>
<g id="a_node63"><a xlink:title="Cardinality: None">
<polygon fill="white" stroke="black" points="1411.38,-108 1325.62,-108 1325.62,-72 1411.38,-72 1411.38,-108"/>
<text text-anchor="middle" x="1368.5" y="-86.45" font-family="Arial Unicode MS, Arial" font-size="14.00">StepLadder</text>
</a>
</g>
</g>
<!-- AccessibilityRemediation&#45;&gt;StepLadder -->
<g id="edge61" class="edge">
<title>AccessibilityRemediation&#45;&gt;StepLadder</title>
<path fill="none" stroke="black" d="M1335.38,-143.7C1340.7,-135.22 1347.21,-124.86 1353.05,-115.58"/>
<ellipse fill="none" stroke="black" cx="1355.35" cy="-111.91" rx="4" ry="4"/>
</g>
<!-- UseMUXLMobileLab -->
<g id="node65" class="node">
<title>UseMUXLMobileLab</title>
<g id="a_node65"><a xlink:title="Cardinality: None">
<polygon fill="white" stroke="black" points="1571.12,-108 1429.88,-108 1429.88,-72 1571.12,-72 1571.12,-108"/>
<text text-anchor="middle" x="1500.5" y="-86.45" font-family="Arial Unicode MS, Arial" font-size="14.00">UseMUXLMobileLab</text>
</a>
</g>
</g>
<!-- OutreachRemediation&#45;&gt;UseMUXLMobileLab -->
<g id="edge63" class="edge">
<title>OutreachRemediation&#45;&gt;UseMUXLMobileLab</title>
<path fill="none" stroke="black" d="M1499.75,-143.7C1499.86,-135.64 1500,-125.89 1500.13,-116.98"/>
<ellipse fill="none" stroke="black" cx="1500.19" cy="-112.6" rx="4" ry="4"/>
</g>
</g>
</svg>
