<?xml version="1.0" encoding="UTF-8" standalone="no"?>
<!DOCTYPE svg PUBLIC "-//W3C//DTD SVG 1.1//EN"
 "http://www.w3.org/Graphics/SVG/1.1/DTD/svg11.dtd">
<!-- Generated by graphviz version 12.2.1 (20241206.2353)
 -->
<!-- Title: FeatureModel Pages: 1 -->
<svg width="1615pt" height="739pt"
 viewBox="0.00 0.00 1614.70 739.49" xmlns="http://www.w3.org/2000/svg" xmlns:xlink="http://www.w3.org/1999/xlink">
<g id="graph0" class="graph" transform="scale(1 1) rotate(0) translate(3.6 735.89)">
<title>FeatureModel</title>
<polygon fill="white" stroke="none" points="-3.6,3.6 -3.6,-735.89 1611.1,-735.89 1611.1,3.6 -3.6,3.6"/>
<!-- ReuseDirectory -->
<g id="node1" class="node">
<title>ReuseDirectory</title>
<g id="a_node1"><a xlink:title="Cardinality: None">
<polygon fill="#a7c7e7" stroke="black" points="109,-426.18 0,-426.18 0,-390.18 109,-390.18 109,-426.18"/>
<text text-anchor="middle" x="54.5" y="-404.63" font-family="Arial Unicode MS, Arial" font-size="14.00">ReuseDirectory</text>
</a>
</g>
</g>
<!-- Phone -->
<g id="node2" class="node">
<title>Phone</title>
<g id="a_node2"><a xlink:title="Cardinality: None">
<polygon fill="white" stroke="black" points="121.43,-484.82 169.5,-468.22 217.57,-484.82 217.53,-511.7 121.47,-511.7 121.43,-484.82"/>
<text text-anchor="middle" x="169.5" y="-488.7" font-family="Arial Unicode MS, Arial" font-size="14.00">Phone</text>
</a>
</g>
</g>
<!-- Phone&#45;&gt;ReuseDirectory -->
<g id="edge1" class="edge">
<title>Phone&#45;&gt;ReuseDirectory</title>
<path fill="none" stroke="black" d="M140.1,-470.27C121.18,-456.77 96.87,-439.42 78.99,-426.66"/>
<ellipse fill="none" stroke="black" cx="143.66" cy="-472.81" rx="4" ry="4"/>
</g>
<!-- BuildDirectory -->
<g id="node3" class="node">
<title>BuildDirectory</title>
<g id="a_node3"><a xlink:title="Cardinality: None">
<polygon fill="white" stroke="black" points="227.5,-426.18 127.5,-426.18 127.5,-390.18 227.5,-390.18 227.5,-426.18"/>
<text text-anchor="middle" x="177.5" y="-404.63" font-family="Arial Unicode MS, Arial" font-size="14.00">BuildDirectory</text>
</a>
</g>
</g>
<!-- Phone&#45;&gt;BuildDirectory -->
<g id="edge2" class="edge">
<title>Phone&#45;&gt;BuildDirectory</title>
<path fill="none" stroke="black" d="M172.54,-460.05C173.65,-448.73 174.85,-436.35 175.8,-426.63"/>
<ellipse fill="none" stroke="black" cx="172.12" cy="-464.35" rx="4" ry="4"/>
</g>
<!-- ResearchMethod -->
<g id="node10" class="node">
<title>ResearchMethod</title>
<g id="a_node10"><a xlink:title="Cardinality: None">
<polygon fill="white" stroke="black" points="73.05,-316.68 177.5,-300.07 281.95,-316.68 281.85,-343.55 73.15,-343.55 73.05,-316.68"/>
<text text-anchor="middle" x="177.5" y="-320.56" font-family="Arial Unicode MS, Arial" font-size="14.00">ResearchMethod</text>
</a>
</g>
</g>
<!-- BuildDirectory&#45;&gt;ResearchMethod -->
<!-- RecruitmentStrategy -->
<g id="node4" class="node">
<title>RecruitmentStrategy</title>
<g id="a_node4"><a xlink:title="Cardinality: None">
<polygon fill="white" stroke="black" points="348.38,-588.29 208.62,-588.29 208.62,-552.29 348.38,-552.29 348.38,-588.29"/>
<text text-anchor="middle" x="278.5" y="-566.74" font-family="Arial Unicode MS, Arial" font-size="14.00">RecruitmentStrategy</text>
</a>
</g>
</g>
<!-- RecruitmentStrategy&#45;&gt;Phone -->
<g id="edge3" class="edge">
<title>RecruitmentStrategy&#45;&gt;Phone</title>
<path fill="none" stroke="black" d="M253.49,-551.84C238.67,-541.5 219.68,-528.25 203.5,-516.97"/>
<ellipse fill="none" stroke="black" cx="199.99" cy="-514.52" rx="4" ry="4"/>
</g>
<!-- Poster -->
<g id="node5" class="node">
<title>Poster</title>
<g id="a_node5"><a xlink:title="Cardinality: None">
<polygon fill="#a7c7e7" stroke="black" points="291,-510.25 236,-510.25 236,-474.25 291,-474.25 291,-510.25"/>
<text text-anchor="middle" x="263.5" y="-488.7" font-family="Arial Unicode MS, Arial" font-size="14.00">Poster</text>
</a>
</g>
</g>
<!-- RecruitmentStrategy&#45;&gt;Poster -->
<g id="edge4" class="edge">
<title>RecruitmentStrategy&#45;&gt;Poster</title>
<path fill="none" stroke="black" d="M275.1,-552.03C273.19,-542.38 270.78,-530.15 268.65,-519.35"/>
<ellipse fill="none" stroke="black" cx="267.81" cy="-515.11" rx="4" ry="4"/>
</g>
<!-- Chat -->
<g id="node6" class="node">
<title>Chat</title>
<g id="a_node6"><a xlink:title="Cardinality: None">
<polygon fill="#a7c7e7" stroke="black" points="363.5,-510.25 309.5,-510.25 309.5,-474.25 363.5,-474.25 363.5,-510.25"/>
<text text-anchor="middle" x="336.5" y="-488.7" font-family="Arial Unicode MS, Arial" font-size="14.00">Chat</text>
</a>
</g>
</g>
<!-- RecruitmentStrategy&#45;&gt;Chat -->
<g id="edge5" class="edge">
<title>RecruitmentStrategy&#45;&gt;Chat</title>
<path fill="none" stroke="black" d="M291.66,-552.03C299.39,-541.9 309.29,-528.92 317.82,-517.74"/>
<ellipse fill="none" stroke="black" cx="320.46" cy="-514.28" rx="4" ry="4"/>
</g>
<!-- Experiment -->
<g id="node7" class="node">
<title>Experiment</title>
<g id="a_node7"><a xlink:title="Cardinality: None">
<polygon fill="white" stroke="black" points="1014,-660.29 929,-660.29 929,-624.29 1014,-624.29 1014,-660.29"/>
<text text-anchor="middle" x="971.5" y="-638.74" font-family="Arial Unicode MS, Arial" font-size="14.00">Experiment</text>
</a>
</g>
</g>
<!-- Experiment&#45;&gt;RecruitmentStrategy -->
<g id="edge6" class="edge">
<title>Experiment&#45;&gt;RecruitmentStrategy</title>
<path fill="none" stroke="black" d="M928.51,-638.65C830.5,-632.38 583.09,-615.07 377.5,-588.29 370.93,-587.43 364.14,-586.46 357.32,-585.42"/>
<ellipse fill="black" stroke="black" cx="353.15" cy="-584.76" rx="4" ry="4"/>
</g>
<!-- Experiment&#45;&gt;ResearchMethod -->
<g id="edge10" class="edge">
<title>Experiment&#45;&gt;ResearchMethod</title>
<path fill="none" stroke="black" d="M928.81,-633.78C845.28,-618.25 655.3,-578.72 505.5,-516.29 391.67,-468.84 269.03,-388.63 211.25,-348.89"/>
<ellipse fill="black" stroke="black" cx="207.57" cy="-346.35" rx="4" ry="4"/>
</g>
<!-- DataCollection -->
<g id="node28" class="node">
<title>DataCollection</title>
<g id="a_node28"><a xlink:title="Cardinality: None">
<polygon fill="white" stroke="black" points="1023.38,-588.29 919.62,-588.29 919.62,-552.29 1023.38,-552.29 1023.38,-588.29"/>
<text text-anchor="middle" x="971.5" y="-566.74" font-family="Arial Unicode MS, Arial" font-size="14.00">DataCollection</text>
</a>
</g>
</g>
<!-- Experiment&#45;&gt;DataCollection -->
<g id="edge40" class="edge">
<title>Experiment&#45;&gt;DataCollection</title>
<path fill="none" stroke="black" d="M971.5,-623.98C971.5,-615.93 971.5,-606.18 971.5,-597.27"/>
<ellipse fill="black" stroke="black" cx="971.5" cy="-592.89" rx="4" ry="4"/>
</g>
<!-- Location -->
<g id="node43" class="node">
<title>Location</title>
<g id="a_node43"><a xlink:title="Cardinality: None">
<polygon fill="white" stroke="black" points="1397,-588.29 1330,-588.29 1330,-552.29 1397,-552.29 1397,-588.29"/>
<text text-anchor="middle" x="1363.5" y="-566.74" font-family="Arial Unicode MS, Arial" font-size="14.00">Location</text>
</a>
</g>
</g>
<!-- Experiment&#45;&gt;Location -->
<g id="edge45" class="edge">
<title>Experiment&#45;&gt;Location</title>
<path fill="none" stroke="black" d="M1014.2,-633.66C1089.61,-620.2 1245.53,-592.35 1320.89,-578.9"/>
<ellipse fill="none" stroke="black" cx="1325.24" cy="-578.12" rx="4" ry="4"/>
</g>
<!-- ActionResearch -->
<g id="node8" class="node">
<title>ActionResearch</title>
<g id="a_node8"><a xlink:title="Cardinality: None">
<polygon fill="white" stroke="black" points="124.12,-180 12.88,-180 12.88,-144 124.12,-144 124.12,-180"/>
<text text-anchor="middle" x="68.5" y="-158.45" font-family="Arial Unicode MS, Arial" font-size="14.00">ActionResearch</text>
</a>
</g>
</g>
<!-- Iterative -->
<g id="node9" class="node">
<title>Iterative</title>
<g id="a_node9"><a xlink:title="Cardinality: None">
<polygon fill="white" stroke="black" points="12.56,-232.61 68.5,-216 124.44,-232.61 124.39,-259.48 12.61,-259.48 12.56,-232.61"/>
<text text-anchor="middle" x="68.5" y="-236.49" font-family="Arial Unicode MS, Arial" font-size="14.00">Iterative</text>
</a>
</g>
</g>
<!-- Iterative&#45;&gt;ActionResearch -->
<g id="edge7" class="edge">
<title>Iterative&#45;&gt;ActionResearch</title>
<path fill="none" stroke="black" d="M68.5,-206.84C68.5,-197.64 68.5,-187.96 68.5,-180.05"/>
<ellipse fill="none" stroke="black" cx="68.5" cy="-211.31" rx="4" ry="4"/>
</g>
<!-- ResearchMethod&#45;&gt;Iterative -->
<g id="edge8" class="edge">
<title>ResearchMethod&#45;&gt;Iterative</title>
<path fill="none" stroke="black" d="M145.09,-298.71C128.59,-286.28 108.83,-271.41 93.52,-259.87"/>
<ellipse fill="none" stroke="black" cx="148.35" cy="-301.16" rx="4" ry="4"/>
</g>
<!-- OneShot -->
<g id="node11" class="node">
<title>OneShot</title>
<g id="a_node11"><a xlink:title="Cardinality: None">
<polygon fill="white" stroke="black" points="212.5,-258.04 142.5,-258.04 142.5,-222.04 212.5,-222.04 212.5,-258.04"/>
<text text-anchor="middle" x="177.5" y="-236.49" font-family="Arial Unicode MS, Arial" font-size="14.00">OneShot</text>
</a>
</g>
</g>
<!-- ResearchMethod&#45;&gt;OneShot -->
<g id="edge9" class="edge">
<title>ResearchMethod&#45;&gt;OneShot</title>
<path fill="none" stroke="black" d="M177.5,-291.14C177.5,-279.99 177.5,-267.9 177.5,-258.39"/>
<ellipse fill="none" stroke="black" cx="177.5" cy="-295.31" rx="4" ry="4"/>
</g>
<!-- Survey -->
<g id="node12" class="node">
<title>Survey</title>
<g id="a_node12"><a xlink:title="Cardinality: None">
<polygon fill="white" stroke="black" points="386.5,-342.11 328.5,-342.11 328.5,-306.11 386.5,-306.11 386.5,-342.11"/>
<text text-anchor="middle" x="357.5" y="-320.56" font-family="Arial Unicode MS, Arial" font-size="14.00">Survey</text>
</a>
</g>
</g>
<!-- Quantitative -->
<g id="node13" class="node">
<title>Quantitative</title>
<g id="a_node13"><a xlink:title="Cardinality: None">
<polygon fill="white" stroke="black" points="507.88,-426.18 419.12,-426.18 419.12,-390.18 507.88,-390.18 507.88,-426.18"/>
<text text-anchor="middle" x="463.5" y="-404.63" font-family="Arial Unicode MS, Arial" font-size="14.00">Quantitative</text>
</a>
</g>
</g>
<!-- Quantitative&#45;&gt;Survey -->
<g id="edge11" class="edge">
<title>Quantitative&#45;&gt;Survey</title>
<path fill="none" stroke="black" d="M441.02,-389.77C425.28,-377.59 404.09,-361.18 387,-347.95"/>
<ellipse fill="none" stroke="black" cx="383.51" cy="-345.24" rx="4" ry="4"/>
</g>
<!-- UsingSensors -->
<g id="node15" class="node">
<title>UsingSensors</title>
<g id="a_node15"><a xlink:title="Cardinality: None">
<polygon fill="white" stroke="black" points="504.5,-342.11 404.5,-342.11 404.5,-306.11 504.5,-306.11 504.5,-342.11"/>
<text text-anchor="middle" x="454.5" y="-320.56" font-family="Arial Unicode MS, Arial" font-size="14.00">UsingSensors</text>
</a>
</g>
</g>
<!-- Quantitative&#45;&gt;UsingSensors -->
<g id="edge18" class="edge">
<title>Quantitative&#45;&gt;UsingSensors</title>
<path fill="none" stroke="black" d="M461.59,-389.77C460.36,-378.57 458.74,-363.79 457.36,-351.19"/>
<ellipse fill="none" stroke="black" cx="456.9" cy="-346.96" rx="4" ry="4"/>
</g>
<!-- EyeTracking -->
<g id="node14" class="node">
<title>EyeTracking</title>
<g id="a_node14"><a xlink:title="Cardinality: None">
<polygon fill="white" stroke="black" points="322,-258.04 231,-258.04 231,-222.04 322,-222.04 322,-258.04"/>
<text text-anchor="middle" x="276.5" y="-236.49" font-family="Arial Unicode MS, Arial" font-size="14.00">EyeTracking</text>
</a>
</g>
</g>
<!-- EEG -->
<g id="node16" class="node">
<title>EEG</title>
<g id="a_node16"><a xlink:title="Cardinality: None">
<polygon fill="white" stroke="black" points="360.5,-180 306.5,-180 306.5,-144 360.5,-144 360.5,-180"/>
<text text-anchor="middle" x="333.5" y="-158.45" font-family="Arial Unicode MS, Arial" font-size="14.00">EEG</text>
</a>
</g>
</g>
<!-- EyeTracking&#45;&gt;EEG -->
<!-- UsingSensors&#45;&gt;EyeTracking -->
<g id="edge12" class="edge">
<title>UsingSensors&#45;&gt;EyeTracking</title>
<path fill="none" stroke="black" d="M416.75,-305.7C389.14,-292.97 351.54,-275.64 322.23,-262.12"/>
<ellipse fill="none" stroke="black" cx="318.28" cy="-260.3" rx="4" ry="4"/>
</g>
<!-- UsingSensors&#45;&gt;EEG -->
<g id="edge13" class="edge">
<title>UsingSensors&#45;&gt;EEG</title>
<path fill="none" stroke="black" d="M423.1,-305.69C406.81,-295.36 387.63,-280.98 374.5,-264.07 357.02,-241.56 345.92,-210.59 339.75,-188.88"/>
<ellipse fill="none" stroke="black" cx="338.57" cy="-184.54" rx="4" ry="4"/>
</g>
<!-- Respiration -->
<g id="node17" class="node">
<title>Respiration</title>
<g id="a_node17"><a xlink:title="Cardinality: None">
<polygon fill="white" stroke="black" points="394.62,-108 310.38,-108 310.38,-72 394.62,-72 394.62,-108"/>
<text text-anchor="middle" x="352.5" y="-86.45" font-family="Arial Unicode MS, Arial" font-size="14.00">Respiration</text>
</a>
</g>
</g>
<!-- UsingSensors&#45;&gt;Respiration -->
<g id="edge14" class="edge">
<title>UsingSensors&#45;&gt;Respiration</title>
<path fill="none" stroke="black" d="M437.82,-305.72C427.87,-294.55 415.63,-279.33 407.5,-264.07 381.18,-214.67 386.49,-197.33 369.5,-144 366.67,-135.12 363.56,-125.4 360.78,-116.74"/>
<ellipse fill="none" stroke="black" cx="359.41" cy="-112.46" rx="4" ry="4"/>
</g>
<!-- HeartRate -->
<g id="node18" class="node">
<title>HeartRate</title>
<g id="a_node18"><a xlink:title="Cardinality: None">
<polygon fill="white" stroke="black" points="494.25,-258.04 416.75,-258.04 416.75,-222.04 494.25,-222.04 494.25,-258.04"/>
<text text-anchor="middle" x="455.5" y="-236.49" font-family="Arial Unicode MS, Arial" font-size="14.00">HeartRate</text>
</a>
</g>
</g>
<!-- UsingSensors&#45;&gt;HeartRate -->
<g id="edge15" class="edge">
<title>UsingSensors&#45;&gt;HeartRate</title>
<path fill="none" stroke="black" d="M454.71,-305.7C454.85,-294.49 455.03,-279.72 455.18,-267.12"/>
<ellipse fill="none" stroke="black" cx="455.23" cy="-262.92" rx="4" ry="4"/>
</g>
<!-- GalvanicSkinResponse -->
<g id="node19" class="node">
<title>GalvanicSkinResponse</title>
<g id="a_node19"><a xlink:title="Cardinality: None">
<polygon fill="white" stroke="black" points="572.62,-180 416.38,-180 416.38,-144 572.62,-144 572.62,-180"/>
<text text-anchor="middle" x="494.5" y="-158.45" font-family="Arial Unicode MS, Arial" font-size="14.00">GalvanicSkinResponse</text>
</a>
</g>
</g>
<!-- UsingSensors&#45;&gt;GalvanicSkinResponse -->
<g id="edge16" class="edge">
<title>UsingSensors&#45;&gt;GalvanicSkinResponse</title>
<path fill="none" stroke="black" d="M474.66,-305.62C485.46,-294.87 497.71,-280.11 503.5,-264.07 512.3,-239.68 508.01,-209.92 502.76,-189.03"/>
<ellipse fill="none" stroke="black" cx="501.59" cy="-184.72" rx="4" ry="4"/>
</g>
<!-- Electromyography -->
<g id="node20" class="node">
<title>Electromyography</title>
<g id="a_node20"><a xlink:title="Cardinality: None">
<polygon fill="white" stroke="black" points="557.25,-108 431.75,-108 431.75,-72 557.25,-72 557.25,-108"/>
<text text-anchor="middle" x="494.5" y="-86.45" font-family="Arial Unicode MS, Arial" font-size="14.00">Electromyography</text>
</a>
</g>
</g>
<!-- UsingSensors&#45;&gt;Electromyography -->
<g id="edge17" class="edge">
<title>UsingSensors&#45;&gt;Electromyography</title>
<path fill="none" stroke="black" d="M479.21,-305.8C510.8,-281.86 563.55,-235.29 581.5,-180 586.44,-164.78 589.34,-157.95 581.5,-144 574.11,-130.85 562,-120.58 549.12,-112.73"/>
<ellipse fill="none" stroke="black" cx="545.39" cy="-110.61" rx="4" ry="4"/>
</g>
<!-- EEG&#45;&gt;Respiration -->
<!-- HeartRate&#45;&gt;GalvanicSkinResponse -->
<!-- GalvanicSkinResponse&#45;&gt;Electromyography -->
<!-- Approach -->
<g id="node21" class="node">
<title>Approach</title>
<g id="a_node21"><a xlink:title="Cardinality: None">
<polygon fill="white" stroke="black" points="514.04,-484.82 578.5,-468.22 642.96,-484.82 642.9,-511.7 514.1,-511.7 514.04,-484.82"/>
<text text-anchor="middle" x="578.5" y="-488.7" font-family="Arial Unicode MS, Arial" font-size="14.00">Approach</text>
</a>
</g>
</g>
<!-- Approach&#45;&gt;Quantitative -->
<g id="edge19" class="edge">
<title>Approach&#45;&gt;Quantitative</title>
<path fill="none" stroke="black" d="M547.24,-468.94C528.6,-455.64 505.27,-438.99 487.97,-426.64"/>
<ellipse fill="none" stroke="black" cx="550.73" cy="-471.43" rx="4" ry="4"/>
</g>
<!-- Qualitative -->
<g id="node23" class="node">
<title>Qualitative</title>
<g id="a_node23"><a xlink:title="Cardinality: None">
<polygon fill="white" stroke="black" points="618.75,-426.18 538.25,-426.18 538.25,-390.18 618.75,-390.18 618.75,-426.18"/>
<text text-anchor="middle" x="578.5" y="-404.63" font-family="Arial Unicode MS, Arial" font-size="14.00">Qualitative</text>
</a>
</g>
</g>
<!-- Approach&#45;&gt;Qualitative -->
<g id="edge25" class="edge">
<title>Approach&#45;&gt;Qualitative</title>
<path fill="none" stroke="black" d="M578.5,-459.28C578.5,-448.13 578.5,-436.04 578.5,-426.53"/>
<ellipse fill="none" stroke="black" cx="578.5" cy="-463.45" rx="4" ry="4"/>
</g>
<!-- Observation -->
<g id="node22" class="node">
<title>Observation</title>
<g id="a_node22"><a xlink:title="Cardinality: None">
<polygon fill="white" stroke="black" points="612.25,-342.11 522.75,-342.11 522.75,-306.11 612.25,-306.11 612.25,-342.11"/>
<text text-anchor="middle" x="567.5" y="-320.56" font-family="Arial Unicode MS, Arial" font-size="14.00">Observation</text>
</a>
</g>
</g>
<!-- Qualitative&#45;&gt;Observation -->
<g id="edge20" class="edge">
<title>Qualitative&#45;&gt;Observation</title>
<path fill="none" stroke="black" d="M576.17,-389.77C574.67,-378.57 572.68,-363.79 571,-351.19"/>
<ellipse fill="none" stroke="black" cx="570.43" cy="-346.95" rx="4" ry="4"/>
</g>
<!-- Interviews -->
<g id="node25" class="node">
<title>Interviews</title>
<g id="a_node25"><a xlink:title="Cardinality: None">
<polygon fill="white" stroke="black" points="706.88,-342.11 630.12,-342.11 630.12,-306.11 706.88,-306.11 706.88,-342.11"/>
<text text-anchor="middle" x="668.5" y="-320.56" font-family="Arial Unicode MS, Arial" font-size="14.00">Interviews</text>
</a>
</g>
</g>
<!-- Qualitative&#45;&gt;Interviews -->
<g id="edge24" class="edge">
<title>Qualitative&#45;&gt;Interviews</title>
<path fill="none" stroke="black" d="M597.59,-389.77C610.83,-377.7 628.62,-361.47 643.07,-348.3"/>
<ellipse fill="none" stroke="black" cx="646.12" cy="-345.52" rx="4" ry="4"/>
</g>
<!-- Structured -->
<g id="node24" class="node">
<title>Structured</title>
<g id="a_node24"><a xlink:title="Cardinality: None">
<polygon fill="white" stroke="black" points="706.62,-258.04 628.38,-258.04 628.38,-222.04 706.62,-222.04 706.62,-258.04"/>
<text text-anchor="middle" x="667.5" y="-236.49" font-family="Arial Unicode MS, Arial" font-size="14.00">Structured</text>
</a>
</g>
</g>
<!-- Interviews&#45;&gt;Structured -->
<g id="edge21" class="edge">
<title>Interviews&#45;&gt;Structured</title>
<path fill="none" stroke="black" d="M668.29,-305.7C668.15,-294.49 667.97,-279.72 667.82,-267.12"/>
<ellipse fill="none" stroke="black" cx="667.77" cy="-262.92" rx="4" ry="4"/>
</g>
<!-- SemiStructured -->
<g id="node26" class="node">
<title>SemiStructured</title>
<g id="a_node26"><a xlink:title="Cardinality: None">
<polygon fill="white" stroke="black" points="834.38,-258.04 724.62,-258.04 724.62,-222.04 834.38,-222.04 834.38,-258.04"/>
<text text-anchor="middle" x="779.5" y="-236.49" font-family="Arial Unicode MS, Arial" font-size="14.00">SemiStructured</text>
</a>
</g>
</g>
<!-- Interviews&#45;&gt;SemiStructured -->
<g id="edge22" class="edge">
<title>Interviews&#45;&gt;SemiStructured</title>
<path fill="none" stroke="black" d="M692.04,-305.7C708.67,-293.41 731.11,-276.82 749.09,-263.52"/>
<ellipse fill="none" stroke="black" cx="752.38" cy="-261.09" rx="4" ry="4"/>
</g>
<!-- Open -->
<g id="node27" class="node">
<title>Open</title>
<g id="a_node27"><a xlink:title="Cardinality: None">
<polygon fill="white" stroke="black" points="906.5,-258.04 852.5,-258.04 852.5,-222.04 906.5,-222.04 906.5,-258.04"/>
<text text-anchor="middle" x="879.5" y="-236.49" font-family="Arial Unicode MS, Arial" font-size="14.00">Open</text>
</a>
</g>
</g>
<!-- Interviews&#45;&gt;Open -->
<g id="edge23" class="edge">
<title>Interviews&#45;&gt;Open</title>
<path fill="none" stroke="black" d="M702.32,-305.63C706.7,-303.64 711.17,-301.73 715.5,-300.07 770.7,-278.98 789.58,-288.26 843.5,-264.07 844.53,-263.61 845.56,-263.12 846.59,-262.61"/>
<ellipse fill="none" stroke="black" cx="850.5" cy="-260.5" rx="4" ry="4"/>
</g>
<!-- DataCollection&#45;&gt;Approach -->
<g id="edge26" class="edge">
<title>DataCollection&#45;&gt;Approach</title>
<path fill="none" stroke="black" d="M919.31,-559.19C850.76,-545.93 729.96,-522.56 652.13,-507.5"/>
<ellipse fill="black" stroke="black" cx="647.75" cy="-506.65" rx="4" ry="4"/>
</g>
<!-- CollectionMethod -->
<g id="node32" class="node">
<title>CollectionMethod</title>
<g id="a_node32"><a xlink:title="Cardinality: None">
<polygon fill="white" stroke="black" points="798.74,-484.82 904.5,-468.22 1010.26,-484.82 1010.16,-511.7 798.84,-511.7 798.74,-484.82"/>
<text text-anchor="middle" x="904.5" y="-488.7" font-family="Arial Unicode MS, Arial" font-size="14.00">CollectionMethod</text>
</a>
</g>
</g>
<!-- DataCollection&#45;&gt;CollectionMethod -->
<g id="edge31" class="edge">
<title>DataCollection&#45;&gt;CollectionMethod</title>
<path fill="none" stroke="black" d="M956.3,-552.03C947.6,-542.16 936.53,-529.6 926.86,-518.63"/>
<ellipse fill="black" stroke="black" cx="924.03" cy="-515.41" rx="4" ry="4"/>
</g>
<!-- StoragePolicy -->
<g id="node35" class="node">
<title>StoragePolicy</title>
<g id="a_node35"><a xlink:title="Cardinality: None">
<polygon fill="white" stroke="black" points="1079.12,-426.18 979.88,-426.18 979.88,-390.18 1079.12,-390.18 1079.12,-426.18"/>
<text text-anchor="middle" x="1029.5" y="-404.63" font-family="Arial Unicode MS, Arial" font-size="14.00">StoragePolicy</text>
</a>
</g>
</g>
<!-- DataCollection&#45;&gt;StoragePolicy -->
<g id="edge35" class="edge">
<title>DataCollection&#45;&gt;StoragePolicy</title>
<path fill="none" stroke="black" d="M992.67,-551.85C1002.58,-542.42 1013.5,-529.92 1019.5,-516.29 1030.89,-490.41 1032.3,-457.69 1031.56,-435.26"/>
<ellipse fill="black" stroke="black" cx="1031.35" cy="-430.82" rx="4" ry="4"/>
</g>
<!-- DataAnalysisTooling -->
<g id="node39" class="node">
<title>DataAnalysisTooling</title>
<g id="a_node39"><a xlink:title="Cardinality: None">
<polygon fill="white" stroke="black" points="1244,-510.25 1105,-510.25 1105,-474.25 1244,-474.25 1244,-510.25"/>
<text text-anchor="middle" x="1174.5" y="-488.7" font-family="Arial Unicode MS, Arial" font-size="14.00">DataAnalysisTooling</text>
</a>
</g>
</g>
<!-- DataCollection&#45;&gt;DataAnalysisTooling -->
<g id="edge39" class="edge">
<title>DataCollection&#45;&gt;DataAnalysisTooling</title>
<path fill="none" stroke="black" d="M1018.07,-551.84C1048.27,-540.53 1087.74,-525.75 1119.48,-513.86"/>
<ellipse fill="black" stroke="black" cx="1123.58" cy="-512.32" rx="4" ry="4"/>
</g>
<!-- MUXL_MobileLab -->
<g id="node29" class="node">
<title>MUXL_MobileLab</title>
<g id="a_node29"><a xlink:title="Cardinality: None">
<polygon fill="white" stroke="black" points="848.5,-342.11 724.5,-342.11 724.5,-306.11 848.5,-306.11 848.5,-342.11"/>
<text text-anchor="middle" x="786.5" y="-320.56" font-family="Arial Unicode MS, Arial" font-size="14.00">MUXL_MobileLab</text>
</a>
</g>
</g>
<!-- OnSiteCollection -->
<g id="node30" class="node">
<title>OnSiteCollection</title>
<g id="a_node30"><a xlink:title="Cardinality: None">
<polygon fill="white" stroke="black" points="641.02,-400.75 743.5,-384.14 845.98,-400.75 845.88,-427.62 641.12,-427.62 641.02,-400.75"/>
<text text-anchor="middle" x="743.5" y="-404.63" font-family="Arial Unicode MS, Arial" font-size="14.00">OnSiteCollection</text>
</a>
</g>
</g>
<!-- OnSiteCollection&#45;&gt;MUXL_MobileLab -->
<g id="edge27" class="edge">
<title>OnSiteCollection&#45;&gt;MUXL_MobileLab</title>
<path fill="none" stroke="black" d="M758.95,-377.7C765.15,-365.86 772.08,-352.63 777.44,-342.39"/>
<ellipse fill="none" stroke="black" cx="756.89" cy="-381.63" rx="4" ry="4"/>
</g>
<!-- OnPremise -->
<g id="node31" class="node">
<title>OnPremise</title>
<g id="a_node31"><a xlink:title="Cardinality: None">
<polygon fill="white" stroke="black" points="952,-342.11 867,-342.11 867,-306.11 952,-306.11 952,-342.11"/>
<text text-anchor="middle" x="909.5" y="-320.56" font-family="Arial Unicode MS, Arial" font-size="14.00">OnPremise</text>
</a>
</g>
</g>
<!-- OnSiteCollection&#45;&gt;OnPremise -->
<g id="edge28" class="edge">
<title>OnSiteCollection&#45;&gt;OnPremise</title>
<path fill="none" stroke="black" d="M786.93,-385.71C814.13,-372.26 848.74,-355.15 874.23,-342.54"/>
<ellipse fill="none" stroke="black" cx="783.15" cy="-387.58" rx="4" ry="4"/>
</g>
<!-- CollectionMethod&#45;&gt;OnSiteCollection -->
<g id="edge29" class="edge">
<title>CollectionMethod&#45;&gt;OnSiteCollection</title>
<path fill="none" stroke="black" d="M861.61,-469.39C836.37,-456.52 804.77,-440.41 780.61,-428.1"/>
<ellipse fill="none" stroke="black" cx="865.56" cy="-471.4" rx="4" ry="4"/>
</g>
<!-- LabCollection -->
<g id="node33" class="node">
<title>LabCollection</title>
<g id="a_node33"><a xlink:title="Cardinality: None">
<polygon fill="white" stroke="black" points="961.38,-426.18 863.62,-426.18 863.62,-390.18 961.38,-390.18 961.38,-426.18"/>
<text text-anchor="middle" x="912.5" y="-404.63" font-family="Arial Unicode MS, Arial" font-size="14.00">LabCollection</text>
</a>
</g>
</g>
<!-- CollectionMethod&#45;&gt;LabCollection -->
<g id="edge30" class="edge">
<title>CollectionMethod&#45;&gt;LabCollection</title>
<path fill="none" stroke="black" d="M907.58,-459.63C908.68,-448.35 909.88,-436.07 910.82,-426.45"/>
<ellipse fill="none" stroke="black" cx="907.17" cy="-463.91" rx="4" ry="4"/>
</g>
<!-- CollectionMethod&#45;&gt;StoragePolicy -->
<!-- DataAnonymicity -->
<g id="node34" class="node">
<title>DataAnonymicity</title>
<g id="a_node34"><a xlink:title="Cardinality: None">
<polygon fill="white" stroke="black" points="1088.5,-342.11 970.5,-342.11 970.5,-306.11 1088.5,-306.11 1088.5,-342.11"/>
<text text-anchor="middle" x="1029.5" y="-320.56" font-family="Arial Unicode MS, Arial" font-size="14.00">DataAnonymicity</text>
</a>
</g>
</g>
<!-- StoragePolicy&#45;&gt;DataAnonymicity -->
<g id="edge32" class="edge">
<title>StoragePolicy&#45;&gt;DataAnonymicity</title>
<path fill="none" stroke="black" d="M1029.5,-389.77C1029.5,-375.85 1029.5,-356.41 1029.5,-342.49"/>
</g>
<!-- SecuredStorage -->
<g id="node36" class="node">
<title>SecuredStorage</title>
<g id="a_node36"><a xlink:title="Cardinality: None">
<polygon fill="white" stroke="black" points="1220.25,-342.11 1106.75,-342.11 1106.75,-306.11 1220.25,-306.11 1220.25,-342.11"/>
<text text-anchor="middle" x="1163.5" y="-320.56" font-family="Arial Unicode MS, Arial" font-size="14.00">SecuredStorage</text>
</a>
</g>
</g>
<!-- StoragePolicy&#45;&gt;SecuredStorage -->
<g id="edge33" class="edge">
<title>StoragePolicy&#45;&gt;SecuredStorage</title>
<path fill="none" stroke="black" d="M1057.92,-389.77C1080.66,-375.85 1112.39,-356.41 1135.12,-342.49"/>
</g>
<!-- PasswordProtection -->
<g id="node37" class="node">
<title>PasswordProtection</title>
<g id="a_node37"><a xlink:title="Cardinality: None">
<polygon fill="white" stroke="black" points="1374.5,-342.11 1238.5,-342.11 1238.5,-306.11 1374.5,-306.11 1374.5,-342.11"/>
<text text-anchor="middle" x="1306.5" y="-320.56" font-family="Arial Unicode MS, Arial" font-size="14.00">PasswordProtection</text>
</a>
</g>
</g>
<!-- StoragePolicy&#45;&gt;PasswordProtection -->
<g id="edge34" class="edge">
<title>StoragePolicy&#45;&gt;PasswordProtection</title>
<path fill="none" stroke="black" d="M1072.46,-389.71C1077.83,-387.73 1083.27,-385.83 1088.5,-384.14 1150.07,-364.35 1167.17,-365.42 1229.5,-348.14 1235.82,-346.39 1242.41,-344.51 1248.97,-342.6"/>
</g>
<!-- Remediation -->
<g id="node58" class="node">
<title>Remediation</title>
<g id="a_node58"><a xlink:title="Cardinality: None">
<polygon fill="white" stroke="black" points="1209.75,-258.04 1117.25,-258.04 1117.25,-222.04 1209.75,-222.04 1209.75,-258.04"/>
<text text-anchor="middle" x="1163.5" y="-236.49" font-family="Arial Unicode MS, Arial" font-size="14.00">Remediation</text>
</a>
</g>
</g>
<!-- SecuredStorage&#45;&gt;Remediation -->
<!-- SecuredStorage&#45;&gt;Remediation -->
<!-- Excel -->
<g id="node38" class="node">
<title>Excel</title>
<g id="a_node38"><a xlink:title="Cardinality: None">
<polygon fill="white" stroke="black" points="1151.5,-426.18 1097.5,-426.18 1097.5,-390.18 1151.5,-390.18 1151.5,-426.18"/>
<text text-anchor="middle" x="1124.5" y="-404.63" font-family="Arial Unicode MS, Arial" font-size="14.00">Excel</text>
</a>
</g>
</g>
<!-- DataAnalysisTooling&#45;&gt;Excel -->
<g id="edge36" class="edge">
<title>DataAnalysisTooling&#45;&gt;Excel</title>
<path fill="none" stroke="black" d="M1163.9,-473.85C1156.87,-462.31 1147.54,-447 1139.73,-434.17"/>
<ellipse fill="none" stroke="black" cx="1137.43" cy="-430.4" rx="4" ry="4"/>
</g>
<!-- Dedoose -->
<g id="node40" class="node">
<title>Dedoose</title>
<g id="a_node40"><a xlink:title="Cardinality: None">
<polygon fill="white" stroke="black" points="1239.5,-426.18 1169.5,-426.18 1169.5,-390.18 1239.5,-390.18 1239.5,-426.18"/>
<text text-anchor="middle" x="1204.5" y="-404.63" font-family="Arial Unicode MS, Arial" font-size="14.00">Dedoose</text>
</a>
</g>
</g>
<!-- DataAnalysisTooling&#45;&gt;Dedoose -->
<g id="edge37" class="edge">
<title>DataAnalysisTooling&#45;&gt;Dedoose</title>
<path fill="none" stroke="black" d="M1180.86,-473.85C1185,-462.53 1190.46,-447.58 1195.1,-434.9"/>
<ellipse fill="none" stroke="black" cx="1196.6" cy="-430.79" rx="4" ry="4"/>
</g>
<!-- Python -->
<g id="node41" class="node">
<title>Python</title>
<g id="a_node41"><a xlink:title="Cardinality: None">
<polygon fill="white" stroke="black" points="1315.5,-426.18 1257.5,-426.18 1257.5,-390.18 1315.5,-390.18 1315.5,-426.18"/>
<text text-anchor="middle" x="1286.5" y="-404.63" font-family="Arial Unicode MS, Arial" font-size="14.00">Python</text>
</a>
</g>
</g>
<!-- DataAnalysisTooling&#45;&gt;Python -->
<g id="edge38" class="edge">
<title>DataAnalysisTooling&#45;&gt;Python</title>
<path fill="none" stroke="black" d="M1198.25,-473.85C1215.03,-461.55 1237.67,-444.96 1255.82,-431.66"/>
<ellipse fill="none" stroke="black" cx="1259.15" cy="-429.22" rx="4" ry="4"/>
</g>
<!-- LocationAvailability -->
<g id="node42" class="node">
<title>LocationAvailability</title>
<g id="a_node42"><a xlink:title="Cardinality: None">
<polygon fill="#a7c7e7" stroke="black" points="1428.88,-510.25 1298.12,-510.25 1298.12,-474.25 1428.88,-474.25 1428.88,-510.25"/>
<text text-anchor="middle" x="1363.5" y="-488.7" font-family="Arial Unicode MS, Arial" font-size="14.00">LocationAvailability</text>
</a>
</g>
</g>
<!-- LocationAccessibility -->
<g id="node45" class="node">
<title>LocationAccessibility</title>
<g id="a_node45"><a xlink:title="Cardinality: None">
<polygon fill="white" stroke="black" points="1333.7,-400.75 1456.5,-384.14 1579.3,-400.75 1579.19,-427.62 1333.81,-427.62 1333.7,-400.75"/>
<text text-anchor="middle" x="1456.5" y="-404.63" font-family="Arial Unicode MS, Arial" font-size="14.00">LocationAccessibility</text>
</a>
</g>
</g>
<!-- LocationAvailability&#45;&gt;LocationAccessibility -->
<!-- Location&#45;&gt;LocationAvailability -->
<g id="edge41" class="edge">
<title>Location&#45;&gt;LocationAvailability</title>
<path fill="none" stroke="black" d="M1363.5,-552.03C1363.5,-542.48 1363.5,-530.39 1363.5,-519.67"/>
<ellipse fill="black" stroke="black" cx="1363.5" cy="-515.2" rx="4" ry="4"/>
</g>
<!-- Location&#45;&gt;LocationAccessibility -->
<g id="edge44" class="edge">
<title>Location&#45;&gt;LocationAccessibility</title>
<path fill="none" stroke="black" d="M1397.3,-552.76C1411.89,-543.92 1427.81,-531.66 1437.5,-516.29 1452.63,-492.28 1456.55,-459.54 1457.2,-436.6"/>
<ellipse fill="none" stroke="black" cx="1457.25" cy="-432.23" rx="4" ry="4"/>
</g>
<!-- Ramp -->
<g id="node44" class="node">
<title>Ramp</title>
<g id="a_node44"><a xlink:title="Cardinality: None">
<polygon fill="white" stroke="black" points="1464.5,-342.11 1410.5,-342.11 1410.5,-306.11 1464.5,-306.11 1464.5,-342.11"/>
<text text-anchor="middle" x="1437.5" y="-320.56" font-family="Arial Unicode MS, Arial" font-size="14.00">Ramp</text>
</a>
</g>
</g>
<!-- LocationAccessibility&#45;&gt;Ramp -->
<g id="edge42" class="edge">
<title>LocationAccessibility&#45;&gt;Ramp</title>
<path fill="none" stroke="black" d="M1449.35,-376.31C1446.71,-364.9 1443.81,-352.37 1441.54,-342.56"/>
<ellipse fill="none" stroke="black" cx="1450.29" cy="-380.37" rx="4" ry="4"/>
</g>
<!-- Elevator -->
<g id="node46" class="node">
<title>Elevator</title>
<g id="a_node46"><a xlink:title="Cardinality: None">
<polygon fill="white" stroke="black" points="1548.25,-342.11 1482.75,-342.11 1482.75,-306.11 1548.25,-306.11 1548.25,-342.11"/>
<text text-anchor="middle" x="1515.5" y="-320.56" font-family="Arial Unicode MS, Arial" font-size="14.00">Elevator</text>
</a>
</g>
</g>
<!-- LocationAccessibility&#45;&gt;Elevator -->
<g id="edge43" class="edge">
<title>LocationAccessibility&#45;&gt;Elevator</title>
<path fill="none" stroke="black" d="M1476.9,-378.8C1485.56,-366.75 1495.38,-353.1 1502.94,-342.57"/>
<ellipse fill="none" stroke="black" cx="1474.32" cy="-382.39" rx="4" ry="4"/>
</g>
<!-- Setup -->
<g id="node47" class="node">
<title>Setup</title>
<g id="a_node47"><a xlink:title="Cardinality: None">
<polygon fill="white" stroke="black" points="1278.5,-732.29 1224.5,-732.29 1224.5,-696.29 1278.5,-696.29 1278.5,-732.29"/>
<text text-anchor="middle" x="1251.5" y="-710.74" font-family="Arial Unicode MS, Arial" font-size="14.00">Setup</text>
</a>
</g>
</g>
<!-- Setup&#45;&gt;Experiment -->
<g id="edge46" class="edge">
<title>Setup&#45;&gt;Experiment</title>
<path fill="none" stroke="black" d="M1224.14,-706.45C1177.58,-694.81 1082.22,-670.97 1022.9,-656.14"/>
<ellipse fill="black" stroke="black" cx="1018.78" cy="-655.11" rx="4" ry="4"/>
</g>
<!-- Setup&#45;&gt;Remediation -->
<g id="edge66" class="edge">
<title>Setup&#45;&gt;Remediation</title>
<path fill="none" stroke="black" d="M1278.84,-708.5C1362.21,-693.16 1607.5,-641.99 1607.5,-571.29 1607.5,-571.29 1607.5,-571.29 1607.5,-407.18 1607.5,-354.64 1599.59,-331.5 1557.5,-300.07 1505.02,-260.88 1314.55,-247.37 1218.98,-242.99"/>
<ellipse fill="none" stroke="black" cx="1214.53" cy="-242.79" rx="4" ry="4"/>
</g>
<!-- SkippingQuestions -->
<g id="node48" class="node">
<title>SkippingQuestions</title>
<g id="a_node48"><a xlink:title="Cardinality: None">
<polygon fill="white" stroke="black" points="519.12,-36 389.88,-36 389.88,0 519.12,0 519.12,-36"/>
<text text-anchor="middle" x="454.5" y="-14.45" font-family="Arial Unicode MS, Arial" font-size="14.00">SkippingQuestions</text>
</a>
</g>
</g>
<!-- InterviewStrategy -->
<g id="node49" class="node">
<title>InterviewStrategy</title>
<g id="a_node49"><a xlink:title="Cardinality: None">
<polygon fill="white" stroke="black" points="700.62,-108 580.38,-108 580.38,-72 700.62,-72 700.62,-108"/>
<text text-anchor="middle" x="640.5" y="-86.45" font-family="Arial Unicode MS, Arial" font-size="14.00">InterviewStrategy</text>
</a>
</g>
</g>
<!-- InterviewStrategy&#45;&gt;SkippingQuestions -->
<g id="edge47" class="edge">
<title>InterviewStrategy&#45;&gt;SkippingQuestions</title>
<path fill="none" stroke="black" d="M594.04,-71.52C568.2,-61.79 535.9,-49.64 508.89,-39.47"/>
<ellipse fill="none" stroke="black" cx="504.9" cy="-37.97" rx="4" ry="4"/>
</g>
<!-- ParticipationRemediation -->
<g id="node50" class="node">
<title>ParticipationRemediation</title>
<g id="a_node50"><a xlink:title="Cardinality: None">
<polygon fill="white" stroke="black" points="997.88,-180 831.12,-180 831.12,-144 997.88,-144 997.88,-180"/>
<text text-anchor="middle" x="914.5" y="-158.45" font-family="Arial Unicode MS, Arial" font-size="14.00">ParticipationRemediation</text>
</a>
</g>
</g>
<!-- ParticipationRemediation&#45;&gt;InterviewStrategy -->
<g id="edge48" class="edge">
<title>ParticipationRemediation&#45;&gt;InterviewStrategy</title>
<path fill="none" stroke="black" d="M846.07,-143.52C804.39,-132.87 751.32,-119.31 709.54,-108.64"/>
<ellipse fill="none" stroke="black" cx="705.43" cy="-107.59" rx="4" ry="4"/>
</g>
<!-- PeerPressure -->
<g id="node52" class="node">
<title>PeerPressure</title>
<g id="a_node52"><a xlink:title="Cardinality: None">
<polygon fill="white" stroke="black" points="818.75,-108 720.25,-108 720.25,-72 818.75,-72 818.75,-108"/>
<text text-anchor="middle" x="769.5" y="-86.45" font-family="Arial Unicode MS, Arial" font-size="14.00">PeerPressure</text>
</a>
</g>
</g>
<!-- ParticipationRemediation&#45;&gt;PeerPressure -->
<g id="edge51" class="edge">
<title>ParticipationRemediation&#45;&gt;PeerPressure</title>
<path fill="none" stroke="black" d="M878.28,-143.52C858.66,-134.04 834.26,-122.26 813.54,-112.26"/>
<ellipse fill="none" stroke="black" cx="809.56" cy="-110.34" rx="4" ry="4"/>
</g>
<!-- LearningStrategy -->
<g id="node55" class="node">
<title>LearningStrategy</title>
<g id="a_node55"><a xlink:title="Cardinality: None">
<polygon fill="white" stroke="black" points="973.88,-108 855.12,-108 855.12,-72 973.88,-72 973.88,-108"/>
<text text-anchor="middle" x="914.5" y="-86.45" font-family="Arial Unicode MS, Arial" font-size="14.00">LearningStrategy</text>
</a>
</g>
</g>
<!-- ParticipationRemediation&#45;&gt;LearningStrategy -->
<g id="edge54" class="edge">
<title>ParticipationRemediation&#45;&gt;LearningStrategy</title>
<path fill="none" stroke="black" d="M914.5,-143.7C914.5,-135.64 914.5,-125.89 914.5,-116.98"/>
<ellipse fill="none" stroke="black" cx="914.5" cy="-112.6" rx="4" ry="4"/>
</g>
<!-- StressStrategy -->
<g id="node57" class="node">
<title>StressStrategy</title>
<g id="a_node57"><a xlink:title="Cardinality: None">
<polygon fill="white" stroke="black" points="1096.75,-108 992.25,-108 992.25,-72 1096.75,-72 1096.75,-108"/>
<text text-anchor="middle" x="1044.5" y="-86.45" font-family="Arial Unicode MS, Arial" font-size="14.00">StressStrategy</text>
</a>
</g>
</g>
<!-- ParticipationRemediation&#45;&gt;StressStrategy -->
<g id="edge55" class="edge">
<title>ParticipationRemediation&#45;&gt;StressStrategy</title>
<path fill="none" stroke="black" d="M946.97,-143.52C964.47,-134.09 986.22,-122.38 1004.73,-112.41"/>
<ellipse fill="none" stroke="black" cx="1008.48" cy="-110.39" rx="4" ry="4"/>
</g>
<!-- WithdrawAnyTime -->
<g id="node51" class="node">
<title>WithdrawAnyTime</title>
<g id="a_node51"><a xlink:title="Cardinality: None">
<polygon fill="white" stroke="black" points="664,-36 537,-36 537,0 664,0 664,-36"/>
<text text-anchor="middle" x="600.5" y="-14.45" font-family="Arial Unicode MS, Arial" font-size="14.00">WithdrawAnyTime</text>
</a>
</g>
</g>
<!-- PeerPressure&#45;&gt;WithdrawAnyTime -->
<g id="edge49" class="edge">
<title>PeerPressure&#45;&gt;WithdrawAnyTime</title>
<path fill="none" stroke="black" d="M727.29,-71.52C704.01,-61.88 674.97,-49.84 650.55,-39.73"/>
<ellipse fill="none" stroke="black" cx="646.62" cy="-38.1" rx="4" ry="4"/>
</g>
<!-- AdvertiseParticipationRate -->
<g id="node53" class="node">
<title>AdvertiseParticipationRate</title>
<g id="a_node53"><a xlink:title="Cardinality: None">
<polygon fill="white" stroke="black" points="857,-36 682,-36 682,0 857,0 857,-36"/>
<text text-anchor="middle" x="769.5" y="-14.45" font-family="Arial Unicode MS, Arial" font-size="14.00">AdvertiseParticipationRate</text>
</a>
</g>
</g>
<!-- PeerPressure&#45;&gt;AdvertiseParticipationRate -->
<g id="edge50" class="edge">
<title>PeerPressure&#45;&gt;AdvertiseParticipationRate</title>
<path fill="none" stroke="black" d="M769.5,-71.7C769.5,-63.64 769.5,-53.89 769.5,-44.98"/>
<ellipse fill="none" stroke="black" cx="769.5" cy="-40.6" rx="4" ry="4"/>
</g>
<!-- PeerBuddy -->
<g id="node54" class="node">
<title>PeerBuddy</title>
<g id="a_node54"><a xlink:title="Cardinality: None">
<polygon fill="#a7c7e7" stroke="black" points="957.88,-36 875.12,-36 875.12,0 957.88,0 957.88,-36"/>
<text text-anchor="middle" x="916.5" y="-14.45" font-family="Arial Unicode MS, Arial" font-size="14.00">PeerBuddy</text>
</a>
</g>
</g>
<!-- LearningStrategy&#45;&gt;PeerBuddy -->
<g id="edge52" class="edge">
<title>LearningStrategy&#45;&gt;PeerBuddy</title>
<path fill="none" stroke="black" d="M914.99,-71.7C915.22,-63.64 915.5,-53.89 915.76,-44.98"/>
<ellipse fill="none" stroke="black" cx="915.88" cy="-40.6" rx="4" ry="4"/>
</g>
<!-- TrainingSession -->
<g id="node56" class="node">
<title>TrainingSession</title>
<g id="a_node56"><a xlink:title="Cardinality: None">
<polygon fill="white" stroke="black" points="1088.88,-36 976.12,-36 976.12,0 1088.88,0 1088.88,-36"/>
<text text-anchor="middle" x="1032.5" y="-14.45" font-family="Arial Unicode MS, Arial" font-size="14.00">TrainingSession</text>
</a>
</g>
</g>
<!-- LearningStrategy&#45;&gt;TrainingSession -->
<g id="edge53" class="edge">
<title>LearningStrategy&#45;&gt;TrainingSession</title>
<path fill="none" stroke="black" d="M943.97,-71.52C959.72,-62.18 979.25,-50.59 995.95,-40.68"/>
<ellipse fill="none" stroke="black" cx="999.53" cy="-38.56" rx="4" ry="4"/>
</g>
<!-- Remediation&#45;&gt;ParticipationRemediation -->
<g id="edge56" class="edge">
<title>Remediation&#45;&gt;ParticipationRemediation</title>
<path fill="none" stroke="black" d="M1116.96,-224.82C1078.42,-213.06 1023.22,-196.2 980.19,-183.06"/>
<ellipse fill="none" stroke="black" cx="976.05" cy="-181.8" rx="4" ry="4"/>
</g>
<!-- SensorRemediation -->
<g id="node62" class="node">
<title>SensorRemediation</title>
<g id="a_node62"><a xlink:title="Cardinality: None">
<polygon fill="white" stroke="black" points="1230.12,-180 1094.88,-180 1094.88,-144 1230.12,-144 1230.12,-180"/>
<text text-anchor="middle" x="1162.5" y="-158.45" font-family="Arial Unicode MS, Arial" font-size="14.00">SensorRemediation</text>
</a>
</g>
</g>
<!-- Remediation&#45;&gt;SensorRemediation -->
<g id="edge61" class="edge">
<title>Remediation&#45;&gt;SensorRemediation</title>
<path fill="none" stroke="black" d="M1163.27,-221.78C1163.15,-212.23 1162.99,-200.14 1162.85,-189.42"/>
<ellipse fill="none" stroke="black" cx="1162.79" cy="-184.95" rx="4" ry="4"/>
</g>
<!-- AccessibilityRemediation -->
<g id="node65" class="node">
<title>AccessibilityRemediation</title>
<g id="a_node65"><a xlink:title="Cardinality: None">
<polygon fill="white" stroke="black" points="1414.5,-180 1248.5,-180 1248.5,-144 1414.5,-144 1414.5,-180"/>
<text text-anchor="middle" x="1331.5" y="-158.45" font-family="Arial Unicode MS, Arial" font-size="14.00">AccessibilityRemediation</text>
</a>
</g>
</g>
<!-- Remediation&#45;&gt;AccessibilityRemediation -->
<g id="edge63" class="edge">
<title>Remediation&#45;&gt;AccessibilityRemediation</title>
<path fill="none" stroke="black" d="M1202.04,-221.59C1226.71,-210.43 1258.87,-195.87 1284.96,-184.06"/>
<ellipse fill="none" stroke="black" cx="1288.75" cy="-182.35" rx="4" ry="4"/>
</g>
<!-- OutreachRemediation -->
<g id="node67" class="node">
<title>OutreachRemediation</title>
<g id="a_node67"><a xlink:title="Cardinality: None">
<polygon fill="white" stroke="black" points="1580.88,-180 1432.12,-180 1432.12,-144 1580.88,-144 1580.88,-180"/>
<text text-anchor="middle" x="1506.5" y="-158.45" font-family="Arial Unicode MS, Arial" font-size="14.00">OutreachRemediation</text>
</a>
</g>
</g>
<!-- Remediation&#45;&gt;OutreachRemediation -->
<g id="edge65" class="edge">
<title>Remediation&#45;&gt;OutreachRemediation</title>
<path fill="none" stroke="black" d="M1210.12,-228.7C1264.74,-216.59 1356.3,-196.3 1423.22,-181.46"/>
<ellipse fill="none" stroke="black" cx="1427.28" cy="-180.56" rx="4" ry="4"/>
</g>
<!-- UseLotion -->
<g id="node59" class="node">
<title>UseLotion</title>
<g id="a_node59"><a xlink:title="Cardinality: None">
<polygon fill="white" stroke="black" points="1184.88,-36 1108.12,-36 1108.12,0 1184.88,0 1184.88,-36"/>
<text text-anchor="middle" x="1146.5" y="-14.45" font-family="Arial Unicode MS, Arial" font-size="14.00">UseLotion</text>
</a>
</g>
</g>
<!-- DrySkin -->
<g id="node60" class="node">
<title>DrySkin</title>
<g id="a_node60"><a xlink:title="Cardinality: None">
<polygon fill="white" stroke="black" points="1178.12,-108 1114.88,-108 1114.88,-72 1178.12,-72 1178.12,-108"/>
<text text-anchor="middle" x="1146.5" y="-86.45" font-family="Arial Unicode MS, Arial" font-size="14.00">DrySkin</text>
</a>
</g>
</g>
<!-- DrySkin&#45;&gt;UseLotion -->
<g id="edge57" class="edge">
<title>DrySkin&#45;&gt;UseLotion</title>
<path fill="none" stroke="black" d="M1146.5,-71.7C1146.5,-63.64 1146.5,-53.89 1146.5,-44.98"/>
<ellipse fill="none" stroke="black" cx="1146.5" cy="-40.6" rx="4" ry="4"/>
</g>
<!-- UseSpecificSensors -->
<g id="node61" class="node">
<title>UseSpecificSensors</title>
<g id="a_node61"><a xlink:title="Cardinality: None">
<polygon fill="white" stroke="black" points="1339.88,-36 1203.12,-36 1203.12,0 1339.88,0 1339.88,-36"/>
<text text-anchor="middle" x="1271.5" y="-14.45" font-family="Arial Unicode MS, Arial" font-size="14.00">UseSpecificSensors</text>
</a>
</g>
</g>
<!-- DrySkin&#45;&gt;UseSpecificSensors -->
<g id="edge58" class="edge">
<title>DrySkin&#45;&gt;UseSpecificSensors</title>
<path fill="none" stroke="black" d="M1177.72,-71.52C1194.55,-62.09 1215.46,-50.38 1233.26,-40.41"/>
<ellipse fill="none" stroke="black" cx="1236.75" cy="-38.46" rx="4" ry="4"/>
</g>
<!-- SensorRemediation&#45;&gt;DrySkin -->
<g id="edge59" class="edge">
<title>SensorRemediation&#45;&gt;DrySkin</title>
<path fill="none" stroke="black" d="M1158.54,-143.7C1156.68,-135.56 1154.43,-125.69 1152.37,-116.7"/>
<ellipse fill="none" stroke="black" cx="1151.41" cy="-112.49" rx="4" ry="4"/>
</g>
<!-- ScaryEquipment -->
<g id="node63" class="node">
<title>ScaryEquipment</title>
<g id="a_node63"><a xlink:title="Cardinality: None">
<polygon fill="white" stroke="black" points="1312.38,-108 1196.62,-108 1196.62,-72 1312.38,-72 1312.38,-108"/>
<text text-anchor="middle" x="1254.5" y="-86.45" font-family="Arial Unicode MS, Arial" font-size="14.00">ScaryEquipment</text>
</a>
</g>
</g>
<!-- SensorRemediation&#45;&gt;ScaryEquipment -->
<g id="edge60" class="edge">
<title>SensorRemediation&#45;&gt;ScaryEquipment</title>
<path fill="none" stroke="black" d="M1185.24,-143.7C1197.18,-134.61 1211.96,-123.36 1224.8,-113.6"/>
<ellipse fill="none" stroke="black" cx="1228.12" cy="-111.07" rx="4" ry="4"/>
</g>
<!-- StepLadder -->
<g id="node64" class="node">
<title>StepLadder</title>
<g id="a_node64"><a xlink:title="Cardinality: None">
<polygon fill="white" stroke="black" points="1416.38,-108 1330.62,-108 1330.62,-72 1416.38,-72 1416.38,-108"/>
<text text-anchor="middle" x="1373.5" y="-86.45" font-family="Arial Unicode MS, Arial" font-size="14.00">StepLadder</text>
</a>
</g>
</g>
<!-- AccessibilityRemediation&#45;&gt;StepLadder -->
<g id="edge62" class="edge">
<title>AccessibilityRemediation&#45;&gt;StepLadder</title>
<path fill="none" stroke="black" d="M1341.88,-143.7C1346.97,-135.22 1353.18,-124.86 1358.75,-115.58"/>
<ellipse fill="none" stroke="black" cx="1360.92" cy="-111.96" rx="4" ry="4"/>
</g>
<!-- UseMUXLMobileLab -->
<g id="node66" class="node">
<title>UseMUXLMobileLab</title>
<g id="a_node66"><a xlink:title="Cardinality: None">
<polygon fill="white" stroke="black" points="1577.12,-108 1435.88,-108 1435.88,-72 1577.12,-72 1577.12,-108"/>
<text text-anchor="middle" x="1506.5" y="-86.45" font-family="Arial Unicode MS, Arial" font-size="14.00">UseMUXLMobileLab</text>
</a>
</g>
</g>
<!-- OutreachRemediation&#45;&gt;UseMUXLMobileLab -->
<g id="edge64" class="edge">
<title>OutreachRemediation&#45;&gt;UseMUXLMobileLab</title>
<path fill="none" stroke="black" d="M1506.5,-143.7C1506.5,-135.64 1506.5,-125.89 1506.5,-116.98"/>
<ellipse fill="none" stroke="black" cx="1506.5" cy="-112.6" rx="4" ry="4"/>
</g>
</g>
</svg>
