<?xml version="1.0" encoding="UTF-8" standalone="no"?>
<!DOCTYPE svg PUBLIC "-//W3C//DTD SVG 1.1//EN"
 "http://www.w3.org/Graphics/SVG/1.1/DTD/svg11.dtd">
<!-- Generated by graphviz version 12.2.1 (20241206.2353)
 -->
<!-- Title: FeatureModel Pages: 1 -->
<svg width="698pt" height="368pt"
 viewBox="0.00 0.00 698.20 367.77" xmlns="http://www.w3.org/2000/svg" xmlns:xlink="http://www.w3.org/1999/xlink">
<g id="graph0" class="graph" transform="scale(1 1) rotate(0) translate(3.6 364.17)">
<title>FeatureModel</title>
<polygon fill="white" stroke="none" points="-3.6,3.6 -3.6,-364.17 694.6,-364.17 694.6,3.6 -3.6,3.6"/>
<text text-anchor="middle" x="345.5" y="-7.2" font-family="Times,serif" font-size="14.00">InvolveOlderAdults.Yes =&gt; Remediation</text>
<!-- Yes -->
<g id="node1" class="node">
<title>Yes</title>
<g id="a_node1"><a xlink:title="Cardinality: None">
<polygon fill="white" stroke="black" points="68.62,-204.5 14.62,-204.5 14.62,-168.5 68.62,-168.5 68.62,-204.5"/>
<text text-anchor="middle" x="41.62" y="-182.95" font-family="Arial Unicode MS, Arial" font-size="14.00">Yes</text>
</a>
</g>
</g>
<!-- Remediation -->
<g id="node11" class="node">
<title>Remediation</title>
<g id="a_node11"><a xlink:title="Cardinality: None">
<polygon fill="white" stroke="black" points="402.87,-132.5 310.37,-132.5 310.37,-96.5 402.87,-96.5 402.87,-132.5"/>
<text text-anchor="middle" x="356.62" y="-110.95" font-family="Arial Unicode MS, Arial" font-size="14.00">Remediation</text>
</a>
</g>
</g>
<!-- Yes&#45;&gt;Remediation -->
<!-- InvolveOlderAdults -->
<g id="node2" class="node">
<title>InvolveOlderAdults</title>
<g id="a_node2"><a xlink:title="Cardinality: None">
<polygon fill="white" stroke="black" points="0,-257.11 113.62,-240.5 227.25,-257.11 227.14,-283.98 0.11,-283.98 0,-257.11"/>
<text text-anchor="middle" x="113.62" y="-260.99" font-family="Arial Unicode MS, Arial" font-size="14.00">InvolveOlderAdults</text>
</a>
</g>
</g>
<!-- InvolveOlderAdults&#45;&gt;Yes -->
<g id="edge1" class="edge">
<title>InvolveOlderAdults&#45;&gt;Yes</title>
<path fill="none" stroke="black" d="M88.27,-236.76C78.23,-226.16 66.98,-214.27 58.04,-204.84"/>
<ellipse fill="none" stroke="black" cx="91.24" cy="-239.89" rx="4" ry="4"/>
</g>
<!-- No -->
<g id="node3" class="node">
<title>No</title>
<g id="a_node3"><a xlink:title="Cardinality: None">
<polygon fill="white" stroke="black" points="140.62,-204.5 86.62,-204.5 86.62,-168.5 140.62,-168.5 140.62,-204.5"/>
<text text-anchor="middle" x="113.62" y="-182.95" font-family="Arial Unicode MS, Arial" font-size="14.00">No</text>
</a>
</g>
</g>
<!-- InvolveOlderAdults&#45;&gt;No -->
<g id="edge2" class="edge">
<title>InvolveOlderAdults&#45;&gt;No</title>
<path fill="none" stroke="black" d="M113.62,-231.34C113.62,-222.14 113.62,-212.46 113.62,-204.55"/>
<ellipse fill="none" stroke="black" cx="113.62" cy="-235.81" rx="4" ry="4"/>
</g>
<!-- Setup -->
<g id="node4" class="node">
<title>Setup</title>
<g id="a_node4"><a xlink:title="Cardinality: None">
<polygon fill="white" stroke="black" points="468.62,-360.57 414.62,-360.57 414.62,-324.57 468.62,-324.57 468.62,-360.57"/>
<text text-anchor="middle" x="441.62" y="-339.02" font-family="Arial Unicode MS, Arial" font-size="14.00">Setup</text>
</a>
</g>
</g>
<!-- Setup&#45;&gt;InvolveOlderAdults -->
<g id="edge3" class="edge">
<title>Setup&#45;&gt;InvolveOlderAdults</title>
<path fill="none" stroke="black" d="M414.22,-335.22C368.43,-324.6 274.41,-302.81 203.64,-286.4"/>
<ellipse fill="black" stroke="black" cx="199.52" cy="-285.45" rx="4" ry="4"/>
</g>
<!-- Experiment -->
<g id="node6" class="node">
<title>Experiment</title>
<g id="a_node6"><a xlink:title="Cardinality: None">
<polygon fill="white" stroke="black" points="484.12,-282.54 399.12,-282.54 399.12,-246.54 484.12,-246.54 484.12,-282.54"/>
<text text-anchor="middle" x="441.62" y="-260.99" font-family="Arial Unicode MS, Arial" font-size="14.00">Experiment</text>
</a>
</g>
</g>
<!-- Setup&#45;&gt;Experiment -->
<g id="edge8" class="edge">
<title>Setup&#45;&gt;Experiment</title>
<path fill="none" stroke="black" d="M441.62,-324.32C441.62,-314.76 441.62,-302.68 441.62,-291.96"/>
<ellipse fill="black" stroke="black" cx="441.62" cy="-287.48" rx="4" ry="4"/>
</g>
<!-- Setup&#45;&gt;Remediation -->
<g id="edge13" class="edge">
<title>Setup&#45;&gt;Remediation</title>
<path fill="none" stroke="black" d="M469.03,-333.16C539.19,-310.29 715.49,-243.62 652.62,-168.5 622.54,-132.55 489.01,-120.96 411.97,-117.24"/>
<ellipse fill="none" stroke="black" cx="407.81" cy="-117.05" rx="4" ry="4"/>
</g>
<!-- RecruitmentStrategy -->
<g id="node5" class="node">
<title>RecruitmentStrategy</title>
<g id="a_node5"><a xlink:title="Cardinality: None">
<polygon fill="white" stroke="black" points="298.5,-204.5 158.75,-204.5 158.75,-168.5 298.5,-168.5 298.5,-204.5"/>
<text text-anchor="middle" x="228.62" y="-182.95" font-family="Arial Unicode MS, Arial" font-size="14.00">RecruitmentStrategy</text>
</a>
</g>
</g>
<!-- Experiment&#45;&gt;RecruitmentStrategy -->
<g id="edge4" class="edge">
<title>Experiment&#45;&gt;RecruitmentStrategy</title>
<path fill="none" stroke="black" d="M398.78,-248.24C366.27,-236.64 321.28,-220.57 285.72,-207.88"/>
<ellipse fill="black" stroke="black" cx="281.6" cy="-206.41" rx="4" ry="4"/>
</g>
<!-- ResearchMethod -->
<g id="node7" class="node">
<title>ResearchMethod</title>
<g id="a_node7"><a xlink:title="Cardinality: None">
<polygon fill="white" stroke="black" points="436.37,-204.5 316.87,-204.5 316.87,-168.5 436.37,-168.5 436.37,-204.5"/>
<text text-anchor="middle" x="376.62" y="-182.95" font-family="Arial Unicode MS, Arial" font-size="14.00">ResearchMethod</text>
</a>
</g>
</g>
<!-- Experiment&#45;&gt;ResearchMethod -->
<g id="edge5" class="edge">
<title>Experiment&#45;&gt;ResearchMethod</title>
<path fill="none" stroke="black" d="M426.87,-246.28C418.13,-236.05 406.91,-222.92 397.29,-211.67"/>
<ellipse fill="black" stroke="black" cx="394.46" cy="-208.37" rx="4" ry="4"/>
</g>
<!-- DataCollection -->
<g id="node8" class="node">
<title>DataCollection</title>
<g id="a_node8"><a xlink:title="Cardinality: None">
<polygon fill="white" stroke="black" points="558.5,-204.5 454.75,-204.5 454.75,-168.5 558.5,-168.5 558.5,-204.5"/>
<text text-anchor="middle" x="506.62" y="-182.95" font-family="Arial Unicode MS, Arial" font-size="14.00">DataCollection</text>
</a>
</g>
</g>
<!-- Experiment&#45;&gt;DataCollection -->
<g id="edge6" class="edge">
<title>Experiment&#45;&gt;DataCollection</title>
<path fill="none" stroke="black" d="M456.37,-246.28C465.12,-236.05 476.34,-222.92 485.96,-211.67"/>
<ellipse fill="black" stroke="black" cx="488.78" cy="-208.37" rx="4" ry="4"/>
</g>
<!-- Location -->
<g id="node9" class="node">
<title>Location</title>
<g id="a_node9"><a xlink:title="Cardinality: None">
<polygon fill="white" stroke="black" points="643.12,-204.5 576.12,-204.5 576.12,-168.5 643.12,-168.5 643.12,-204.5"/>
<text text-anchor="middle" x="609.62" y="-182.95" font-family="Arial Unicode MS, Arial" font-size="14.00">Location</text>
</a>
</g>
</g>
<!-- Experiment&#45;&gt;Location -->
<g id="edge7" class="edge">
<title>Experiment&#45;&gt;Location</title>
<path fill="none" stroke="black" d="M480.17,-246.09C506.33,-234.25 540.91,-218.6 567.75,-206.45"/>
<ellipse fill="none" stroke="black" cx="571.71" cy="-204.66" rx="4" ry="4"/>
</g>
<!-- ParticipationRemediation -->
<g id="node10" class="node">
<title>ParticipationRemediation</title>
<g id="a_node10"><a xlink:title="Cardinality: None">
<polygon fill="white" stroke="black" points="187,-60.5 20.25,-60.5 20.25,-24.5 187,-24.5 187,-60.5"/>
<text text-anchor="middle" x="103.62" y="-38.95" font-family="Arial Unicode MS, Arial" font-size="14.00">ParticipationRemediation</text>
</a>
</g>
</g>
<!-- Remediation&#45;&gt;ParticipationRemediation -->
<g id="edge9" class="edge">
<title>Remediation&#45;&gt;ParticipationRemediation</title>
<path fill="none" stroke="black" d="M309.93,-100.58C272.18,-90.14 218.41,-75.26 175.23,-63.31"/>
<ellipse fill="none" stroke="black" cx="171.08" cy="-62.16" rx="4" ry="4"/>
</g>
<!-- SensorRemediation -->
<g id="node12" class="node">
<title>SensorRemediation</title>
<g id="a_node12"><a xlink:title="Cardinality: None">
<polygon fill="white" stroke="black" points="340.25,-60.5 205,-60.5 205,-24.5 340.25,-24.5 340.25,-60.5"/>
<text text-anchor="middle" x="272.62" y="-38.95" font-family="Arial Unicode MS, Arial" font-size="14.00">SensorRemediation</text>
</a>
</g>
</g>
<!-- Remediation&#45;&gt;SensorRemediation -->
<g id="edge10" class="edge">
<title>Remediation&#45;&gt;SensorRemediation</title>
<path fill="none" stroke="black" d="M335.86,-96.2C325.06,-87.19 311.71,-76.07 300.07,-66.37"/>
<ellipse fill="none" stroke="black" cx="296.9" cy="-63.73" rx="4" ry="4"/>
</g>
<!-- AccessibilityRemediation -->
<g id="node13" class="node">
<title>AccessibilityRemediation</title>
<g id="a_node13"><a xlink:title="Cardinality: None">
<polygon fill="white" stroke="black" points="524.62,-60.5 358.62,-60.5 358.62,-24.5 524.62,-24.5 524.62,-60.5"/>
<text text-anchor="middle" x="441.62" y="-38.95" font-family="Arial Unicode MS, Arial" font-size="14.00">AccessibilityRemediation</text>
</a>
</g>
</g>
<!-- Remediation&#45;&gt;AccessibilityRemediation -->
<g id="edge11" class="edge">
<title>Remediation&#45;&gt;AccessibilityRemediation</title>
<path fill="none" stroke="black" d="M377.64,-96.2C388.57,-87.19 402.07,-76.07 413.85,-66.37"/>
<ellipse fill="none" stroke="black" cx="417.09" cy="-63.71" rx="4" ry="4"/>
</g>
<!-- OutreachRemediation -->
<g id="node14" class="node">
<title>OutreachRemediation</title>
<g id="a_node14"><a xlink:title="Cardinality: None">
<polygon fill="white" stroke="black" points="691,-60.5 542.25,-60.5 542.25,-24.5 691,-24.5 691,-60.5"/>
<text text-anchor="middle" x="616.62" y="-38.95" font-family="Arial Unicode MS, Arial" font-size="14.00">OutreachRemediation</text>
</a>
</g>
</g>
<!-- Remediation&#45;&gt;OutreachRemediation -->
<g id="edge12" class="edge">
<title>Remediation&#45;&gt;OutreachRemediation</title>
<path fill="none" stroke="black" d="M403.11,-100.99C442.08,-90.49 498.41,-75.33 543.43,-63.21"/>
<ellipse fill="none" stroke="black" cx="547.64" cy="-62.07" rx="4" ry="4"/>
</g>
</g>
</svg>
