<svg width="586px" height="213px"
 viewBox="0.00 0.00 586.31 212.50" xmlns="http://www.w3.org/2000/svg" xmlns:xlink="http://www.w3.org/1999/xlink">
<g id="graph0" class="graph" transform="scale(1.0 1.0) rotate(0.0) translate(4.0 208.5)">
<polygon fill="white" stroke="none" points="-4,4 -4,-208.5 582.31,-208.5 582.31,4 -4,4"/>
<text text-anchor="start" x="247.53" y="-7.2" font-family="Times,serif" font-size="14.00">build_directory</text>
<!-- c5 -->
<g id="node1" class="node">
<title>c5</title>
<polygon fill="lightgrey" stroke="black" stroke-width="1.01" points="374.03,-204.5 204.28,-204.5 204.28,-168.5 374.03,-168.5 374.03,-204.5"/>
<text text-anchor="start" x="212.28" y="-181.45" font-family="Times,serif" font-size="14.00">Phone directory can be used</text>
</g>
<!-- record -->
<g id="node2" class="node">
<title>record</title>
<polygon fill="palegreen" stroke="black" stroke-width="1.01" points="578.31,-132.5 118.33,-132.5 0,-96.5 459.98,-96.5 578.31,-132.5"/>
<text text-anchor="start" x="152.66" y="-109.45" font-family="Times,serif" font-size="14.00">Record consent from individuals when signing&#45;up</text>
</g>
<!-- record&#45;&gt;c5 -->
<g id="edge1" class="edge">
<title>record&#45;&gt;c5</title>
<path fill="none" stroke="black" d="M289.16,-132.8C289.16,-140.09 289.16,-148.77 289.16,-156.96"/>
<polygon fill="black" stroke="black" points="285.66,-156.88 289.16,-166.88 292.66,-156.88 285.66,-156.88"/>
</g>
<!-- form -->
<g id="node3" class="node">
<title>form</title>
<polygon fill="#a4d3ee" stroke="black" stroke-width="1.01" points="366.53,-60.5 211.78,-60.5 211.78,-24.5 366.53,-24.5 366.53,-60.5"/>
<text text-anchor="start" x="219.78" y="-37.45" font-family="Times,serif" font-size="14.00">Sign&#45;up form is available</text>
</g>
<!-- form&#45;&gt;record -->
<g id="edge2" class="edge">
<title>form&#45;&gt;record</title>
<path fill="none" stroke="black" d="M289.16,-60.8C289.16,-68.09 289.16,-76.77 289.16,-84.96"/>
<polygon fill="black" stroke="black" points="285.66,-84.88 289.16,-94.88 292.66,-84.88 285.66,-84.88"/>
</g>
</g>
</svg>
