<svg width="523px" height="213px"
 viewBox="0.00 0.00 523.28 212.50" xmlns="http://www.w3.org/2000/svg" xmlns:xlink="http://www.w3.org/1999/xlink">
<g id="graph0" class="graph" transform="scale(1.0 1.0) rotate(0.0) translate(4.0 208.5)">
<polygon fill="white" stroke="none" points="-4,4 -4,-208.5 519.28,-208.5 519.28,4 -4,4"/>
<text text-anchor="start" x="208.52" y="-7.2" font-family="Times,serif" font-size="14.00">existing_directory</text>
<!-- c4 -->
<g id="node1" class="node">
<title>c4</title>
<polygon fill="lightgrey" stroke="black" stroke-width="1.01" points="350.02,-204.5 165.27,-204.5 165.27,-168.5 350.02,-168.5 350.02,-204.5"/>
<text text-anchor="start" x="173.27" y="-181.45" font-family="Times,serif" font-size="14.00">Phone directory can be re&#45;used</text>
</g>
<!-- check -->
<g id="node2" class="node">
<title>check</title>
<polygon fill="palegreen" stroke="black" stroke-width="1.01" points="515.28,-132.5 105.43,-132.5 0,-96.5 409.85,-96.5 515.28,-132.5"/>
<text text-anchor="start" x="136.89" y="-109.45" font-family="Times,serif" font-size="14.00">Assessing the TOU w.r.t. the intended usage</text>
</g>
<!-- check&#45;&gt;c4 -->
<g id="edge1" class="edge">
<title>check&#45;&gt;c4</title>
<path fill="none" stroke="black" d="M257.64,-132.8C257.64,-140.09 257.64,-148.77 257.64,-156.96"/>
<polygon fill="black" stroke="black" points="254.14,-156.88 257.64,-166.88 261.14,-156.88 254.14,-156.88"/>
</g>
<!-- tou -->
<g id="node3" class="node">
<title>tou</title>
<polygon fill="#a4d3ee" stroke="black" stroke-width="1.01" points="212.89,-60.5 84.39,-60.5 84.39,-24.5 212.89,-24.5 212.89,-60.5"/>
<text text-anchor="start" x="92.39" y="-37.45" font-family="Times,serif" font-size="14.00">Terms of use (TOU)</text>
</g>
<!-- tou&#45;&gt;check -->
<g id="edge2" class="edge">
<title>tou&#45;&gt;check</title>
<path fill="none" stroke="black" d="M175.86,-60.98C189.62,-69.82 206.51,-80.66 221.35,-90.2"/>
<polygon fill="black" stroke="black" points="219.18,-92.96 229.49,-95.42 222.97,-87.07 219.18,-92.96"/>
</g>
<!-- directory -->
<g id="node4" class="node">
<title>directory</title>
<polygon fill="#a4d3ee" stroke="black" stroke-width="1.01" points="503.89,-60.5 231.39,-60.5 231.39,-24.5 503.89,-24.5 503.89,-60.5"/>
<text text-anchor="start" x="239.39" y="-37.45" font-family="Times,serif" font-size="14.00">Phone directory is provided by a partner centre</text>
</g>
<!-- directory&#45;&gt;check -->
<g id="edge3" class="edge">
<title>directory&#45;&gt;check</title>
<path fill="none" stroke="black" d="M340.17,-60.98C326.28,-69.82 309.24,-80.66 294.26,-90.2"/>
<polygon fill="black" stroke="black" points="292.6,-87.11 286.04,-95.43 296.36,-93.01 292.6,-87.11"/>
</g>
</g>
</svg>
