<svg width="676px" height="357px"
 viewBox="0.00 0.00 676.39 356.50" xmlns="http://www.w3.org/2000/svg" xmlns:xlink="http://www.w3.org/1999/xlink">
<g id="graph0" class="graph" transform="scale(1.0 1.0) rotate(0.0) translate(4.0 352.5)">
<polygon fill="white" stroke="none" points="-4,4 -4,-352.5 672.39,-352.5 672.39,4 -4,4"/>
<text text-anchor="start" x="309.82" y="-7.2" font-family="Times,serif" font-size="14.00">locations</text>
<!-- loc_available -->
<g id="node1" class="node">
<title>loc_available</title>
<polygon fill="lightgrey" stroke="black" stroke-width="1.01" points="491.39,-348.5 283.39,-348.5 283.39,-312.5 491.39,-312.5 491.39,-348.5"/>
<text text-anchor="start" x="291.39" y="-325.45" font-family="Times,serif" font-size="14.00">List of usable locations is available</text>
</g>
<!-- combining -->
<g id="node2" class="node">
<title>combining</title>
<polygon fill="palegreen" stroke="black" stroke-width="1.01" points="602.25,-276.5 260.45,-276.5 172.52,-240.5 514.32,-240.5 602.25,-276.5"/>
<text text-anchor="start" x="288.01" y="-253.45" font-family="Times,serif" font-size="14.00">Combining both lists into one single</text>
</g>
<!-- combining&#45;&gt;loc_available -->
<g id="edge1" class="edge">
<title>combining&#45;&gt;loc_available</title>
<path fill="none" stroke="black" d="M387.39,-276.8C387.39,-284.09 387.39,-292.77 387.39,-300.96"/>
<polygon fill="black" stroke="black" points="383.89,-300.88 387.39,-310.88 390.89,-300.88 383.89,-300.88"/>
</g>
<!-- authorized -->
<g id="node3" class="node">
<title>authorized</title>
<polygon fill="none" stroke="dodgerblue" stroke-width="1.01" points="364.64,-204.5 134.14,-204.5 134.14,-168.5 364.64,-168.5 364.64,-204.5"/>
<text text-anchor="start" x="142.14" y="-181.45" font-family="Times,serif" font-size="14.00">List of authorized locations is available</text>
</g>
<!-- authorized&#45;&gt;combining -->
<g id="edge2" class="edge">
<title>authorized&#45;&gt;combining</title>
<path fill="none" stroke="black" d="M283.85,-204.98C301.85,-214.11 324.08,-225.39 343.32,-235.15"/>
<polygon fill="black" stroke="black" points="341.51,-238.15 352.01,-239.55 344.67,-231.91 341.51,-238.15"/>
</g>
<!-- authorization -->
<g id="node4" class="node">
<title>authorization</title>
<polygon fill="palegreen" stroke="black" stroke-width="1.01" points="498.77,-132.5 102.05,-132.5 0,-96.5 396.72,-96.5 498.77,-132.5"/>
<text text-anchor="start" x="132.76" y="-109.45" font-family="Times,serif" font-size="14.00">Collecting authorization from stakeholders</text>
</g>
<!-- authorization&#45;&gt;authorized -->
<g id="edge3" class="edge">
<title>authorization&#45;&gt;authorized</title>
<path fill="none" stroke="black" d="M249.39,-132.8C249.39,-140.09 249.39,-148.77 249.39,-156.96"/>
<polygon fill="black" stroke="black" points="245.89,-156.88 249.39,-166.88 252.89,-156.88 245.89,-156.88"/>
</g>
<!-- places -->
<g id="node5" class="node">
<title>places</title>
<polygon fill="#a4d3ee" stroke="black" stroke-width="1.01" points="365.76,-60.5 133.01,-60.5 133.01,-24.5 365.76,-24.5 365.76,-60.5"/>
<text text-anchor="start" x="141.01" y="-37.45" font-family="Times,serif" font-size="14.00">List of locations requiring authorization</text>
</g>
<!-- places&#45;&gt;authorization -->
<g id="edge4" class="edge">
<title>places&#45;&gt;authorization</title>
<path fill="none" stroke="black" d="M249.39,-60.8C249.39,-68.09 249.39,-76.77 249.39,-84.96"/>
<polygon fill="black" stroke="black" points="245.89,-84.88 249.39,-94.88 252.89,-84.88 245.89,-84.88"/>
</g>
<!-- public -->
<g id="node6" class="node">
<title>public</title>
<polygon fill="#a4d3ee" stroke="black" stroke-width="1.01" points="668.39,-204.5 382.39,-204.5 382.39,-168.5 668.39,-168.5 668.39,-204.5"/>
<text text-anchor="start" x="390.39" y="-181.45" font-family="Times,serif" font-size="14.00">List of public location not requiring authorization</text>
</g>
<!-- public&#45;&gt;combining -->
<g id="edge5" class="edge">
<title>public&#45;&gt;combining</title>
<path fill="none" stroke="black" d="M490.92,-204.98C472.92,-214.11 450.69,-225.39 431.45,-235.15"/>
<polygon fill="black" stroke="black" points="430.1,-231.91 422.76,-239.55 433.27,-238.15 430.1,-231.91"/>
</g>
</g>
</svg>
