<svg width="576px" height="213px"
 viewBox="0.00 0.00 575.81 212.50" xmlns="http://www.w3.org/2000/svg" xmlns:xlink="http://www.w3.org/1999/xlink">
<g id="graph0" class="graph" transform="scale(1.0 1.0) rotate(0.0) translate(4.0 208.5)">
<polygon fill="white" stroke="none" points="-4,4 -4,-208.5 571.81,-208.5 571.81,4 -4,4"/>
<text text-anchor="start" x="252.03" y="-7.2" font-family="Times,serif" font-size="14.00">peer_buddy</text>
<!-- stress -->
<g id="node1" class="node">
<title>stress</title>
<polygon fill="lightgrey" stroke="black" stroke-width="1.01" points="406.28,-204.5 161.53,-204.5 161.53,-168.5 406.28,-168.5 406.28,-204.5"/>
<text text-anchor="start" x="169.53" y="-181.45" font-family="Times,serif" font-size="14.00">Learning is more efficient for participants</text>
</g>
<!-- design -->
<g id="node2" class="node">
<title>design</title>
<polygon fill="palegreen" stroke="black" stroke-width="1.01" points="567.81,-132.5 116.18,-132.5 0,-96.5 451.63,-96.5 567.81,-132.5"/>
<text text-anchor="start" x="150.03" y="-109.45" font-family="Times,serif" font-size="14.00">Design the protocol using a peer buddy approach</text>
</g>
<!-- design&#45;&gt;stress -->
<g id="edge1" class="edge">
<title>design&#45;&gt;stress</title>
<path fill="none" stroke="black" d="M283.9,-132.8C283.9,-140.09 283.9,-148.77 283.9,-156.96"/>
<polygon fill="black" stroke="black" points="280.4,-156.88 283.9,-166.88 287.4,-156.88 280.4,-156.88"/>
</g>
<!-- non_bias -->
<g id="node3" class="node">
<title>non_bias</title>
<polygon fill="#a4d3ee" stroke="black" stroke-width="1.01" points="279.15,-60.5 72.65,-60.5 72.65,-24.5 279.15,-24.5 279.15,-60.5"/>
<text text-anchor="start" x="80.65" y="-37.45" font-family="Times,serif" font-size="14.00">Situation does not require isolation</text>
</g>
<!-- non_bias&#45;&gt;design -->
<g id="edge2" class="edge">
<title>non_bias&#45;&gt;design</title>
<path fill="none" stroke="black" d="M202.88,-60.98C216.51,-69.82 233.24,-80.66 247.95,-90.2"/>
<polygon fill="black" stroke="black" points="245.71,-92.91 256,-95.42 249.52,-87.04 245.71,-92.91"/>
</g>
<!-- participants -->
<g id="node4" class="node">
<title>participants</title>
<polygon fill="#a4d3ee" stroke="black" stroke-width="1.01" points="486.53,-60.5 297.28,-60.5 297.28,-24.5 486.53,-24.5 486.53,-60.5"/>
<text text-anchor="start" x="305.28" y="-37.45" font-family="Times,serif" font-size="14.00">Participant pool is large enough</text>
</g>
<!-- participants&#45;&gt;design -->
<g id="edge3" class="edge">
<title>participants&#45;&gt;design</title>
<path fill="none" stroke="black" d="M364.93,-60.98C351.3,-69.82 334.57,-80.66 319.86,-90.2"/>
<polygon fill="black" stroke="black" points="318.29,-87.04 311.81,-95.42 322.1,-92.91 318.29,-87.04"/>
</g>
</g>
</svg>
