<svg width="489px" height="213px"
 viewBox="0.00 0.00 488.76 212.50" xmlns="http://www.w3.org/2000/svg" xmlns:xlink="http://www.w3.org/1999/xlink">
<g id="graph0" class="graph" transform="scale(1.0 1.0) rotate(0.0) translate(4.0 208.5)">
<polygon fill="white" stroke="none" points="-4,4 -4,-208.5 484.76,-208.5 484.76,4 -4,4"/>
<text text-anchor="start" x="223.88" y="-7.2" font-family="Times,serif" font-size="14.00">phone</text>
<!-- c1 -->
<g id="node1" class="node">
<title>c1</title>
<polygon fill="lightgrey" stroke="black" stroke-width="1.01" points="359.76,-204.5 121.01,-204.5 121.01,-168.5 359.76,-168.5 359.76,-204.5"/>
<text text-anchor="start" x="129.01" y="-181.45" font-family="Times,serif" font-size="14.00">Only interested individuals are contacted</text>
</g>
<!-- calling -->
<g id="node2" class="node">
<title>calling</title>
<polygon fill="palegreen" stroke="black" stroke-width="1.01" points="480.76,-132.5 98.37,-132.5 0,-96.5 382.39,-96.5 480.76,-132.5"/>
<text text-anchor="start" x="128.26" y="-109.45" font-family="Times,serif" font-size="14.00">Individual calls to invite for participation</text>
</g>
<!-- calling&#45;&gt;c1 -->
<g id="edge1" class="edge">
<title>calling&#45;&gt;c1</title>
<path fill="none" stroke="black" d="M240.38,-132.8C240.38,-140.09 240.38,-148.77 240.38,-156.96"/>
<polygon fill="black" stroke="black" points="236.88,-156.88 240.38,-166.88 243.88,-156.88 236.88,-156.88"/>
</g>
<!-- script -->
<g id="node3" class="node">
<title>script</title>
<polygon fill="#a4d3ee" stroke="black" stroke-width="1.01" points="224.13,-60.5 86.63,-60.5 86.63,-24.5 224.13,-24.5 224.13,-60.5"/>
<text text-anchor="start" x="94.63" y="-37.45" font-family="Times,serif" font-size="14.00">Call script is available</text>
</g>
<!-- script&#45;&gt;calling -->
<g id="edge2" class="edge">
<title>script&#45;&gt;calling</title>
<path fill="none" stroke="black" d="M176.39,-60.8C186.71,-69.3 199.32,-79.69 210.61,-88.99"/>
<polygon fill="black" stroke="black" points="208.2,-91.54 218.15,-95.19 212.65,-86.13 208.2,-91.54"/>
</g>
<!-- directory -->
<g id="node4" class="node">
<title>directory</title>
<polygon fill="#a4d3ee" stroke="black" stroke-width="1.01" points="410.13,-60.5 242.63,-60.5 242.63,-24.5 410.13,-24.5 410.13,-60.5"/>
<text text-anchor="start" x="250.63" y="-37.45" font-family="Times,serif" font-size="14.00">Phone directory is available</text>
</g>
<!-- directory&#45;&gt;calling -->
<g id="edge3" class="edge">
<title>directory&#45;&gt;calling</title>
<path fill="none" stroke="black" d="M305.12,-60.8C294.68,-69.3 281.92,-79.69 270.5,-88.99"/>
<polygon fill="black" stroke="black" points="268.41,-86.17 262.87,-95.2 272.83,-91.6 268.41,-86.17"/>
</g>
</g>
</svg>
