<svg width="624px" height="357px"
 viewBox="0.00 0.00 623.54 356.50" xmlns="http://www.w3.org/2000/svg" xmlns:xlink="http://www.w3.org/1999/xlink">
<g id="graph0" class="graph" transform="scale(1.0 1.0) rotate(0.0) translate(4.0 352.5)">
<polygon fill="white" stroke="none" points="-4,4 -4,-352.5 619.54,-352.5 619.54,4 -4,4"/>
<text text-anchor="start" x="274.02" y="-7.2" font-family="Times,serif" font-size="14.00">phone_build</text>
<!-- c1 -->
<g id="node1" class="node">
<title>c1</title>
<polygon fill="lightgrey" stroke="black" stroke-width="1.01" points="359.76,-348.5 121.01,-348.5 121.01,-312.5 359.76,-312.5 359.76,-348.5"/>
<text text-anchor="start" x="129.01" y="-325.45" font-family="Times,serif" font-size="14.00">Only interested individuals are contacted</text>
</g>
<!-- calling -->
<g id="node2" class="node">
<title>calling</title>
<polygon fill="palegreen" stroke="black" stroke-width="1.01" points="480.76,-276.5 98.37,-276.5 0,-240.5 382.39,-240.5 480.76,-276.5"/>
<text text-anchor="start" x="128.26" y="-253.45" font-family="Times,serif" font-size="14.00">Individual calls to invite for participation</text>
</g>
<!-- calling&#45;&gt;c1 -->
<g id="edge1" class="edge">
<title>calling&#45;&gt;c1</title>
<path fill="none" stroke="black" d="M240.38,-276.8C240.38,-284.09 240.38,-292.77 240.38,-300.96"/>
<polygon fill="black" stroke="black" points="236.88,-300.88 240.38,-310.88 243.88,-300.88 236.88,-300.88"/>
</g>
<!-- script -->
<g id="node3" class="node">
<title>script</title>
<polygon fill="#a4d3ee" stroke="black" stroke-width="1.01" points="223.13,-204.5 85.63,-204.5 85.63,-168.5 223.13,-168.5 223.13,-204.5"/>
<text text-anchor="start" x="93.63" y="-181.45" font-family="Times,serif" font-size="14.00">Call script is available</text>
</g>
<!-- script&#45;&gt;calling -->
<g id="edge2" class="edge">
<title>script&#45;&gt;calling</title>
<path fill="none" stroke="black" d="M175.64,-204.8C186.08,-213.3 198.84,-223.69 210.26,-232.99"/>
<polygon fill="black" stroke="black" points="207.93,-235.6 217.89,-239.2 212.35,-230.17 207.93,-235.6"/>
</g>
<!-- c5 -->
<g id="node4" class="node">
<title>c5</title>
<polygon fill="none" stroke="dodgerblue" stroke-width="1.01" points="411.26,-204.5 241.51,-204.5 241.51,-168.5 411.26,-168.5 411.26,-204.5"/>
<text text-anchor="start" x="249.51" y="-181.45" font-family="Times,serif" font-size="14.00">Phone directory can be used</text>
</g>
<!-- c5&#45;&gt;calling -->
<g id="edge3" class="edge">
<title>c5&#45;&gt;calling</title>
<path fill="none" stroke="black" d="M305.12,-204.8C294.68,-213.3 281.92,-223.69 270.5,-232.99"/>
<polygon fill="black" stroke="black" points="268.41,-230.17 262.87,-239.2 272.83,-235.6 268.41,-230.17"/>
</g>
<!-- record -->
<g id="node5" class="node">
<title>record</title>
<polygon fill="palegreen" stroke="black" stroke-width="1.01" points="615.54,-132.5 155.55,-132.5 37.22,-96.5 497.21,-96.5 615.54,-132.5"/>
<text text-anchor="start" x="189.88" y="-109.45" font-family="Times,serif" font-size="14.00">Record consent from individuals when signing&#45;up</text>
</g>
<!-- record&#45;&gt;c5 -->
<g id="edge4" class="edge">
<title>record&#45;&gt;c5</title>
<path fill="none" stroke="black" d="M326.38,-132.8C326.38,-140.09 326.38,-148.77 326.38,-156.96"/>
<polygon fill="black" stroke="black" points="322.88,-156.88 326.38,-166.88 329.88,-156.88 322.88,-156.88"/>
</g>
<!-- form -->
<g id="node6" class="node">
<title>form</title>
<polygon fill="#a4d3ee" stroke="black" stroke-width="1.01" points="403.76,-60.5 249.01,-60.5 249.01,-24.5 403.76,-24.5 403.76,-60.5"/>
<text text-anchor="start" x="257.01" y="-37.45" font-family="Times,serif" font-size="14.00">Sign&#45;up form is available</text>
</g>
<!-- form&#45;&gt;record -->
<g id="edge5" class="edge">
<title>form&#45;&gt;record</title>
<path fill="none" stroke="black" d="M326.38,-60.8C326.38,-68.09 326.38,-76.77 326.38,-84.96"/>
<polygon fill="black" stroke="black" points="322.88,-84.88 326.38,-94.88 329.88,-84.88 322.88,-84.88"/>
</g>
</g>
</svg>
