<svg width="595px" height="357px"
 viewBox="0.00 0.00 595.02 356.50" xmlns="http://www.w3.org/2000/svg" xmlns:xlink="http://www.w3.org/1999/xlink">
<g id="graph0" class="graph" transform="scale(1.0 1.0) rotate(0.0) translate(4.0 352.5)">
<polygon fill="white" stroke="none" points="-4,4 -4,-352.5 591.02,-352.5 591.02,4 -4,4"/>
<text text-anchor="start" x="259.39" y="-7.2" font-family="Times,serif" font-size="14.00">phone_reuse</text>
<!-- c1 -->
<g id="node1" class="node">
<title>c1</title>
<polygon fill="lightgrey" stroke="black" stroke-width="1.01" points="359.76,-348.5 121.01,-348.5 121.01,-312.5 359.76,-312.5 359.76,-348.5"/>
<text text-anchor="start" x="129.01" y="-325.45" font-family="Times,serif" font-size="14.00">Only interested individuals are contacted</text>
</g>
<!-- calling -->
<g id="node2" class="node">
<title>calling</title>
<polygon fill="palegreen" stroke="black" stroke-width="1.01" points="480.76,-276.5 98.37,-276.5 0,-240.5 382.39,-240.5 480.76,-276.5"/>
<text text-anchor="start" x="128.26" y="-253.45" font-family="Times,serif" font-size="14.00">Individual calls to invite for participation</text>
</g>
<!-- calling&#45;&gt;c1 -->
<g id="edge1" class="edge">
<title>calling&#45;&gt;c1</title>
<path fill="none" stroke="black" d="M240.38,-276.8C240.38,-284.09 240.38,-292.77 240.38,-300.96"/>
<polygon fill="black" stroke="black" points="236.88,-300.88 240.38,-310.88 243.88,-300.88 236.88,-300.88"/>
</g>
<!-- script -->
<g id="node3" class="node">
<title>script</title>
<polygon fill="#a4d3ee" stroke="black" stroke-width="1.01" points="221.13,-204.5 83.63,-204.5 83.63,-168.5 221.13,-168.5 221.13,-204.5"/>
<text text-anchor="start" x="91.63" y="-181.45" font-family="Times,serif" font-size="14.00">Call script is available</text>
</g>
<!-- script&#45;&gt;calling -->
<g id="edge2" class="edge">
<title>script&#45;&gt;calling</title>
<path fill="none" stroke="black" d="M174.13,-204.8C184.82,-213.3 197.87,-223.69 209.56,-232.99"/>
<polygon fill="black" stroke="black" points="207.38,-235.72 217.39,-239.21 211.74,-230.25 207.38,-235.72"/>
</g>
<!-- reused -->
<g id="node4" class="node">
<title>reused</title>
<polygon fill="none" stroke="dodgerblue" stroke-width="1.01" points="419.51,-204.5 239.26,-204.5 239.26,-168.5 419.51,-168.5 419.51,-204.5"/>
<text text-anchor="start" x="247.26" y="-181.45" font-family="Times,serif" font-size="14.00">Phone directory can be reused</text>
</g>
<!-- reused&#45;&gt;calling -->
<g id="edge3" class="edge">
<title>reused&#45;&gt;calling</title>
<path fill="none" stroke="black" d="M307.38,-204.8C296.47,-213.39 283.11,-223.89 271.2,-233.26"/>
<polygon fill="black" stroke="black" points="269.32,-230.28 263.63,-239.22 273.65,-235.79 269.32,-230.28"/>
</g>
<!-- check -->
<g id="node5" class="node">
<title>check</title>
<polygon fill="palegreen" stroke="black" stroke-width="1.01" points="587.02,-132.5 177.17,-132.5 71.74,-96.5 481.59,-96.5 587.02,-132.5"/>
<text text-anchor="start" x="208.63" y="-109.45" font-family="Times,serif" font-size="14.00">Assessing the TOU w.r.t. the intended usage</text>
</g>
<!-- check&#45;&gt;reused -->
<g id="edge4" class="edge">
<title>check&#45;&gt;reused</title>
<path fill="none" stroke="black" d="M329.38,-132.8C329.38,-140.09 329.38,-148.77 329.38,-156.96"/>
<polygon fill="black" stroke="black" points="325.88,-156.88 329.38,-166.88 332.88,-156.88 325.88,-156.88"/>
</g>
<!-- tou -->
<g id="node6" class="node">
<title>tou</title>
<polygon fill="#a4d3ee" stroke="black" stroke-width="1.01" points="284.63,-60.5 156.13,-60.5 156.13,-24.5 284.63,-24.5 284.63,-60.5"/>
<text text-anchor="start" x="164.13" y="-37.45" font-family="Times,serif" font-size="14.00">Terms of use (TOU)</text>
</g>
<!-- tou&#45;&gt;check -->
<g id="edge5" class="edge">
<title>tou&#45;&gt;check</title>
<path fill="none" stroke="black" d="M247.6,-60.98C261.36,-69.82 278.25,-80.66 293.09,-90.2"/>
<polygon fill="black" stroke="black" points="290.92,-92.96 301.23,-95.42 294.71,-87.07 290.92,-92.96"/>
</g>
<!-- directory -->
<g id="node7" class="node">
<title>directory</title>
<polygon fill="#a4d3ee" stroke="black" stroke-width="1.01" points="575.63,-60.5 303.13,-60.5 303.13,-24.5 575.63,-24.5 575.63,-60.5"/>
<text text-anchor="start" x="311.13" y="-37.45" font-family="Times,serif" font-size="14.00">Phone directory is provided by a partner centre</text>
</g>
<!-- directory&#45;&gt;check -->
<g id="edge6" class="edge">
<title>directory&#45;&gt;check</title>
<path fill="none" stroke="black" d="M411.91,-60.98C398.02,-69.82 380.98,-80.66 366,-90.2"/>
<polygon fill="black" stroke="black" points="364.34,-87.11 357.78,-95.43 368.1,-93.01 364.34,-87.11"/>
</g>
</g>
</svg>
