<svg width="411px" height="213px"
 viewBox="0.00 0.00 410.72 212.50" xmlns="http://www.w3.org/2000/svg" xmlns:xlink="http://www.w3.org/1999/xlink">
<g id="graph0" class="graph" transform="scale(1.0 1.0) rotate(0.0) translate(4.0 208.5)">
<polygon fill="white" stroke="none" points="-4,4 -4,-208.5 406.72,-208.5 406.72,4 -4,4"/>
<text text-anchor="start" x="182.23" y="-7.2" font-family="Times,serif" font-size="14.00">posters</text>
<!-- c2 -->
<g id="node1" class="node">
<title>c2</title>
<polygon fill="lightgrey" stroke="black" stroke-width="1.01" points="331.23,-204.5 71.48,-204.5 71.48,-168.5 331.23,-168.5 331.23,-204.5"/>
<text text-anchor="start" x="79.48" y="-181.45" font-family="Times,serif" font-size="14.00">General audience has awareness of the event</text>
</g>
<!-- display -->
<g id="node2" class="node">
<title>display</title>
<polygon fill="palegreen" stroke="black" stroke-width="1.01" points="402.72,-132.5 82.4,-132.5 0,-96.5 320.32,-96.5 402.72,-132.5"/>
<text text-anchor="start" x="108.73" y="-109.45" font-family="Times,serif" font-size="14.00">Display posters in strategic places</text>
</g>
<!-- display&#45;&gt;c2 -->
<g id="edge1" class="edge">
<title>display&#45;&gt;c2</title>
<path fill="none" stroke="black" d="M201.36,-132.8C201.36,-140.09 201.36,-148.77 201.36,-156.96"/>
<polygon fill="black" stroke="black" points="197.86,-156.88 201.36,-166.88 204.86,-156.88 197.86,-156.88"/>
</g>
<!-- locations -->
<g id="node3" class="node">
<title>locations</title>
<polygon fill="#a4d3ee" stroke="black" stroke-width="1.01" points="195.73,-60.5 52.98,-60.5 52.98,-24.5 195.73,-24.5 195.73,-60.5"/>
<text text-anchor="start" x="60.98" y="-37.45" font-family="Times,serif" font-size="14.00">Approved locations list</text>
</g>
<!-- locations&#45;&gt;display -->
<g id="edge2" class="edge">
<title>locations&#45;&gt;display</title>
<path fill="none" stroke="black" d="M143.39,-60.8C152.56,-69.13 163.71,-79.28 173.79,-88.43"/>
<polygon fill="black" stroke="black" points="171.4,-91 181.16,-95.13 176.11,-85.82 171.4,-91"/>
</g>
<!-- poster -->
<g id="node4" class="node">
<title>poster</title>
<polygon fill="#a4d3ee" stroke="black" stroke-width="1.01" points="342.61,-60.5 214.11,-60.5 214.11,-24.5 342.61,-24.5 342.61,-60.5"/>
<text text-anchor="start" x="222.11" y="-37.45" font-family="Times,serif" font-size="14.00">Approved poster file</text>
</g>
<!-- poster&#45;&gt;display -->
<g id="edge3" class="edge">
<title>poster&#45;&gt;display</title>
<path fill="none" stroke="black" d="M259.33,-60.8C250.16,-69.13 239,-79.28 228.93,-88.43"/>
<polygon fill="black" stroke="black" points="226.61,-85.82 221.56,-95.13 231.31,-91 226.61,-85.82"/>
</g>
</g>
</svg>
