<svg width="1451px" height="645px"
 viewBox="0.00 0.00 1450.74 644.50" xmlns="http://www.w3.org/2000/svg" xmlns:xlink="http://www.w3.org/1999/xlink">
<g id="graph0" class="graph" transform="scale(1.0 1.0) rotate(0.0) translate(4.0 640.5)">
<polygon fill="white" stroke="none" points="-4,4 -4,-640.5 1446.74,-640.5 1446.74,4 -4,4"/>
<text text-anchor="start" x="671.12" y="-7.2" font-family="Times,serif" font-size="14.00">recruitement_final</text>
<!-- c -->
<g id="node1" class="node">
<title>c</title>
<polygon fill="lightgrey" stroke="black" stroke-width="1.01" points="880.51,-636.5 640.26,-636.5 640.26,-600.5 880.51,-600.5 880.51,-636.5"/>
<text text-anchor="start" x="648.26" y="-613.45" font-family="Times,serif" font-size="14.00">Potential participant pool is large enough</text>
</g>
<!-- and -->
<g id="node2" class="node">
<title>and</title>
<polygon fill="palegreen" stroke="black" stroke-width="1.01" points="960.24,-564.5 642.31,-564.5 560.52,-528.5 878.45,-528.5 960.24,-564.5"/>
<text text-anchor="start" x="668.51" y="-541.45" font-family="Times,serif" font-size="14.00">Combining recruitments methods</text>
</g>
<!-- and&#45;&gt;c -->
<g id="edge1" class="edge">
<title>and&#45;&gt;c</title>
<path fill="none" stroke="black" d="M760.38,-564.8C760.38,-572.09 760.38,-580.77 760.38,-588.96"/>
<polygon fill="black" stroke="black" points="756.88,-588.88 760.38,-598.88 763.88,-588.88 756.88,-588.88"/>
</g>
<!-- c1 -->
<g id="node3" class="node">
<title>c1</title>
<polygon fill="none" stroke="dodgerblue" stroke-width="1.01" points="469.76,-492.5 231.01,-492.5 231.01,-456.5 469.76,-456.5 469.76,-492.5"/>
<text text-anchor="start" x="239.01" y="-469.45" font-family="Times,serif" font-size="14.00">Only interested individuals are contacted</text>
</g>
<!-- c1&#45;&gt;and -->
<g id="edge2" class="edge">
<title>c1&#45;&gt;and</title>
<path fill="none" stroke="black" d="M452.78,-492.98C511.84,-503.07 586.21,-515.76 647.03,-526.15"/>
<polygon fill="black" stroke="black" points="646.28,-529.57 656.73,-527.8 647.46,-522.67 646.28,-529.57"/>
</g>
<!-- calling -->
<g id="node4" class="node">
<title>calling</title>
<polygon fill="palegreen" stroke="black" stroke-width="1.01" points="480.76,-420.5 98.37,-420.5 0,-384.5 382.39,-384.5 480.76,-420.5"/>
<text text-anchor="start" x="128.26" y="-397.45" font-family="Times,serif" font-size="14.00">Individual calls to invite for participation</text>
</g>
<!-- calling&#45;&gt;c1 -->
<g id="edge3" class="edge">
<title>calling&#45;&gt;c1</title>
<path fill="none" stroke="black" d="M267.85,-420.98C281.74,-429.82 298.78,-440.66 313.76,-450.2"/>
<polygon fill="black" stroke="black" points="311.66,-453.01 321.98,-455.43 315.42,-447.11 311.66,-453.01"/>
</g>
<!-- script -->
<g id="node5" class="node">
<title>script</title>
<polygon fill="#a4d3ee" stroke="black" stroke-width="1.01" points="246.13,-348.5 108.63,-348.5 108.63,-312.5 246.13,-312.5 246.13,-348.5"/>
<text text-anchor="start" x="116.63" y="-325.45" font-family="Times,serif" font-size="14.00">Call script is available</text>
</g>
<!-- script&#45;&gt;calling -->
<g id="edge4" class="edge">
<title>script&#45;&gt;calling</title>
<path fill="none" stroke="black" d="M192.95,-348.8C200.35,-357.03 209.35,-367.02 217.5,-376.08"/>
<polygon fill="black" stroke="black" points="214.68,-378.18 223.97,-383.27 219.89,-373.5 214.68,-378.18"/>
</g>
<!-- reused -->
<g id="node6" class="node">
<title>reused</title>
<polygon fill="none" stroke="dodgerblue" stroke-width="1.01" points="444.51,-348.5 264.26,-348.5 264.26,-312.5 444.51,-312.5 444.51,-348.5"/>
<text text-anchor="start" x="272.26" y="-325.45" font-family="Times,serif" font-size="14.00">Phone directory can be reused</text>
</g>
<!-- reused&#45;&gt;calling -->
<g id="edge5" class="edge">
<title>reused&#45;&gt;calling</title>
<path fill="none" stroke="black" d="M325.91,-348.98C311.38,-357.9 293.52,-368.87 277.89,-378.47"/>
<polygon fill="black" stroke="black" points="276.47,-375.23 269.78,-383.45 280.13,-381.2 276.47,-375.23"/>
</g>
<!-- check -->
<g id="node7" class="node">
<title>check</title>
<polygon fill="palegreen" stroke="black" stroke-width="1.01" points="612.02,-276.5 202.17,-276.5 96.74,-240.5 506.59,-240.5 612.02,-276.5"/>
<text text-anchor="start" x="233.63" y="-253.45" font-family="Times,serif" font-size="14.00">Assessing the TOU w.r.t. the intended usage</text>
</g>
<!-- check&#45;&gt;reused -->
<g id="edge6" class="edge">
<title>check&#45;&gt;reused</title>
<path fill="none" stroke="black" d="M354.38,-276.8C354.38,-284.09 354.38,-292.77 354.38,-300.96"/>
<polygon fill="black" stroke="black" points="350.88,-300.88 354.38,-310.88 357.88,-300.88 350.88,-300.88"/>
</g>
<!-- tou -->
<g id="node8" class="node">
<title>tou</title>
<polygon fill="#a4d3ee" stroke="black" stroke-width="1.01" points="361.63,-204.5 233.13,-204.5 233.13,-168.5 361.63,-168.5 361.63,-204.5"/>
<text text-anchor="start" x="241.13" y="-181.45" font-family="Times,serif" font-size="14.00">Terms of use (TOU)</text>
</g>
<!-- tou&#45;&gt;check -->
<g id="edge7" class="edge">
<title>tou&#45;&gt;check</title>
<path fill="none" stroke="black" d="M311.47,-204.8C318.03,-212.86 325.97,-222.61 333.22,-231.52"/>
<polygon fill="black" stroke="black" points="330.47,-233.68 339.5,-239.22 335.9,-229.26 330.47,-233.68"/>
</g>
<!-- directory -->
<g id="node9" class="node">
<title>directory</title>
<polygon fill="#a4d3ee" stroke="black" stroke-width="1.01" points="652.63,-204.5 380.13,-204.5 380.13,-168.5 652.63,-168.5 652.63,-204.5"/>
<text text-anchor="start" x="388.13" y="-181.45" font-family="Times,serif" font-size="14.00">Phone directory is provided by a partner centre</text>
</g>
<!-- directory&#45;&gt;check -->
<g id="edge8" class="edge">
<title>directory&#45;&gt;check</title>
<path fill="none" stroke="black" d="M475.92,-204.98C454.48,-214.25 427.93,-225.72 405.13,-235.57"/>
<polygon fill="black" stroke="black" points="403.79,-232.34 396,-239.52 406.56,-238.76 403.79,-232.34"/>
</g>
<!-- c3 -->
<g id="node10" class="node">
<title>c3</title>
<polygon fill="none" stroke="dodgerblue" stroke-width="1.01" points="923.63,-492.5 597.13,-492.5 597.13,-456.5 923.63,-456.5 923.63,-492.5"/>
<text text-anchor="start" x="605.13" y="-469.45" font-family="Times,serif" font-size="14.00">Established trust exists with potential on&#45;site participants</text>
</g>
<!-- c3&#45;&gt;and -->
<g id="edge9" class="edge">
<title>c3&#45;&gt;and</title>
<path fill="none" stroke="black" d="M760.38,-492.8C760.38,-500.09 760.38,-508.77 760.38,-516.96"/>
<polygon fill="black" stroke="black" points="756.88,-516.88 760.38,-526.88 763.88,-516.88 756.88,-516.88"/>
</g>
<!-- chat -->
<g id="node11" class="node">
<title>chat</title>
<polygon fill="palegreen" stroke="black" stroke-width="1.01" points="1021.77,-420.5 605.96,-420.5 498.99,-384.5 914.81,-384.5 1021.77,-420.5"/>
<text text-anchor="start" x="637.76" y="-397.45" font-family="Times,serif" font-size="14.00">On&#45;site discussion with potential participants</text>
</g>
<!-- chat&#45;&gt;c3 -->
<g id="edge10" class="edge">
<title>chat&#45;&gt;c3</title>
<path fill="none" stroke="black" d="M760.38,-420.8C760.38,-428.09 760.38,-436.77 760.38,-444.96"/>
<polygon fill="black" stroke="black" points="756.88,-444.88 760.38,-454.88 763.88,-444.88 756.88,-444.88"/>
</g>
<!-- talking_points -->
<g id="node12" class="node">
<title>talking_points</title>
<polygon fill="#a4d3ee" stroke="black" stroke-width="1.01" points="833.63,-348.5 687.13,-348.5 687.13,-312.5 833.63,-312.5 833.63,-348.5"/>
<text text-anchor="start" x="695.13" y="-325.45" font-family="Times,serif" font-size="14.00">Identified talking points</text>
</g>
<!-- talking_points&#45;&gt;chat -->
<g id="edge11" class="edge">
<title>talking_points&#45;&gt;chat</title>
<path fill="none" stroke="black" d="M760.38,-348.8C760.38,-356.09 760.38,-364.77 760.38,-372.96"/>
<polygon fill="black" stroke="black" points="756.88,-372.88 760.38,-382.88 763.88,-372.88 756.88,-372.88"/>
</g>
<!-- locations -->
<g id="node13" class="node">
<title>locations</title>
<polygon fill="none" stroke="dodgerblue" stroke-width="1.01" points="1109.38,-348.5 901.38,-348.5 901.38,-312.5 1109.38,-312.5 1109.38,-348.5"/>
<text text-anchor="start" x="909.38" y="-325.45" font-family="Times,serif" font-size="14.00">List of usable locations is available</text>
</g>
<!-- locations&#45;&gt;chat -->
<g id="edge13" class="edge">
<title>locations&#45;&gt;chat</title>
<path fill="none" stroke="black" d="M944.19,-348.98C910.15,-358.71 867.6,-370.86 832.02,-381.03"/>
<polygon fill="black" stroke="black" points="831.33,-377.59 822.67,-383.7 833.25,-384.32 831.33,-377.59"/>
</g>
<!-- display -->
<g id="node20" class="node">
<title>display</title>
<polygon fill="palegreen" stroke="black" stroke-width="1.01" points="1442.74,-420.5 1122.42,-420.5 1040.02,-384.5 1360.34,-384.5 1442.74,-420.5"/>
<text text-anchor="start" x="1148.76" y="-397.45" font-family="Times,serif" font-size="14.00">Display posters in strategic places</text>
</g>
<!-- locations&#45;&gt;display -->
<g id="edge12" class="edge">
<title>locations&#45;&gt;display</title>
<path fill="none" stroke="black" d="M1064.32,-348.98C1096.97,-358.67 1137.74,-370.76 1171.93,-380.9"/>
<polygon fill="black" stroke="black" points="1170.75,-384.2 1181.33,-383.69 1172.74,-377.49 1170.75,-384.2"/>
</g>
<!-- combining -->
<g id="node14" class="node">
<title>combining</title>
<polygon fill="palegreen" stroke="black" stroke-width="1.01" points="1220.25,-276.5 878.44,-276.5 790.51,-240.5 1132.32,-240.5 1220.25,-276.5"/>
<text text-anchor="start" x="906.01" y="-253.45" font-family="Times,serif" font-size="14.00">Combining both lists into one single</text>
</g>
<!-- combining&#45;&gt;locations -->
<g id="edge14" class="edge">
<title>combining&#45;&gt;locations</title>
<path fill="none" stroke="black" d="M1005.38,-276.8C1005.38,-284.09 1005.38,-292.77 1005.38,-300.96"/>
<polygon fill="black" stroke="black" points="1001.88,-300.88 1005.38,-310.88 1008.88,-300.88 1001.88,-300.88"/>
</g>
<!-- authorized -->
<g id="node15" class="node">
<title>authorized</title>
<polygon fill="none" stroke="dodgerblue" stroke-width="1.01" points="1010.63,-204.5 780.13,-204.5 780.13,-168.5 1010.63,-168.5 1010.63,-204.5"/>
<text text-anchor="start" x="788.13" y="-181.45" font-family="Times,serif" font-size="14.00">List of authorized locations is available</text>
</g>
<!-- authorized&#45;&gt;combining -->
<g id="edge15" class="edge">
<title>authorized&#45;&gt;combining</title>
<path fill="none" stroke="black" d="M922.85,-204.98C936.74,-213.82 953.78,-224.66 968.76,-234.2"/>
<polygon fill="black" stroke="black" points="966.66,-237.01 976.98,-239.43 970.42,-231.11 966.66,-237.01"/>
</g>
<!-- authorization -->
<g id="node16" class="node">
<title>authorization</title>
<polygon fill="palegreen" stroke="black" stroke-width="1.01" points="1144.77,-132.5 748.05,-132.5 646,-96.5 1042.71,-96.5 1144.77,-132.5"/>
<text text-anchor="start" x="778.76" y="-109.45" font-family="Times,serif" font-size="14.00">Collecting authorization from stakeholders</text>
</g>
<!-- authorization&#45;&gt;authorized -->
<g id="edge16" class="edge">
<title>authorization&#45;&gt;authorized</title>
<path fill="none" stroke="black" d="M895.38,-132.8C895.38,-140.09 895.38,-148.77 895.38,-156.96"/>
<polygon fill="black" stroke="black" points="891.88,-156.88 895.38,-166.88 898.88,-156.88 891.88,-156.88"/>
</g>
<!-- places -->
<g id="node17" class="node">
<title>places</title>
<polygon fill="#a4d3ee" stroke="black" stroke-width="1.01" points="1011.76,-60.5 779.01,-60.5 779.01,-24.5 1011.76,-24.5 1011.76,-60.5"/>
<text text-anchor="start" x="787.01" y="-37.45" font-family="Times,serif" font-size="14.00">List of locations requiring authorization</text>
</g>
<!-- places&#45;&gt;authorization -->
<g id="edge17" class="edge">
<title>places&#45;&gt;authorization</title>
<path fill="none" stroke="black" d="M895.38,-60.8C895.38,-68.09 895.38,-76.77 895.38,-84.96"/>
<polygon fill="black" stroke="black" points="891.88,-84.88 895.38,-94.88 898.88,-84.88 891.88,-84.88"/>
</g>
<!-- public -->
<g id="node18" class="node">
<title>public</title>
<polygon fill="#a4d3ee" stroke="black" stroke-width="1.01" points="1314.38,-204.5 1028.38,-204.5 1028.38,-168.5 1314.38,-168.5 1314.38,-204.5"/>
<text text-anchor="start" x="1036.38" y="-181.45" font-family="Times,serif" font-size="14.00">List of public location not requiring authorization</text>
</g>
<!-- public&#45;&gt;combining -->
<g id="edge18" class="edge">
<title>public&#45;&gt;combining</title>
<path fill="none" stroke="black" d="M1129.92,-204.98C1107.85,-214.29 1080.5,-225.82 1057.06,-235.71"/>
<polygon fill="black" stroke="black" points="1055.85,-232.42 1047.99,-239.53 1058.57,-238.87 1055.85,-232.42"/>
</g>
<!-- c2 -->
<g id="node19" class="node">
<title>c2</title>
<polygon fill="none" stroke="dodgerblue" stroke-width="1.01" points="1286.26,-492.5 1026.51,-492.5 1026.51,-456.5 1286.26,-456.5 1286.26,-492.5"/>
<text text-anchor="start" x="1034.51" y="-469.45" font-family="Times,serif" font-size="14.00">General audience has awareness of the event</text>
</g>
<!-- c2&#45;&gt;and -->
<g id="edge19" class="edge">
<title>c2&#45;&gt;and</title>
<path fill="none" stroke="black" d="M1057.47,-492.98C1000.55,-503.05 928.9,-515.71 870.23,-526.08"/>
<polygon fill="black" stroke="black" points="869.78,-522.61 860.55,-527.79 871,-529.5 869.78,-522.61"/>
</g>
<!-- display&#45;&gt;c2 -->
<g id="edge20" class="edge">
<title>display&#45;&gt;c2</title>
<path fill="none" stroke="black" d="M1220.37,-420.8C1210.05,-429.3 1197.44,-439.69 1186.15,-448.99"/>
<polygon fill="black" stroke="black" points="1184.11,-446.13 1178.61,-455.19 1188.56,-451.54 1184.11,-446.13"/>
</g>
<!-- poster -->
<g id="node21" class="node">
<title>poster</title>
<polygon fill="#a4d3ee" stroke="black" stroke-width="1.01" points="1305.63,-348.5 1177.13,-348.5 1177.13,-312.5 1305.63,-312.5 1305.63,-348.5"/>
<text text-anchor="start" x="1185.13" y="-325.45" font-family="Times,serif" font-size="14.00">Approved poster file</text>
</g>
<!-- poster&#45;&gt;display -->
<g id="edge21" class="edge">
<title>poster&#45;&gt;display</title>
<path fill="none" stroke="black" d="M1241.38,-348.8C1241.38,-356.09 1241.38,-364.77 1241.38,-372.96"/>
<polygon fill="black" stroke="black" points="1237.88,-372.88 1241.38,-382.88 1244.88,-372.88 1237.88,-372.88"/>
</g>
</g>
</svg>
