<svg width="1451px" height="357px"
 viewBox="0.00 0.00 1450.74 356.50" xmlns="http://www.w3.org/2000/svg" xmlns:xlink="http://www.w3.org/1999/xlink">
<g id="graph0" class="graph" transform="scale(1.0 1.0) rotate(0.0) translate(4.0 352.5)">
<polygon fill="white" stroke="none" points="-4,4 -4,-352.5 1446.74,-352.5 1446.74,4 -4,4"/>
<text text-anchor="start" x="686.87" y="-7.2" font-family="Times,serif" font-size="14.00">recruitement</text>
<!-- c -->
<g id="node1" class="node">
<title>c</title>
<polygon fill="lightgrey" stroke="black" stroke-width="1.01" points="880.51,-348.5 640.26,-348.5 640.26,-312.5 880.51,-312.5 880.51,-348.5"/>
<text text-anchor="start" x="648.26" y="-325.45" font-family="Times,serif" font-size="14.00">Potential participant pool is large enough</text>
</g>
<!-- and -->
<g id="node2" class="node">
<title>and</title>
<polygon fill="palegreen" stroke="black" stroke-width="1.01" points="960.24,-276.5 642.31,-276.5 560.52,-240.5 878.45,-240.5 960.24,-276.5"/>
<text text-anchor="start" x="668.51" y="-253.45" font-family="Times,serif" font-size="14.00">Combining recruitments methods</text>
</g>
<!-- and&#45;&gt;c -->
<g id="edge1" class="edge">
<title>and&#45;&gt;c</title>
<path fill="none" stroke="black" d="M760.38,-276.8C760.38,-284.09 760.38,-292.77 760.38,-300.96"/>
<polygon fill="black" stroke="black" points="756.88,-300.88 760.38,-310.88 763.88,-300.88 756.88,-300.88"/>
</g>
<!-- c1 -->
<g id="node3" class="node">
<title>c1</title>
<polygon fill="none" stroke="dodgerblue" stroke-width="1.01" points="469.76,-204.5 231.01,-204.5 231.01,-168.5 469.76,-168.5 469.76,-204.5"/>
<text text-anchor="start" x="239.01" y="-181.45" font-family="Times,serif" font-size="14.00">Only interested individuals are contacted</text>
</g>
<!-- c1&#45;&gt;and -->
<g id="edge2" class="edge">
<title>c1&#45;&gt;and</title>
<path fill="none" stroke="black" d="M452.78,-204.98C511.84,-215.07 586.21,-227.76 647.03,-238.15"/>
<polygon fill="black" stroke="black" points="646.28,-241.57 656.73,-239.8 647.46,-234.67 646.28,-241.57"/>
</g>
<!-- calling -->
<g id="node4" class="node">
<title>calling</title>
<polygon fill="palegreen" stroke="black" stroke-width="1.01" points="480.76,-132.5 98.37,-132.5 0,-96.5 382.39,-96.5 480.76,-132.5"/>
<text text-anchor="start" x="128.26" y="-109.45" font-family="Times,serif" font-size="14.00">Individual calls to invite for participation</text>
</g>
<!-- calling&#45;&gt;c1 -->
<g id="edge3" class="edge">
<title>calling&#45;&gt;c1</title>
<path fill="none" stroke="black" d="M267.85,-132.98C281.74,-141.82 298.78,-152.66 313.76,-162.2"/>
<polygon fill="black" stroke="black" points="311.66,-165.01 321.98,-167.43 315.42,-159.11 311.66,-165.01"/>
</g>
<!-- script -->
<g id="node5" class="node">
<title>script</title>
<polygon fill="#a4d3ee" stroke="black" stroke-width="1.01" points="224.13,-60.5 86.63,-60.5 86.63,-24.5 224.13,-24.5 224.13,-60.5"/>
<text text-anchor="start" x="94.63" y="-37.45" font-family="Times,serif" font-size="14.00">Call script is available</text>
</g>
<!-- script&#45;&gt;calling -->
<g id="edge4" class="edge">
<title>script&#45;&gt;calling</title>
<path fill="none" stroke="black" d="M176.39,-60.8C186.71,-69.3 199.32,-79.69 210.61,-88.99"/>
<polygon fill="black" stroke="black" points="208.2,-91.54 218.15,-95.19 212.65,-86.13 208.2,-91.54"/>
</g>
<!-- directory -->
<g id="node6" class="node">
<title>directory</title>
<polygon fill="#a4d3ee" stroke="black" stroke-width="1.01" points="410.13,-60.5 242.63,-60.5 242.63,-24.5 410.13,-24.5 410.13,-60.5"/>
<text text-anchor="start" x="250.63" y="-37.45" font-family="Times,serif" font-size="14.00">Phone directory is available</text>
</g>
<!-- directory&#45;&gt;calling -->
<g id="edge5" class="edge">
<title>directory&#45;&gt;calling</title>
<path fill="none" stroke="black" d="M305.12,-60.8C294.68,-69.3 281.92,-79.69 270.5,-88.99"/>
<polygon fill="black" stroke="black" points="268.41,-86.17 262.87,-95.2 272.83,-91.6 268.41,-86.17"/>
</g>
<!-- c3 -->
<g id="node7" class="node">
<title>c3</title>
<polygon fill="none" stroke="dodgerblue" stroke-width="1.01" points="923.63,-204.5 597.13,-204.5 597.13,-168.5 923.63,-168.5 923.63,-204.5"/>
<text text-anchor="start" x="605.13" y="-181.45" font-family="Times,serif" font-size="14.00">Established trust exists with potential on&#45;site participants</text>
</g>
<!-- c3&#45;&gt;and -->
<g id="edge6" class="edge">
<title>c3&#45;&gt;and</title>
<path fill="none" stroke="black" d="M760.38,-204.8C760.38,-212.09 760.38,-220.77 760.38,-228.96"/>
<polygon fill="black" stroke="black" points="756.88,-228.88 760.38,-238.88 763.88,-228.88 756.88,-228.88"/>
</g>
<!-- chat -->
<g id="node8" class="node">
<title>chat</title>
<polygon fill="palegreen" stroke="black" stroke-width="1.01" points="1021.77,-132.5 605.96,-132.5 498.99,-96.5 914.81,-96.5 1021.77,-132.5"/>
<text text-anchor="start" x="637.76" y="-109.45" font-family="Times,serif" font-size="14.00">On&#45;site discussion with potential participants</text>
</g>
<!-- chat&#45;&gt;c3 -->
<g id="edge7" class="edge">
<title>chat&#45;&gt;c3</title>
<path fill="none" stroke="black" d="M760.38,-132.8C760.38,-140.09 760.38,-148.77 760.38,-156.96"/>
<polygon fill="black" stroke="black" points="756.88,-156.88 760.38,-166.88 763.88,-156.88 756.88,-156.88"/>
</g>
<!-- locations -->
<g id="node9" class="node">
<title>locations</title>
<polygon fill="#a4d3ee" stroke="black" stroke-width="1.01" points="1076.76,-60.5 934.01,-60.5 934.01,-24.5 1076.76,-24.5 1076.76,-60.5"/>
<text text-anchor="start" x="942.01" y="-37.45" font-family="Times,serif" font-size="14.00">Approved locations list</text>
</g>
<!-- locations&#45;&gt;chat -->
<g id="edge9" class="edge">
<title>locations&#45;&gt;chat</title>
<path fill="none" stroke="black" d="M944.19,-60.98C910.15,-70.71 867.6,-82.86 832.02,-93.03"/>
<polygon fill="black" stroke="black" points="831.33,-89.59 822.67,-95.7 833.25,-96.32 831.33,-89.59"/>
</g>
<!-- display -->
<g id="node12" class="node">
<title>display</title>
<polygon fill="palegreen" stroke="black" stroke-width="1.01" points="1442.74,-132.5 1122.42,-132.5 1040.02,-96.5 1360.34,-96.5 1442.74,-132.5"/>
<text text-anchor="start" x="1148.76" y="-109.45" font-family="Times,serif" font-size="14.00">Display posters in strategic places</text>
</g>
<!-- locations&#45;&gt;display -->
<g id="edge8" class="edge">
<title>locations&#45;&gt;display</title>
<path fill="none" stroke="black" d="M1064.32,-60.98C1096.97,-70.67 1137.74,-82.76 1171.93,-92.9"/>
<polygon fill="black" stroke="black" points="1170.75,-96.2 1181.33,-95.69 1172.74,-89.49 1170.75,-96.2"/>
</g>
<!-- talking_points -->
<g id="node10" class="node">
<title>talking_points</title>
<polygon fill="#a4d3ee" stroke="black" stroke-width="1.01" points="833.63,-60.5 687.13,-60.5 687.13,-24.5 833.63,-24.5 833.63,-60.5"/>
<text text-anchor="start" x="695.13" y="-37.45" font-family="Times,serif" font-size="14.00">Identified talking points</text>
</g>
<!-- talking_points&#45;&gt;chat -->
<g id="edge10" class="edge">
<title>talking_points&#45;&gt;chat</title>
<path fill="none" stroke="black" d="M760.38,-60.8C760.38,-68.09 760.38,-76.77 760.38,-84.96"/>
<polygon fill="black" stroke="black" points="756.88,-84.88 760.38,-94.88 763.88,-84.88 756.88,-84.88"/>
</g>
<!-- c2 -->
<g id="node11" class="node">
<title>c2</title>
<polygon fill="none" stroke="dodgerblue" stroke-width="1.01" points="1286.26,-204.5 1026.51,-204.5 1026.51,-168.5 1286.26,-168.5 1286.26,-204.5"/>
<text text-anchor="start" x="1034.51" y="-181.45" font-family="Times,serif" font-size="14.00">General audience has awareness of the event</text>
</g>
<!-- c2&#45;&gt;and -->
<g id="edge11" class="edge">
<title>c2&#45;&gt;and</title>
<path fill="none" stroke="black" d="M1057.47,-204.98C1000.55,-215.05 928.9,-227.71 870.23,-238.08"/>
<polygon fill="black" stroke="black" points="869.78,-234.61 860.55,-239.79 871,-241.5 869.78,-234.61"/>
</g>
<!-- display&#45;&gt;c2 -->
<g id="edge12" class="edge">
<title>display&#45;&gt;c2</title>
<path fill="none" stroke="black" d="M1220.37,-132.8C1210.05,-141.3 1197.44,-151.69 1186.15,-160.99"/>
<polygon fill="black" stroke="black" points="1184.11,-158.13 1178.61,-167.19 1188.56,-163.54 1184.11,-158.13"/>
</g>
<!-- poster -->
<g id="node13" class="node">
<title>poster</title>
<polygon fill="#a4d3ee" stroke="black" stroke-width="1.01" points="1305.63,-60.5 1177.13,-60.5 1177.13,-24.5 1305.63,-24.5 1305.63,-60.5"/>
<text text-anchor="start" x="1185.13" y="-37.45" font-family="Times,serif" font-size="14.00">Approved poster file</text>
</g>
<!-- poster&#45;&gt;display -->
<g id="edge13" class="edge">
<title>poster&#45;&gt;display</title>
<path fill="none" stroke="black" d="M1241.38,-60.8C1241.38,-68.09 1241.38,-76.77 1241.38,-84.96"/>
<polygon fill="black" stroke="black" points="1237.88,-84.88 1241.38,-94.88 1244.88,-84.88 1237.88,-84.88"/>
</g>
</g>
</svg>
