<svg width="531px" height="213px"
 viewBox="0.00 0.00 530.78 212.50" xmlns="http://www.w3.org/2000/svg" xmlns:xlink="http://www.w3.org/1999/xlink">
<g id="graph0" class="graph" transform="scale(1.0 1.0) rotate(0.0) translate(4.0 208.5)">
<polygon fill="white" stroke="none" points="-4,4 -4,-208.5 526.78,-208.5 526.78,4 -4,4"/>
<text text-anchor="start" x="243.02" y="-7.2" font-family="Times,serif" font-size="14.00">trusted</text>
<!-- c3 -->
<g id="node1" class="node">
<title>c3</title>
<polygon fill="lightgrey" stroke="black" stroke-width="1.01" points="424.64,-204.5 98.14,-204.5 98.14,-168.5 424.64,-168.5 424.64,-204.5"/>
<text text-anchor="start" x="106.14" y="-181.45" font-family="Times,serif" font-size="14.00">Established trust exists with potential on&#45;site participants</text>
</g>
<!-- chat -->
<g id="node2" class="node">
<title>chat</title>
<polygon fill="palegreen" stroke="black" stroke-width="1.01" points="522.78,-132.5 106.97,-132.5 0,-96.5 415.82,-96.5 522.78,-132.5"/>
<text text-anchor="start" x="138.77" y="-109.45" font-family="Times,serif" font-size="14.00">On&#45;site discussion with potential participants</text>
</g>
<!-- chat&#45;&gt;c3 -->
<g id="edge1" class="edge">
<title>chat&#45;&gt;c3</title>
<path fill="none" stroke="black" d="M261.39,-132.8C261.39,-140.09 261.39,-148.77 261.39,-156.96"/>
<polygon fill="black" stroke="black" points="257.89,-156.88 261.39,-166.88 264.89,-156.88 257.89,-156.88"/>
</g>
<!-- locations -->
<g id="node3" class="node">
<title>locations</title>
<polygon fill="#a4d3ee" stroke="black" stroke-width="1.01" points="251.77,-60.5 109.02,-60.5 109.02,-24.5 251.77,-24.5 251.77,-60.5"/>
<text text-anchor="start" x="117.02" y="-37.45" font-family="Times,serif" font-size="14.00">Approved locations list</text>
</g>
<!-- locations&#45;&gt;chat -->
<g id="edge2" class="edge">
<title>locations&#45;&gt;chat</title>
<path fill="none" stroke="black" d="M200.41,-60.8C210.15,-69.22 222.03,-79.48 232.71,-88.71"/>
<polygon fill="black" stroke="black" points="230.32,-91.27 240.17,-95.16 234.9,-85.98 230.32,-91.27"/>
</g>
<!-- talking_points -->
<g id="node4" class="node">
<title>talking_points</title>
<polygon fill="#a4d3ee" stroke="black" stroke-width="1.01" points="416.64,-60.5 270.14,-60.5 270.14,-24.5 416.64,-24.5 416.64,-60.5"/>
<text text-anchor="start" x="278.14" y="-37.45" font-family="Times,serif" font-size="14.00">Identified talking points</text>
</g>
<!-- talking_points&#45;&gt;chat -->
<g id="edge3" class="edge">
<title>talking_points&#45;&gt;chat</title>
<path fill="none" stroke="black" d="M323.12,-60.8C313.27,-69.22 301.24,-79.48 290.43,-88.71"/>
<polygon fill="black" stroke="black" points="288.2,-86.02 282.86,-95.17 292.74,-91.34 288.2,-86.02"/>
</g>
</g>
</svg>
